<svg width="132" height="31" viewBox="0 0 132 31" fill="none" xmlns="http://www.w3.org/2000/svg">
<path d="M0.75 2C0.75 1.30964 1.30964 0.75 2 0.75H30.25V30.25H2C1.30964 30.25 0.75 29.6904 0.75 29V2Z" stroke="#00B2FF" strokeWidth="1.5"/>
<path d="M13.4055 9.94446C13.4055 8.87057 14.2761 8.00001 15.3499 8.00001C16.4238 8.00001 17.2944 8.87057 17.2944 9.94446C17.2944 11.0184 16.4238 11.8889 15.3499 11.8889C14.2761 11.8889 13.4055 11.0184 13.4055 9.94446Z" fill="#00B2FF" fill-opacity="0.25"/>
<path d="M20.2889 20.0557C20.2889 18.9818 21.1594 18.1112 22.2333 18.1112C23.3072 18.1112 24.1778 18.9818 24.1778 20.0557C24.1778 21.1296 23.3072 22.0001 22.2333 22.0001C21.1594 22.0001 20.2889 21.1296 20.2889 20.0557Z" fill="#00B2FF" fill-opacity="0.25"/>
<path d="M6.52211 20.0557C6.52211 18.9818 7.39267 18.1112 8.46657 18.1112C9.54046 18.1112 10.411 18.9818 10.411 20.0557C10.411 21.1296 9.54046 22.0001 8.46657 22.0001C7.39267 22.0001 6.52211 21.1296 6.52211 20.0557Z" fill="#00B2FF" fill-opacity="0.25"/>
<path d="M13.4055 20.056C13.4055 18.9821 14.2761 18.1116 15.3499 18.1116C16.4238 18.1116 17.2944 18.9821 17.2944 20.056C17.2944 21.1299 16.4238 22.0005 15.3499 22.0005C14.2761 22.0005 13.4055 21.1299 13.4055 20.056Z" fill="#00B2FF" fill-opacity="0.25"/>
<path d="M15.3499 11.8889C16.4238 11.8889 17.2944 11.0184 17.2944 9.94447C17.2944 8.87057 16.4238 8.00001 15.3499 8.00001C14.2761 8.00001 13.4055 8.87057 13.4055 9.94447C13.4055 11.0184 14.2761 11.8889 15.3499 11.8889ZM15.3499 11.8889L15.3499 15.0001M15.3499 15.0001L19.7444 15.0001C20.6156 15.0001 21.0512 15.0001 21.384 15.1696C21.6767 15.3188 21.9147 15.5567 22.0638 15.8494C22.2333 16.1822 22.2333 16.6178 22.2333 17.489V18.1112M15.3499 15.0001L10.9555 15.0001C10.0843 15.0001 9.64867 15.0001 9.31592 15.1696C9.02322 15.3188 8.78525 15.5567 8.63611 15.8494C8.46657 16.1822 8.46657 16.6178 8.46657 17.489V18.1112M15.3499 15.0001V17.489V18.1116M22.2333 18.1112C21.1594 18.1112 20.2889 18.9818 20.2889 20.0557C20.2889 21.1296 21.1594 22.0001 22.2333 22.0001C23.3072 22.0001 24.1778 21.1296 24.1778 20.0557C24.1778 18.9818 23.3072 18.1112 22.2333 18.1112ZM8.46657 18.1112C7.39267 18.1112 6.52211 18.9818 6.52211 20.0557C6.52211 21.1296 7.39267 22.0001 8.46657 22.0001C9.54046 22.0001 10.411 21.1296 10.411 20.0557C10.411 18.9818 9.54046 18.1112 8.46657 18.1112ZM15.3499 18.1116C14.2761 18.1116 13.4055 18.9821 13.4055 20.056C13.4055 21.1299 14.2761 22.0005 15.3499 22.0005C16.4238 22.0005 17.2944 21.1299 17.2944 20.056C17.2944 18.9821 16.4238 18.1116 15.3499 18.1116Z" stroke="#00B2FF" strokeLinecap="round" strokeLinejoin="round"/>
<mask id="path-4-inside-1_741_542" fill="white">
<path d="M31 0H130C131.105 0 132 0.89543 132 2V29C132 30.1046 131.105 31 130 31H31V0Z"/>
</mask>
<path d="M31 0H130C131.105 0 132 0.89543 132 2V29C132 30.1046 131.105 31 130 31H31V0Z" fill="#00B2FF"/>
<path d="M31 -1.25H130C131.795 -1.25 133.25 0.205075 133.25 2H130.75C130.75 1.58579 130.414 1.25 130 1.25H31V-1.25ZM133.25 29C133.25 30.7949 131.795 32.25 130 32.25H31V29.75H130C130.414 29.75 130.75 29.4142 130.75 29H133.25ZM31 31V0V31ZM130 -1.25C131.795 -1.25 133.25 0.205075 133.25 2V29C133.25 30.7949 131.795 32.25 130 32.25V29.75C130.414 29.75 130.75 29.4142 130.75 29V2C130.75 1.58579 130.414 1.25 130 1.25V-1.25Z" fill="#00B2FF" mask="url(#path-4-inside-1_741_542)"/>
<path d="M50.29 15.673C51.291 16.1 51.837 16.989 51.837 18.06C51.837 19.838 50.738 21 48.82 21H44.48V10.92H48.442C50.367 10.92 51.361 12.257 51.361 13.629C51.361 14.553 50.955 15.288 50.29 15.673ZM45.964 12.299V15.036H48.421C49.233 15.036 49.863 14.525 49.863 13.643C49.863 12.859 49.296 12.299 48.421 12.299H45.964ZM48.596 19.607C49.597 19.607 50.339 19.012 50.339 18.032C50.339 17.115 49.695 16.415 48.687 16.415H45.964V19.607H48.596ZM60.937 21H59.264L57.507 17.381H54.833V21H53.37V10.92H57.444C57.64 10.92 57.955 10.934 58.221 10.976C59.908 11.235 60.748 12.516 60.748 14.147C60.748 15.491 60.174 16.597 59.033 17.094L60.937 21ZM54.833 12.299V15.995H57.388C57.57 15.995 57.815 15.981 58.025 15.932C58.921 15.715 59.257 14.889 59.257 14.147C59.257 13.405 58.921 12.579 58.025 12.369C57.815 12.313 57.57 12.299 57.388 12.299H54.833ZM69.0555 21L68.3065 18.725H64.1695L63.4345 21H61.9155L65.1915 10.92H67.2985L70.5745 21H69.0555ZM64.6175 17.353H67.8585L66.2275 12.39L64.6175 17.353ZM71.9703 21V10.92H73.4543L78.4173 18.41V10.92H79.9013V21H78.4173L73.4543 13.503V21H71.9703ZM86.2021 21.21C83.1781 21.21 81.4351 19.075 81.4351 15.96C81.4351 12.845 83.1781 10.71 86.2021 10.71C88.5261 10.71 90.0871 11.977 90.6821 13.965L89.1981 14.364C88.7991 12.957 87.7981 12.103 86.2021 12.103C84.0601 12.103 82.9891 13.65 82.9821 15.96C82.9681 18.27 84.0601 19.817 86.2021 19.817C87.7981 19.817 88.7991 18.963 89.1981 17.556L90.6821 17.955C90.0871 19.943 88.5261 21.21 86.2021 21.21ZM92.3616 21V10.92H93.8246V15.267H98.8646V10.92H100.335V21H98.8646V16.646H93.8246V21H92.3616ZM102.441 21V10.92H108.881V12.299H103.904V15.127H108.041V16.506H103.904V19.621H108.881V21H102.441ZM114.165 21.21C111.988 21.21 110.371 20.027 110.042 18.109L111.568 17.878C111.876 19.117 112.94 19.831 114.249 19.831C115.46 19.831 116.503 19.229 116.503 18.221C116.503 17.493 115.978 17.122 115.236 16.898L112.653 16.135C111.645 15.841 110.434 15.239 110.434 13.608C110.434 11.739 112.016 10.71 114.046 10.717C116.09 10.738 117.546 11.816 117.959 13.671L116.391 13.937C116.174 12.796 115.18 12.117 114.025 12.103C112.898 12.082 111.981 12.677 111.981 13.538C111.981 14.378 112.835 14.679 113.549 14.875L115.411 15.4C116.342 15.659 118.029 16.156 118.029 18.123C118.029 20.153 116.244 21.21 114.165 21.21Z" fill="white"/>
</svg>
