<svg width="265" height="63" viewBox="0 0 265 63" fill="none" xmlns="http://www.w3.org/2000/svg">
<mask id="path-1-inside-1_1048_93" fill="white">
<path d="M62.9417 0H260.811C263.062 0 264.887 1.8247 264.887 4.07559V58.866C264.887 61.1168 263.062 62.9415 260.811 62.9415H62.9417V0Z"/>
</mask>
<path d="M62.9417 0H260.811C263.062 0 264.887 1.8247 264.887 4.07559V58.866C264.887 61.1168 263.062 62.9415 260.811 62.9415H62.9417V0Z" fill="#C80F2E"/>
<path d="M62.9417 -2.54724H260.811C264.469 -2.54724 267.434 0.4179 267.434 4.07559L262.339 4.07559C262.339 3.23151 261.655 2.54724 260.811 2.54724H62.9417V-2.54724ZM267.434 58.866C267.434 62.5236 264.469 65.4888 260.811 65.4888H62.9417V60.3943H260.811C261.655 60.3943 262.339 59.71 262.339 58.866H267.434ZM62.9417 62.9415V0V62.9415ZM260.811 -2.54724C264.469 -2.54724 267.434 0.4179 267.434 4.07559V58.866C267.434 62.5236 264.469 65.4888 260.811 65.4888V60.3943C261.655 60.3943 262.339 59.71 262.339 58.866V4.07559C262.339 3.23151 261.655 2.54724 260.811 2.54724V-2.54724Z" fill="#C80F2E" mask="url(#path-1-inside-1_1048_93)"/>
<path d="M101.994 30.8168C103.996 31.6708 105.088 33.4488 105.088 35.5908C105.088 39.1468 102.89 41.4708 99.0541 41.4708H90.3741V21.3108H98.2981C102.148 21.3108 104.136 23.9848 104.136 26.7288C104.136 28.5768 103.324 30.0468 101.994 30.8168ZM93.3421 24.0688V29.5428H98.2561C99.8801 29.5428 101.14 28.5208 101.14 26.7568C101.14 25.1888 100.006 24.0688 98.2561 24.0688H93.3421ZM98.6061 38.6848C100.608 38.6848 102.092 37.4948 102.092 35.5348C102.092 33.7008 100.804 32.3008 98.7881 32.3008H93.3421V38.6848H98.6061ZM123.288 41.4708H119.942L116.428 34.2328H111.08V41.4708H108.154V21.3108H116.302C116.694 21.3108 117.324 21.3388 117.856 21.4228C121.23 21.9408 122.91 24.5028 122.91 27.7648C122.91 30.4528 121.762 32.6648 119.48 33.6588L123.288 41.4708ZM111.08 24.0688V31.4608H116.19C116.554 31.4608 117.044 31.4328 117.464 31.3348C119.256 30.9008 119.928 29.2488 119.928 27.7648C119.928 26.2808 119.256 24.6288 117.464 24.2088C117.044 24.0968 116.554 24.0688 116.19 24.0688H111.08ZM139.525 41.4708L138.027 36.9208H129.753L128.283 41.4708H125.245L131.797 21.3108H136.011L142.563 41.4708H139.525ZM130.649 34.1768H137.131L133.869 24.2508L130.649 34.1768ZM145.355 41.4708V21.3108H148.323L158.249 36.2908V21.3108H161.217V41.4708H158.249L148.323 26.4768V41.4708H145.355ZM173.818 41.8908C167.77 41.8908 164.284 37.6208 164.284 31.3908C164.284 25.1608 167.77 20.8908 173.818 20.8908C178.466 20.8908 181.588 23.4248 182.778 27.4008L179.81 28.1988C179.012 25.3848 177.01 23.6768 173.818 23.6768C169.534 23.6768 167.392 26.7708 167.378 31.3908C167.35 36.0108 169.534 39.1048 173.818 39.1048C177.01 39.1048 179.012 37.3968 179.81 34.5828L182.778 35.3808C181.588 39.3568 178.466 41.8908 173.818 41.8908ZM186.137 41.4708V21.3108H189.063V30.0048H199.143V21.3108H202.083V41.4708H199.143V32.7628H189.063V41.4708H186.137ZM206.296 41.4708V21.3108H219.176V24.0688H209.222V29.7248H217.496V32.4828H209.222V38.7128H219.176V41.4708H206.296ZM229.744 41.8908C225.39 41.8908 222.156 39.5248 221.498 35.6888L224.55 35.2268C225.166 37.7048 227.294 39.1328 229.912 39.1328C232.334 39.1328 234.42 37.9288 234.42 35.9128C234.42 34.4568 233.37 33.7148 231.886 33.2668L226.72 31.7408C224.704 31.1528 222.282 29.9488 222.282 26.6868C222.282 22.9488 225.446 20.8908 229.506 20.9048C233.594 20.9468 236.506 23.1028 237.332 26.8128L234.196 27.3448C233.762 25.0628 231.774 23.7048 229.464 23.6768C227.21 23.6348 225.376 24.8248 225.376 26.5468C225.376 28.2268 227.084 28.8288 228.512 29.2208L232.236 30.2708C234.098 30.7888 237.472 31.7828 237.472 35.7168C237.472 39.7768 233.902 41.8908 229.744 41.8908Z" fill="white"/>
<path d="M1.52835 4.07559C1.52835 2.66879 2.66879 1.52835 4.07559 1.52835H61.4132V61.4132H4.07559C2.66879 61.4132 1.52835 60.2728 1.52835 58.866V4.07559Z" stroke="#C80F2E" stroke-width="3.05669"/>
<path d="M26.3835 19.4444C26.3835 16.9898 28.3733 15 30.8279 15C33.2825 15 35.2723 16.9898 35.2723 19.4444C35.2723 21.899 33.2825 23.8888 30.8279 23.8888C28.3733 23.8888 26.3835 21.899 26.3835 19.4444Z" fill="#E6919F"/>
<path d="M42.1167 42.5553C42.1167 40.1007 44.1065 38.1109 46.5611 38.1109C49.0156 38.1109 51.0055 40.1007 51.0055 42.5553C51.0055 45.0098 49.0156 46.9997 46.5611 46.9997C44.1065 46.9997 42.1167 45.0098 42.1167 42.5553Z" fill="#C80F2E" fill-opacity="0.25"/>
<path d="M10.6504 42.5553C10.6504 40.1007 12.6402 38.1109 15.0948 38.1109C17.5493 38.1109 19.5392 40.1007 19.5392 42.5553C19.5392 45.0098 17.5493 46.9997 15.0948 46.9997C12.6402 46.9997 10.6504 45.0098 10.6504 42.5553Z" fill="#C80F2E" fill-opacity="0.25"/>
<path d="M26.3835 42.5561C26.3835 40.1015 28.3733 38.1117 30.8279 38.1117C33.2825 38.1117 35.2723 40.1015 35.2723 42.5561C35.2723 45.0107 33.2825 47.0005 30.8279 47.0005C28.3733 47.0005 26.3835 45.0107 26.3835 42.5561Z" fill="#C80F2E" fill-opacity="0.25"/>
<path d="M30.8279 23.8888C33.2825 23.8888 35.2723 21.899 35.2723 19.4444C35.2723 16.9898 33.2825 15 30.8279 15C28.3733 15 26.3835 16.9898 26.3835 19.4444C26.3835 21.899 28.3733 23.8888 30.8279 23.8888ZM30.8279 23.8888V30.9998M30.8279 30.9998L40.8722 30.9998C42.8635 30.9998 43.8592 30.9998 44.6197 31.3874C45.2887 31.7282 45.8327 32.2722 46.1735 32.9412C46.5611 33.7018 46.5611 34.6974 46.5611 36.6887V38.1109M30.8279 30.9998L20.7836 30.9998C18.7923 30.9998 17.7967 30.9998 17.0361 31.3874C16.3671 31.7282 15.8232 32.2722 15.4823 32.9412C15.0948 33.7018 15.0948 34.6974 15.0948 36.6887V38.1109M30.8279 30.9998L30.8279 36.6887V38.1117M46.5611 38.1109C44.1065 38.1109 42.1167 40.1007 42.1167 42.5553C42.1167 45.0098 44.1065 46.9997 46.5611 46.9997C49.0156 46.9997 51.0055 45.0098 51.0055 42.5553C51.0055 40.1007 49.0156 38.1109 46.5611 38.1109ZM15.0948 38.1109C12.6402 38.1109 10.6504 40.1007 10.6504 42.5553C10.6504 45.0098 12.6402 46.9997 15.0948 46.9997C17.5493 46.9997 19.5392 45.0098 19.5392 42.5553C19.5392 40.1007 17.5493 38.1109 15.0948 38.1109ZM30.8279 38.1117C28.3733 38.1117 26.3835 40.1015 26.3835 42.5561C26.3835 45.0107 28.3733 47.0005 30.8279 47.0005C33.2825 47.0005 35.2723 45.0107 35.2723 42.5561C35.2723 40.1015 33.2825 38.1117 30.8279 38.1117Z" stroke="#C80F2E" stroke-width="2.28567" stroke-linecap="round" stroke-linejoin="round"/>
<path d="M10.6508 42.5552C10.6508 40.1007 12.6406 38.1108 15.0952 38.1108C17.5497 38.1108 19.5396 40.1007 19.5396 42.5552C19.5396 45.0098 17.5497 46.9996 15.0952 46.9996C12.6406 46.9996 10.6508 45.0098 10.6508 42.5552Z" fill="#8ADCFF" stroke="#00B2FF" stroke-width="2.28567" stroke-linecap="round" stroke-linejoin="round"/>
<path d="M26.3835 42.5552C26.3835 40.1007 28.3733 38.1108 30.8279 38.1108C33.2825 38.1108 35.2723 40.1007 35.2723 42.5552C35.2723 45.0098 33.2825 46.9996 30.8279 46.9996C28.3733 46.9996 26.3835 45.0098 26.3835 42.5552Z" fill="#92E8B9" stroke="#13CE67" stroke-width="2.28567" stroke-linecap="round" stroke-linejoin="round"/>
<path d="M42.1162 42.5552C42.1162 40.1007 44.106 38.1108 46.5606 38.1108C49.0152 38.1108 51.005 40.1007 51.005 42.5552C51.005 45.0098 49.0152 46.9996 46.5606 46.9996C44.106 46.9996 42.1162 45.0098 42.1162 42.5552Z" fill="#C0B0FB" stroke="#7554F6" stroke-width="2.28567" stroke-linecap="round" stroke-linejoin="round"/>
</svg>
