<svg width="39" height="39" viewBox="0 0 39 39" fill="none" xmlns="http://www.w3.org/2000/svg">
<rect x="0.194458" y="0.65979" width="38.1613" height="38.1613" rx="6.10581" fill="url(#paint0_linear_751_1905)"/>
<path d="M25.9534 12.0127V22.3162C25.9534 22.3162 25.1186 23.1749 22.6143 23.1749C20.1099 23.1749 18.4404 21.4577 15.936 21.4577C13.4317 21.4577 12.5969 22.3163 12.5969 22.3163V12.0127C12.5969 12.0127 13.4317 11.1541 15.936 11.1541C18.4404 11.1541 20.1099 12.8713 22.6143 12.8713C25.1186 12.8713 25.9534 12.0127 25.9534 12.0127Z" fill="white" fill-opacity="0.46"/>
<path d="M12.5969 28.3267V12.0127C12.5969 12.0127 13.4317 11.1541 15.936 11.1541C18.4404 11.1541 20.1099 12.8713 22.6143 12.8713C25.1186 12.8713 25.9534 12.0127 25.9534 12.0127V22.3162C25.9534 22.3162 25.1186 23.1749 22.6143 23.1749C20.1099 23.1749 18.4404 21.4577 15.936 21.4577C13.4317 21.4577 12.5969 22.3163 12.5969 22.3163" stroke="white" strokeWidth="1.59005" strokeLinecap="round" strokeLinejoin="round"/>
<defs>
<linearGradient id="paint0_linear_751_1905" x1="0.194458" y1="2.83639" x2="38.3558" y2="36.6445" gradientUnits="userSpaceOnUse">
<stop stop-color="#00B2FF"/>
<stop offset="1" stop-color="#00A5EC"/>
</linearGradient>
</defs>
</svg>
