<svg width="39" height="40" viewBox="0 0 39 40" fill="none" xmlns="http://www.w3.org/2000/svg">
<rect x="0.194458" y="0.864014" width="38.1613" height="38.1613" rx="6.10581" fill="url(#paint0_linear_751_1919)"/>
<path d="M24.2945 20.3271C26.3139 19.2412 27.3236 18.6982 27.579 18.0446C27.8007 17.4775 27.7384 16.8386 27.4112 16.325C27.0342 15.7331 25.9386 15.3956 23.7474 14.7206L15.4653 12.1694C13.6165 11.5999 12.692 11.3152 12.0807 11.546C11.5486 11.747 11.1338 12.1749 10.9496 12.713C10.738 13.3313 11.0515 14.2463 11.6784 16.0765L14.4558 24.1833C15.227 26.4345 15.6126 27.5601 16.2276 27.9179C16.761 28.2282 17.4116 28.2613 17.9737 28.0069C18.622 27.7136 19.1201 26.633 20.1164 24.472L20.8524 22.8753C21.011 22.5313 21.0903 22.3593 21.1988 22.2091C21.2951 22.0758 21.4082 21.9555 21.5353 21.8513C21.6786 21.7337 21.8454 21.644 22.179 21.4646L24.2945 20.3271Z" fill="white" fill-opacity="0.46" stroke="white" strokeWidth="1.59005" strokeLinecap="round" strokeLinejoin="round"/>
<defs>
<linearGradient id="paint0_linear_751_1919" x1="0.194458" y1="3.04061" x2="38.3558" y2="36.8487" gradientUnits="userSpaceOnUse">
<stop stop-color="#00B2FF"/>
<stop offset="1" stop-color="#00A5EC"/>
</linearGradient>
</defs>
</svg>
