<svg width="39" height="40" viewBox="0 0 39 40" fill="none" xmlns="http://www.w3.org/2000/svg">
<rect x="0.101562" y="0.867188" width="38.1613" height="38.1613" rx="6.10581" fill="url(#paint0_linear_751_2171)"/>
<path d="M14.603 11.3616H23.7617C24.8303 11.3616 25.3646 11.3616 25.7728 11.5695C26.1318 11.7525 26.4237 12.0444 26.6066 12.4034C26.8146 12.8116 26.8146 13.3459 26.8146 14.4145V24.718H25.8605V28.5342H13.4581C12.4043 28.5342 11.55 27.6799 11.55 26.6261V14.4145C11.55 13.3459 11.55 12.8116 11.758 12.4034C11.9409 12.0444 12.2328 11.7525 12.5919 11.5695C13 11.3616 13.5343 11.3616 14.603 11.3616Z" fill="white" fill-opacity="0.46"/>
<path d="M11.55 26.6261V14.4145C11.55 13.3459 11.55 12.8116 11.758 12.4034C11.9409 12.0444 12.2328 11.7525 12.5919 11.5695C13 11.3616 13.5343 11.3616 14.603 11.3616H23.7617C24.8303 11.3616 25.3646 11.3616 25.7728 11.5695C26.1318 11.7525 26.4237 12.0444 26.6066 12.4034C26.8146 12.8116 26.8146 13.3459 26.8146 14.4145V24.718H13.4581C12.4043 24.718 11.55 25.5723 11.55 26.6261ZM11.55 26.6261C11.55 27.6799 12.4043 28.5342 13.4581 28.5342H26.8146M16.3202 15.1777H22.0444M16.3202 18.9938H22.0444M25.8605 24.718V28.5342" stroke="white" strokeWidth="1.59005" strokeLinecap="round" strokeLinejoin="round"/>
<defs>
<linearGradient id="paint0_linear_751_2171" x1="0.101562" y1="3.04378" x2="38.2629" y2="36.8519" gradientUnits="userSpaceOnUse">
<stop stop-color="#0BC756"/>
<stop offset="1" stop-color="#0BBD52"/>
</linearGradient>
</defs>
</svg>
