<svg width="39" height="39" viewBox="0 0 39 39" fill="none" xmlns="http://www.w3.org/2000/svg">
<rect x="0.101562" y="0.265015" width="38.1613" height="38.1613" rx="6.10581" fill="url(#paint0_linear_751_2166)"/>
<path d="M11.55 13.8122C11.55 12.7436 11.55 12.2093 11.758 11.8011C11.9409 11.4421 12.2328 11.1502 12.5919 10.9672C13 10.7593 13.5343 10.7593 14.603 10.7593H23.7617C24.8303 10.7593 25.3646 10.7593 25.7728 10.9672C26.1318 11.1502 26.4237 11.4421 26.6066 11.8011C26.8146 12.2093 26.8146 12.7436 26.8146 13.8122V24.879C26.8146 25.9476 26.8146 26.4819 26.6066 26.89C26.4237 27.2491 26.1318 27.541 25.7728 27.7239C25.3646 27.9319 24.8303 27.9319 23.7617 27.9319H14.603C13.5343 27.9319 13 27.9319 12.5919 27.7239C12.2328 27.541 11.9409 27.2491 11.758 26.89C11.55 26.4819 11.55 25.9476 11.55 24.879V13.8122Z" fill="white" fill-opacity="0.46"/>
<path d="M15.3662 14.5754H19.1823M22.0444 22.2077H22.9984M15.3662 18.3915H22.9984M15.3662 23.1617L16.3202 24.1157L18.2283 22.2077M14.603 27.9319H23.7617C24.8303 27.9319 25.3646 27.9319 25.7728 27.7239C26.1318 27.541 26.4237 27.2491 26.6066 26.89C26.8146 26.4819 26.8146 25.9476 26.8146 24.879V13.8122C26.8146 12.7436 26.8146 12.2093 26.6066 11.8011C26.4237 11.4421 26.1318 11.1502 25.7728 10.9672C25.3646 10.7593 24.8303 10.7593 23.7617 10.7593H14.603C13.5343 10.7593 13 10.7593 12.5919 10.9672C12.2328 11.1502 11.9409 11.4421 11.758 11.8011C11.55 12.2093 11.55 12.7436 11.55 13.8122V24.879C11.55 25.9476 11.55 26.4819 11.758 26.89C11.9409 27.2491 12.2328 27.541 12.5919 27.7239C13 27.9319 13.5343 27.9319 14.603 27.9319Z" stroke="white" strokeWidth="1.59005" strokeLinecap="round" strokeLinejoin="round"/>
<defs>
<linearGradient id="paint0_linear_751_2166" x1="0.101562" y1="2.44161" x2="38.2629" y2="36.2497" gradientUnits="userSpaceOnUse">
<stop stop-color="#0BC756"/>
<stop offset="1" stop-color="#0BBD52"/>
</linearGradient>
</defs>
</svg>
