<svg width="39" height="39" viewBox="0 0 39 39" fill="none" xmlns="http://www.w3.org/2000/svg">
<rect x="0.497559" y="0.261841" width="38.1613" height="38.1613" rx="6.10581" fill="url(#paint0_linear_751_2196)"/>
<path d="M10.9919 13.809C10.9919 12.7404 10.9919 12.2061 11.1999 11.7979C11.3828 11.4389 11.6747 11.147 12.0338 10.9641C12.4419 10.7561 12.9762 10.7561 14.0448 10.7561H25.1116C26.1802 10.7561 26.7146 10.7561 27.1227 10.9641C27.4817 11.147 27.7736 11.4389 27.9566 11.7979C28.1645 12.2061 28.1645 12.7404 28.1645 13.809V21.0597C28.1645 22.1283 28.1645 22.6626 27.9566 23.0707C27.7736 23.4298 27.4817 23.7217 27.1227 23.9046C26.7146 24.1126 26.1802 24.1126 25.1116 24.1126H14.0448C12.9762 24.1126 12.4419 24.1126 12.0338 23.9046C11.6747 23.7217 11.3828 23.4298 11.1999 23.0707C10.9919 22.6626 10.9919 22.1283 10.9919 21.0597V13.809Z" fill="white" fill-opacity="0.46"/>
<path d="M19.5782 24.1126V27.9287M15.7621 27.9287H23.3944M14.0448 24.1126H25.1116C26.1802 24.1126 26.7146 24.1126 27.1227 23.9046C27.4817 23.7217 27.7736 23.4298 27.9566 23.0707C28.1645 22.6626 28.1645 22.1283 28.1645 21.0597V13.809C28.1645 12.7404 28.1645 12.2061 27.9566 11.7979C27.7736 11.4389 27.4817 11.147 27.1227 10.9641C26.7146 10.7561 26.1802 10.7561 25.1116 10.7561H14.0448C12.9762 10.7561 12.4419 10.7561 12.0338 10.9641C11.6747 11.147 11.3828 11.4389 11.1999 11.7979C10.9919 12.2061 10.9919 12.7404 10.9919 13.809V21.0597C10.9919 22.1283 10.9919 22.6626 11.1999 23.0707C11.3828 23.4298 11.6747 23.7217 12.0338 23.9046C12.4419 24.1126 12.9762 24.1126 14.0448 24.1126Z" stroke="white" strokeWidth="1.59005" strokeLinecap="round"/>
<defs>
<linearGradient id="paint0_linear_751_2196" x1="0.497558" y1="2.43844" x2="38.6589" y2="36.2466" gradientUnits="userSpaceOnUse">
<stop stop-color="#7554F6"/>
<stop offset="1" stop-color="#6E4EEA"/>
</linearGradient>
</defs>
</svg>
