<svg width="39" height="39" viewBox="0 0 39 39" fill="none" xmlns="http://www.w3.org/2000/svg">
<rect x="0.497559" y="0.659668" width="38.1613" height="38.1613" rx="6.10581" fill="url(#paint0_linear_751_2191)"/>
<path d="M17.908 10.9401C18.2671 10.5399 17.968 9.77538 17.4616 9.9563C14.7633 10.9203 12.8111 13.6757 12.8111 16.9185C12.8111 19.4924 13.8176 21.6737 15.3592 23.0939C15.3695 23.1034 15.3629 23.124 15.3489 23.124C13.2162 23.124 11.7288 22.2638 10.7781 21.4108C10.3779 21.0517 9.6134 21.3508 9.79431 21.8572C10.7583 24.5555 13.5137 26.5077 16.7565 26.5077C19.3304 26.5077 21.5117 25.5012 22.9319 23.9596C22.9414 23.9492 22.962 23.9558 22.962 23.9699C22.962 26.1026 22.1018 27.59 21.2488 28.5407C20.8897 28.9409 21.1888 29.7054 21.6952 29.5245C24.3935 28.5605 26.3457 25.8051 26.3457 22.5623C26.3457 19.9884 25.3392 17.8071 23.7976 16.3869C23.7873 16.3774 23.7939 16.3568 23.8079 16.3568C25.9406 16.3568 27.428 17.217 28.3787 18.07C28.7789 18.4291 29.5434 18.1299 29.3625 17.6236C28.3985 14.9253 25.6431 12.9731 22.4003 12.9731C19.8264 12.9731 17.6451 13.9796 16.2249 15.5212C16.2154 15.5315 16.1948 15.5249 16.1948 15.5108C16.1948 13.3782 17.055 11.8908 17.908 10.9401Z" fill="white" fill-opacity="0.46" stroke="white" strokeWidth="1.27204"/>
<defs>
<linearGradient id="paint0_linear_751_2191" x1="0.497558" y1="2.83626" x2="38.6589" y2="36.6444" gradientUnits="userSpaceOnUse">
<stop stop-color="#7554F6"/>
<stop offset="1" stop-color="#6E4EEA"/>
</linearGradient>
</defs>
</svg>
