<svg width="39" height="40" viewBox="0 0 39 40" fill="none" xmlns="http://www.w3.org/2000/svg">
<rect x="0.497559" y="0.864014" width="38.1613" height="38.1613" rx="6.10581" fill="url(#paint0_linear_751_2201)"/>
<path d="M28.8455 27.4656C28.7303 28.8468 27.6413 29.8631 26.2577 29.9443C24.7374 30.0335 22.4266 30.1211 19.2148 30.1211C16.0029 30.1211 13.6921 30.0335 12.1718 29.9443C10.7882 29.8631 9.69918 28.8468 9.58408 27.4656C9.48669 26.2971 9.40186 24.6569 9.40186 22.4888C9.40186 20.3208 9.48669 18.6806 9.58407 17.5121C9.69918 16.1309 10.7882 15.1145 12.1718 15.0334C13.6921 14.9442 16.0029 14.8566 19.2148 14.8566C22.4266 14.8566 24.7374 14.9442 26.2577 15.0334C27.6413 15.1145 28.7303 16.1309 28.8455 17.5121C28.9429 18.6806 29.0277 20.3208 29.0277 22.4888C29.0277 24.6569 28.9429 26.2971 28.8455 27.4656Z" fill="white" fill-opacity="0.46"/>
<path d="M28.8455 27.4656L29.4793 27.5184L29.4793 27.5184L28.8455 27.4656ZM26.2577 29.9443L26.295 30.5792H26.295L26.2577 29.9443ZM12.1718 29.9443L12.1346 30.5792H12.1346L12.1718 29.9443ZM9.58408 27.4656L10.2179 27.4127L10.2179 27.4127L9.58408 27.4656ZM9.58407 17.5121L8.95025 17.4593L8.95025 17.4593L9.58407 17.5121ZM12.1718 15.0334L12.1346 14.3984L12.1346 14.3984L12.1718 15.0334ZM26.2577 15.0334L26.295 14.3984L26.295 14.3984L26.2577 15.0334ZM28.8455 17.5121L29.4793 17.4593L29.4793 17.4593L28.8455 17.5121ZM28.2117 27.4127C28.124 28.464 27.3028 29.2459 26.2205 29.3094L26.295 30.5792C27.9799 30.4804 29.3367 29.2296 29.4793 27.5184L28.2117 27.4127ZM26.2205 29.3094C24.7134 29.3978 22.4151 29.4851 19.2148 29.4851V30.7571C22.4382 30.7571 24.7614 30.6692 26.295 30.5792L26.2205 29.3094ZM19.2148 29.4851C16.0144 29.4851 13.7161 29.3978 12.2091 29.3094L12.1346 30.5792C13.6681 30.6692 15.9914 30.7571 19.2148 30.7571V29.4851ZM12.2091 29.3094C11.1267 29.2459 10.3055 28.464 10.2179 27.4127L8.95025 27.5184C9.09285 29.2296 10.4497 30.4804 12.1346 30.5792L12.2091 29.3094ZM10.2179 27.4127C10.1221 26.2628 10.0379 24.6403 10.0379 22.4888H8.76583C8.76583 24.6735 8.85132 26.3313 8.95025 27.5184L10.2179 27.4127ZM10.0379 22.4888C10.0379 20.3373 10.1221 18.7148 10.2179 17.5649L8.95025 17.4593C8.85132 18.6464 8.76583 20.3042 8.76583 22.4888H10.0379ZM10.2179 17.5649C10.3055 16.5137 11.1267 15.7318 12.2091 15.6683L12.1346 14.3984C10.4497 14.4973 9.09285 15.7482 8.95025 17.4593L10.2179 17.5649ZM12.2091 15.6683C13.7161 15.5799 16.0144 15.4926 19.2148 15.4926V14.2205C15.9914 14.2205 13.6681 14.3085 12.1346 14.3984L12.2091 15.6683ZM19.2148 15.4926C22.4151 15.4926 24.7134 15.5799 26.2205 15.6683L26.295 14.3984C24.7614 14.3085 22.4382 14.2205 19.2148 14.2205V15.4926ZM26.2205 15.6683C27.3028 15.7318 28.124 16.5137 28.2117 17.5649L29.4793 17.4593C29.3367 15.7481 27.9799 14.4973 26.295 14.3984L26.2205 15.6683ZM28.2117 17.5649C28.3075 18.7148 28.3917 20.3373 28.3917 22.4888H29.6637C29.6637 20.3042 29.5782 18.6464 29.4793 17.4593L28.2117 17.5649ZM28.3917 22.4888C28.3917 24.6403 28.3075 26.2628 28.2117 27.4127L29.4793 27.5184C29.5782 26.3313 29.6637 24.6735 29.6637 22.4888H28.3917Z" fill="white"/>
<path d="M15.3989 19.7631V20.3082V19.7631Z" fill="white" fill-opacity="0.46"/>
<path d="M23.0312 19.7631V20.3082V19.7631Z" fill="white" fill-opacity="0.46"/>
<path d="M22.486 25.2147C22.486 25.2147 21.458 26.305 19.2151 26.305C16.9721 26.305 15.9441 25.2147 15.9441 25.2147" fill="white" fill-opacity="0.46"/>
<path d="M15.3989 19.7631V20.3082M23.0312 19.7631V20.3082M22.486 25.2147C22.486 25.2147 21.458 26.305 19.2151 26.305C16.9721 26.305 15.9441 25.2147 15.9441 25.2147" stroke="white" strokeWidth="1.63549" strokeLinecap="round" strokeLinejoin="round"/>
<path d="M21.3955 9.40489C21.3955 10.6092 20.4191 11.5855 19.2148 11.5855C18.0105 11.5855 17.0342 10.6092 17.0342 9.40489C17.0342 8.20055 18.0105 7.22424 19.2148 7.22424C20.4191 7.22424 21.3955 8.20055 21.3955 9.40489Z" fill="white"/>
<path d="M19.2148 11.5856V14.8565V11.5856Z" fill="white" fill-opacity="0.46"/>
<path d="M19.2148 11.5856V14.8565" stroke="white" strokeWidth="1.13481" strokeLinecap="round" strokeLinejoin="round"/>
<defs>
<linearGradient id="paint0_linear_751_2201" x1="0.497558" y1="3.04061" x2="38.6589" y2="36.8487" gradientUnits="userSpaceOnUse">
<stop stop-color="#7554F6"/>
<stop offset="1" stop-color="#6E4EEA"/>
</linearGradient>
</defs>
</svg>
