<svg
    width="22"
    height="25"
    viewBox="0 0 22 25"
    fill="none"
    xmlns="http://www.w3.org/2000/svg"
>
    <path
        fill-rule="evenodd"
        clip-rule="evenodd"
        d="M1.85515 1.03857H3.93258L7.71646 4.67407H8.08743V4.45149H13.5778V4.67407H13.8745L17.7326 1.03857H19.7359L20.6262 2.22568V5.5644L19.2165 8.53215V10.9064L18.6229 12.0935V14.8386L15.8036 18.9193V20.329L13.3552 22.258L12.5391 23.4451H9.12614L8.31001 22.258L5.86161 20.329V18.9193L3.04225 14.8386V12.0935L2.4487 10.9064V8.53215L1.03902 5.5644V2.22568L1.85515 1.03857ZM13.2068 15.1354V11.8709L15.21 10.5354L16.5455 11.5741V12.7612L13.2068 15.1354ZM6.45516 10.5354L5.11968 11.5741V12.7612L8.4584 15.1354V11.8709L6.45516 10.5354ZM10.4616 20.4032L8.97775 19.1419H12.6874L11.2036 20.4032V21.3677H10.4616V20.4032Z"
        fill="#C80F2E"
    />
    <path
        fill-rule="evenodd"
        clip-rule="evenodd"
        d="M1.33549 0L4.37743 0L7.93874 3.41291H13.7259L17.2872 0L20.3291 0L21.6646 1.85484V5.71292L20.2549 8.75487V11.1291L19.6614 12.3162V15.1355L16.842 19.2162V20.8485L14.0968 23.0001L13.1323 24.484H8.53229L7.56777 23.0001L4.8226 20.8485V19.2162L2.00323 15.1355V12.3162L1.40968 11.1291V8.75487L0 5.71292L0 1.85484L1.33549 0ZM1.85484 1.03871L1.03871 2.22581V5.56453L2.4484 8.53229V10.9065L3.04195 12.0936V14.8388L5.86131 18.9194V20.3291L8.3097 22.2581L9.12584 23.4452H12.5388L13.3549 22.2581L15.8033 20.3291V18.9194L18.6226 14.8388V12.0936L19.2162 10.9065V8.53229L20.6259 5.56453V2.22581L19.7355 1.03871H17.7323L13.8742 4.67421H13.5775V4.45163H8.08712V4.67421H7.71615L3.93227 1.03871H1.85484Z"
        fill="#F2F2F2"
    />
    <path
        d="M8.45884 11.8711L6.45561 10.5356L5.12012 11.5744V12.7615L8.45884 15.1357V11.8711Z"
        fill="white"
    />
    <path
        d="M16.5456 12.7615L13.2068 15.1357V11.8711L15.2101 10.5356L16.5456 11.5744V12.7615Z"
        fill="white"
    />
    <path
        d="M12.6874 19.1416H8.97774L10.4616 20.4029V21.3674H11.2036V20.4029L12.6874 19.1416Z"
        fill="white"
    />
</svg>