<svg width="355" height="11" viewBox="0 0 355 11" fill="none" xmlns="http://www.w3.org/2000/svg">
<path d="M159.262 10.9999V2.50192H156V0.919922H164.211V2.50192H160.949V10.9999H159.262Z" fill="#C80F2E"/>
<path d="M166.59 10.9999V0.919922H168.277V10.9999H166.59Z" fill="#C80F2E"/>
<path d="M171.494 10.9999V0.919922H178.004V2.50192H173.181V4.98692H177.164V6.56892H173.181V9.41792H178.004V10.9999H171.494Z" fill="#C80F2E"/>
<path d="M188.504 10.9999H186.593L184.885 7.47892H182.491V10.9999H180.804V0.919922H184.969C185.165 0.919922 185.515 0.933922 185.774 0.975922C187.524 1.24892 188.343 2.53692 188.343 4.20292C188.343 5.56092 187.79 6.66692 186.642 7.17792L188.504 10.9999ZM182.491 2.50192V5.90392H184.899C185.088 5.90392 185.34 5.88992 185.536 5.83392C186.376 5.62392 186.642 4.84692 186.642 4.20292C186.642 3.55892 186.376 2.78192 185.536 2.56492C185.34 2.51592 185.088 2.50192 184.899 2.50192H182.491Z" fill="#C80F2E"/>
<path d="M196.838 10.9999V2.76092V0.919922H198.56V10.9999H196.838Z" fill="#C80F2E"/>
<rect x="33" y="4" width="110" height="3" fill="#C80F2E"/>
<rect x="18" y="4" width="10" height="3" fill="#C80F2E"/>
<rect x="8" y="4" width="5" height="3" fill="#C80F2E"/>
<rect y="4" width="3" height="3" fill="#C80F2E"/>
<rect width="110" height="3" transform="matrix(-1 0 0 1 322 4)" fill="#C80F2E"/>
<rect width="10" height="3" transform="matrix(-1 0 0 1 337 4)" fill="#C80F2E"/>
<rect width="5" height="3" transform="matrix(-1 0 0 1 347 4)" fill="#C80F2E"/>
<rect width="3" height="3" transform="matrix(-1 0 0 1 355 4)" fill="#C80F2E"/>
</svg>
