<svg width="105" height="118" viewBox="0 0 105 118" fill="none" xmlns="http://www.w3.org/2000/svg">
<path fill-rule="evenodd" clip-rule="evenodd" d="M15.174 20.5631C14.4278 20.9788 12.7696 21.3944 10.4482 21.3944C3.89839 21.3944 0.16748 16.905 0.16748 11.1686C0.16748 4.35138 4.9762 0.693359 10.8627 0.693359C13.1842 0.693359 14.3449 1.10904 15.174 1.52473L14.4278 5.68157C13.5158 5.26589 12.6038 4.93334 11.0286 4.93334C8.20965 4.93334 5.22493 6.59608 5.22493 11.0855C5.22493 15.076 7.62929 17.2376 11.1115 17.2376C12.438 17.2376 13.4329 16.9882 14.5107 16.4894L15.174 20.5631ZM42.6998 11.8337C42.6998 10.7529 42.2023 8.84077 40.1296 8.84077C38.3056 8.84077 37.4765 10.4204 37.3936 11.8337H42.6998ZM37.3936 14.9929C37.5594 16.905 39.1347 17.9027 41.5391 17.9027C42.9485 17.9027 44.6896 17.487 45.7674 16.8219L46.4307 20.3137C44.7725 21.145 42.8656 21.4776 40.8758 21.4776C35.5696 21.4776 32.7507 18.3184 32.7507 13.4133C32.7507 8.6745 35.8184 5.68157 40.3783 5.68157C45.1042 5.68157 47.1769 9.17332 47.1769 13.4964C47.1769 13.9121 47.094 14.6604 47.094 15.076L37.3936 14.9929ZM52.3172 20.8125L47.4256 6.26353H52.3172L54.9703 16.5725H55.0532L57.7063 6.26353H62.598L57.7063 20.8125H52.3172ZM63.8416 11.0855C63.8416 8.92391 63.7587 7.51058 63.6758 6.26353H67.8212L67.987 9.00705H68.07C68.8161 6.84549 70.2256 6.01412 71.635 5.93098C72.2983 5.93098 72.7129 5.93098 73.1274 6.01412V10.2541C72.7129 10.171 71.8838 10.0878 71.3863 10.171C69.6452 10.3372 68.6503 11.5843 68.4016 12.9976C68.3187 13.3302 68.3187 13.6627 68.3187 13.9953V20.8125H63.9245L63.8416 11.0855ZM84.1543 13.5796C84.1543 11.1686 83.3252 9.17332 81.2525 9.17332C79.0968 9.17332 78.3507 11.2517 78.3507 13.5796C78.3507 15.9074 79.1798 17.9858 81.2525 17.9858C83.3252 17.9858 84.1543 15.9074 84.1543 13.5796ZM88.7143 13.5796C88.7143 18.3184 85.8125 21.4776 81.1696 21.4776C76.5267 21.4776 73.6249 18.3184 73.6249 13.5796C73.6249 8.84077 76.5267 5.68157 81.1696 5.68157C85.8125 5.68157 88.7143 8.75764 88.7143 13.5796ZM90.7041 10.9192C90.7041 9.09018 90.6212 7.51058 90.5383 6.26353H94.6837L94.7666 8.25881H94.8496C95.4299 7.34431 96.9223 5.76471 99.3266 5.76471C102.228 5.76471 104.135 7.75999 104.135 12.0831V20.8125H99.7412V12.7482C99.7412 10.9192 99.0779 9.589 97.5026 9.589C96.259 9.589 95.5128 10.4204 95.2641 11.2517C95.1812 11.5843 95.0983 12 95.0983 12.4157V20.8125H90.7041V10.9192ZM25.9522 5.84785C28.7711 5.84785 30.678 7.84313 30.678 12.2494V20.8956H26.2838V12.9145C26.2838 11.0023 25.6205 9.67214 23.9624 9.67214C22.3871 9.67214 21.6409 11.0023 21.6409 12.2494V20.8956H17.2467V2.3561L21.6409 0.859633V7.92627H21.7238C22.5529 6.59608 24.2111 5.84785 25.9522 5.84785Z" fill="#0269A7"/>
<path fill-rule="evenodd" clip-rule="evenodd" d="M0.250488 59.3878V24.7197L52.2344 42.0953L0.250488 59.3878Z" fill="#0269A7"/>
<path fill-rule="evenodd" clip-rule="evenodd" d="M0.333496 59.4709L52.2345 76.7634L104.218 59.4709V24.7197L52.2345 42.0953L0.333496 59.4709Z" fill="#0BA3D9"/>
<path fill-rule="evenodd" clip-rule="evenodd" d="M0.250488 99.7925V65.0413L52.2344 82.4169L0.250488 99.7925Z" fill="#81142E"/>
<path fill-rule="evenodd" clip-rule="evenodd" d="M104.218 65.0413L52.2343 82.4169L0.333252 99.7925L52.2343 117.168L104.218 99.7925V65.0413Z" fill="#D0223A"/>
</svg>
