<svg width="293" height="66" viewBox="0 0 293 66" fill="none" xmlns="http://www.w3.org/2000/svg">
<path fill-rule="evenodd" clip-rule="evenodd" d="M26.5267 50.7545C24.6966 51.5628 21.8499 52.1016 19.0709 52.1016C11.005 52.1016 6.66705 47.1848 6.66705 40.7189C6.66705 33.4448 11.7506 29.1342 19.2742 29.1342C22.2565 29.1342 24.8322 29.8077 26.5945 30.5486L27.9501 25.8339C26.5945 25.1603 23.4766 24.2174 19.0031 24.2174C7.81931 24.2174 0.227905 31.1548 0.227905 40.9883C0.227905 50.6198 7.07373 57.0857 18.1219 57.0857C22.5955 57.0857 26.0523 56.2101 27.6112 55.4692" fill="black"/>
<path fill-rule="evenodd" clip-rule="evenodd" d="M40.354 57.0858C46.9965 57.0858 53.3678 52.9099 53.3678 44.7602C53.3678 38.0249 48.3521 33.0408 40.8284 33.0408C33.0337 33.0408 27.7468 38.0249 27.7468 45.299C27.679 52.5058 33.3048 57.0858 40.354 57.0858ZM40.4218 52.7752C36.6938 52.7752 33.9148 49.677 33.9148 45.097C33.9148 41.1231 35.9483 37.3514 40.5573 37.3514C45.0308 37.3514 46.9965 41.3252 46.9965 44.9623C46.9965 50.0137 44.0819 52.7752 40.4218 52.7752Z" fill="black"/>
<path fill-rule="evenodd" clip-rule="evenodd" d="M55.4011 56.547H61.5013V43.2784C61.5013 42.6723 61.5691 41.9987 61.7725 41.5273C62.4503 39.7761 64.2126 37.9575 66.856 37.9575C70.3806 37.9575 71.804 40.5843 71.804 44.154V56.547H77.9042V43.3458C77.9042 35.4655 73.024 33.0408 68.9572 33.0408C64.687 33.0408 61.9758 35.5328 60.9591 37.284H60.8235L60.5524 33.5796H55.1978C55.3333 35.5328 55.4011 37.8228 55.4011 40.517" fill="black"/>
<path fill-rule="evenodd" clip-rule="evenodd" d="M92.5449 57.0858C99.1874 57.0858 105.559 52.9099 105.559 44.7602C105.559 38.0249 100.543 33.0408 93.0194 33.0408C85.1568 33.0408 79.9377 38.0249 79.9377 45.299C79.87 52.5058 85.428 57.0858 92.5449 57.0858ZM92.6127 52.7752C88.8848 52.7752 86.1058 49.677 86.1058 45.097C86.1058 41.1231 88.1392 37.3514 92.7483 37.3514C97.2218 37.3514 99.1874 41.3252 99.1874 44.9623C99.1874 50.0137 96.2728 52.7752 92.6127 52.7752Z" fill="black"/>
<path fill-rule="evenodd" clip-rule="evenodd" d="M126.774 51.2934C125.486 51.8322 123.859 52.3037 121.487 52.3037C117.217 52.3037 113.692 49.6769 113.692 44.9622C113.692 40.7863 116.607 37.6207 121.419 37.6207C123.792 37.6207 125.418 38.0922 126.503 38.631L127.655 34.1184C126.096 33.4449 123.656 32.9734 121.284 32.9734C112.54 32.9734 107.524 38.3616 107.524 45.2316C107.524 52.169 112.54 57.0184 120.335 57.0184C123.656 57.0184 126.367 56.3449 127.723 55.6714" fill="black"/>
<path fill-rule="evenodd" clip-rule="evenodd" d="M140.466 57.0858C147.108 57.0858 153.479 52.9099 153.479 44.7602C153.479 38.0249 148.464 33.0408 140.94 33.0408C133.077 33.0408 127.858 38.0249 127.858 45.299C127.791 52.5058 133.349 57.0858 140.466 57.0858ZM140.533 52.7752C136.805 52.7752 134.026 49.677 134.026 45.097C134.026 41.1231 136.06 37.3514 140.669 37.3514C145.142 37.3514 147.108 41.3252 147.108 44.9623C147.04 50.0137 144.193 52.7752 140.533 52.7752Z" fill="black"/>
<path fill-rule="evenodd" clip-rule="evenodd" d="M180.185 56.5469H186.285V43.0763C186.285 42.4027 186.353 41.8639 186.556 41.3251C187.234 39.6412 188.996 37.9574 191.64 37.9574C195.232 37.9574 196.656 40.5842 196.656 44.1539V56.5469H202.756V43.3457C202.756 35.4654 197.943 33.0406 193.877 33.0406C192.385 33.0406 190.826 33.4448 189.606 34.1183C188.319 34.7918 187.166 35.8021 186.421 36.9471H186.353V22.803H180.253" fill="black"/>
<path fill-rule="evenodd" clip-rule="evenodd" d="M212.381 33.5795H206.28V56.4795H212.381V33.5795ZM209.331 30.0771C211.567 30.0771 212.923 28.528 212.923 26.7095C212.923 24.8909 211.567 23.4092 209.331 23.4092C207.162 23.4092 205.738 24.8909 205.738 26.7095C205.806 28.528 207.162 30.0771 209.331 30.0771Z" fill="black"/>
<path d="M222.683 22.803H216.583V56.4795H222.683V22.803Z" fill="black"/>
<path d="M233.46 22.803H227.36V56.4795H233.46V22.803Z" fill="black"/>
<path fill-rule="evenodd" clip-rule="evenodd" d="M243.695 33.5795H237.595V56.4795H243.695V33.5795ZM240.645 30.0771C242.882 30.0771 244.237 28.528 244.237 26.7095C244.237 24.8909 242.882 23.4092 240.645 23.4092C238.476 23.4092 237.053 24.8909 237.053 26.7095C237.121 28.528 238.476 30.0771 240.645 30.0771Z" fill="black"/>
<mask id="mask0_777_67" style="mask-type:luminance" maskUnits="userSpaceOnUse" x="0" y="0" width="293" height="66">
<path d="M0.227905 65.909H292.158V0.711182H0.227905V65.909Z" fill="white"/>
</mask>
<g mask="url(#mask0_777_67)">
<path fill-rule="evenodd" clip-rule="evenodd" d="M248.372 65.9091H254.472V53.7855H254.54C255.896 55.8735 258.675 57.0858 261.86 57.0858C267.622 57.0858 273.383 52.9773 273.383 44.6255C273.383 37.3514 268.3 33.0408 262.809 33.0408C258.743 33.0408 255.76 34.6572 253.862 37.3514H253.795L253.523 33.5796H248.169C248.304 35.8022 248.372 38.3617 248.372 41.3252M254.472 43.8173C254.472 43.3458 254.608 42.8743 254.676 42.4029C255.354 39.5067 257.929 37.6881 260.708 37.6881C264.911 37.6881 267.215 41.0558 267.215 44.9623C267.215 49.6096 264.639 52.5058 260.505 52.5058C257.455 52.5058 255.15 50.4179 254.54 47.9932C254.472 47.5217 254.405 47.0502 254.405 46.5114V43.8173H254.472Z" fill="black"/>
</g>
<path fill-rule="evenodd" clip-rule="evenodd" d="M274.468 55.402C276.365 56.4123 279.077 57.0858 282.194 57.0858C288.837 57.0858 292.158 53.8528 292.158 49.8117C292.158 46.2419 290.125 44.154 285.516 42.8069C282.398 41.864 281.042 41.1905 281.042 39.6413C281.042 38.1596 282.262 37.2166 284.499 37.2166C286.804 37.2166 288.973 38.0922 289.921 38.631L291.142 34.4552C289.718 33.6469 287.21 32.9734 284.431 32.9734C278.67 32.9734 275.145 36.2063 275.145 40.2475C275.145 43.0763 277.179 45.6358 282.059 46.9828C285.109 47.8584 286.194 48.5993 286.194 50.2158C286.194 51.6975 285.041 52.7752 282.194 52.7752C279.89 52.7752 277.111 51.8322 275.688 50.9567" fill="black"/>
<path fill-rule="evenodd" clip-rule="evenodd" d="M155.581 56.4797H161.613V43.6153C162.494 43.8173 163.647 43.8847 164.934 43.8847C169.543 43.8847 173.339 42.7397 175.847 40.4497C177.745 38.7658 178.694 36.2064 178.694 33.2429C178.694 30.1446 177.338 27.6526 175.373 26.1708C173.271 24.487 170.018 23.4767 165.477 23.4767C161.003 23.4767 157.817 23.8134 155.581 24.1502M161.613 28.3261C162.291 28.1914 163.647 28.0567 165.544 28.0567C169.815 28.0567 172.661 29.7405 172.661 33.3776C172.661 37.1494 169.747 39.2373 165.002 39.2373C163.579 39.2373 162.494 39.17 161.613 38.9005V28.3261Z" fill="black"/>
<path d="M182.557 0.711182C174.288 3.54001 172.119 6.36884 167.713 9.93855C155.106 13.2389 144.058 7.91796 134.433 3.60736C138.974 6.84031 143.448 13.7777 145.346 23.6786C152.598 21.5233 161.41 15.6636 169.069 10.208C173.407 8.25473 178.151 5.4259 182.557 0.711182Z" fill="#FF151F"/>
</svg>
