<svg width="196" height="62" viewBox="0 0 196 62" fill="none" xmlns="http://www.w3.org/2000/svg">
<path d="M25.0349 22.5504V29.0643H40.7547C40.3374 32.6677 39.0854 35.4396 37.1378 37.2413C34.9119 39.4588 31.295 41.9534 25.0349 41.9534C15.436 41.9534 7.92386 34.1922 7.92386 24.6293C7.92386 15.0664 15.2969 7.30514 25.0349 7.30514C30.1821 7.30514 34.0773 9.38404 36.8595 12.0173L41.4503 7.44373C37.5551 3.70172 32.2688 0.79126 25.0349 0.79126C11.819 0.79126 0.689941 11.4629 0.689941 24.6293C0.689941 37.7956 11.819 48.4673 25.0349 48.4673C32.1297 48.4673 37.5551 46.1112 41.7285 41.8148C46.0411 37.5185 47.4322 31.4204 47.4322 26.5696C47.4322 25.0451 47.2931 23.6591 47.154 22.5504H25.0349Z" fill="#4285F4"/>
<path d="M66.9079 17.1453C58.4219 17.1453 51.3271 23.6591 51.3271 32.5291C51.3271 41.3991 58.2828 47.913 66.9079 47.913C75.533 47.913 82.4886 41.5377 82.4886 32.6677C82.4886 23.6591 75.533 17.1453 66.9079 17.1453ZM66.9079 41.9534C62.178 41.9534 58.1437 38.0728 58.1437 32.6677C58.1437 27.124 62.178 23.382 66.9079 23.382C71.6378 23.382 75.6721 27.124 75.6721 32.6677C75.6721 38.0728 71.6378 41.9534 66.9079 41.9534Z" fill="#EA4335"/>
<path d="M143.003 20.6101H142.725C141.195 18.8084 138.273 17.1453 134.517 17.1453C126.727 17.1453 120.05 23.7977 120.05 32.5291C120.05 41.1219 126.727 47.913 134.517 47.913C138.273 47.913 141.195 46.2498 142.725 44.4481H143.003V46.6656C143.003 52.4865 139.804 55.6742 134.796 55.6742C130.622 55.6742 128.118 52.7637 127.005 50.1304L121.162 52.6251C122.832 56.6443 127.423 61.7723 134.935 61.7723C142.864 61.7723 149.681 57.0601 149.681 45.6955V17.9768H143.282V20.6101H143.003ZM135.213 41.9534C130.483 41.9534 127.005 37.9342 127.005 32.6677C127.005 27.2626 130.622 23.382 135.213 23.382C139.804 23.382 143.421 27.4012 143.421 32.8063C143.56 38.0728 139.943 41.9534 135.213 41.9534Z" fill="#4285F4"/>
<path d="M101.548 17.1453C93.0616 17.1453 85.9668 23.6591 85.9668 32.5291C85.9668 41.3991 92.9225 47.913 101.548 47.913C110.173 47.913 117.128 41.5377 117.128 32.6677C117.128 23.6591 110.173 17.1453 101.548 17.1453ZM101.548 41.9534C96.8177 41.9534 92.7834 38.0728 92.7834 32.6677C92.7834 27.124 96.8177 23.382 101.548 23.382C106.277 23.382 110.312 27.124 110.312 32.6677C110.312 38.0728 106.277 41.9534 101.548 41.9534Z" fill="#FBBC05"/>
<path d="M154.828 1.48438H161.505V48.0517H154.828V1.48438Z" fill="#34A853"/>
<path d="M182.094 41.9534C178.616 41.9534 176.251 40.4289 174.582 37.2413L195.31 28.7871L194.615 26.9854C193.362 23.5206 189.328 17.1453 181.399 17.1453C173.469 17.1453 166.792 23.382 166.792 32.5291C166.792 41.1219 173.33 47.913 182.094 47.913C189.189 47.913 193.223 43.6166 195.032 41.1219L189.746 37.6571C187.937 40.2903 185.572 41.9534 182.094 41.9534ZM181.677 22.9662C184.459 22.9662 186.824 24.3521 187.52 26.2924L173.608 32.1133C173.469 25.738 178.199 22.9662 181.677 22.9662Z" fill="#EA4335"/>
</svg>
