<svg width="264" height="90" viewBox="0 0 264 90" fill="none" xmlns="http://www.w3.org/2000/svg">
<path d="M50.0385 89.6878C49.7064 89.1256 49.4346 88.5544 49.1261 88.0036C48.6788 87.2049 48.1899 86.4289 47.7606 85.621C47.7038 85.5141 47.8425 85.191 47.9757 85.1127C49.5092 84.2116 51.0617 83.343 52.6039 82.4564C54.1459 81.5699 55.6807 80.6708 57.2209 79.7811C58.716 78.9174 60.2144 78.0596 61.7102 77.1973C63.4955 76.1681 65.2782 75.1346 67.0646 74.1072C68.3928 73.3433 69.7277 72.591 71.0547 71.8249C72.5804 70.944 74.0558 69.9601 75.6395 69.2014C76.644 68.7203 76.7667 68.0715 76.7639 67.101C76.7337 56.5855 76.7451 46.0699 76.7451 35.5543C76.7451 35.3561 76.7451 35.1578 76.7451 34.9304C78.4236 34.9304 80.0757 34.9304 81.758 34.9304C81.758 47.0959 81.758 59.2648 81.758 71.4188C79.422 72.7844 77.0866 74.161 74.7398 75.5179C72.712 76.6904 70.6673 77.8337 68.6373 79.0025C66.6222 80.1626 64.619 81.3433 62.6054 82.5059C60.8512 83.5188 59.087 84.5143 57.3322 85.5259C55.5466 86.5554 53.7652 87.5922 51.9858 88.6324C51.4406 88.9511 50.9081 89.2915 50.4015 89.6548C50.3162 89.6878 50.1993 89.6878 50.0385 89.6878Z" fill="#079C4A"/>
<path d="M41.2878 0.932373C41.5324 1.10845 41.7084 1.32399 41.9338 1.45445C43.9769 2.63722 46.0324 3.79859 48.0768 4.97916C50.274 6.24791 52.4586 7.53821 54.6568 8.80511C56.9614 10.1333 59.28 11.4371 61.5843 12.7659C64.0264 14.1742 66.456 15.6043 68.8967 17.015C70.1595 17.7449 71.4347 18.4534 72.7649 19.2059C71.9204 20.6691 71.0961 22.0974 70.2485 23.566C60.505 17.9432 50.8185 12.3534 41.0814 6.73429C31.4049 12.3167 21.6861 17.9235 11.9062 23.5656C11.0589 22.0936 10.2289 20.6517 9.40894 19.2271C11.7885 17.8377 14.1266 16.4628 16.4745 15.1047C18.2431 14.0817 20.0287 13.088 21.7985 12.067C23.8285 10.8957 25.8454 9.70176 27.8754 8.53052C29.6452 7.50944 31.4297 6.51392 33.1996 5.49294C34.9701 4.47155 36.7317 3.43467 38.4947 2.40042C39.2824 1.93833 40.0642 1.46605 40.817 0.965383C40.9376 0.932373 41.0898 0.932373 41.2878 0.932373Z" fill="#014FD5"/>
<path d="M0.44043 34.9516C2.06394 34.9003 3.68746 34.9003 5.37391 34.9003C5.37391 35.1165 5.37391 35.3099 5.37391 35.5032C5.37391 46.1299 5.38818 56.7567 5.34695 67.3832C5.34364 68.2377 5.58971 68.6928 6.30691 69.0912C8.81666 70.4853 11.3011 71.9252 13.7877 73.3606C16.2293 74.7699 18.6582 76.201 21.0992 77.6115C23.1432 78.7926 25.2003 79.9511 27.2446 81.1317C29.4416 82.4004 31.6297 83.6846 33.8242 84.9578C34.051 85.0894 34.2945 85.1922 34.56 85.323C33.7343 86.7751 32.9295 88.1905 32.1245 89.6468C32.0421 89.6876 31.9599 89.6876 31.8363 89.6462C30.776 88.9963 29.7646 88.3748 28.7365 87.7821C26.7067 86.6119 24.6629 85.466 22.6336 84.2949C20.1918 82.8856 17.7634 81.4532 15.321 80.0447C13.0167 78.7159 10.6964 77.4146 8.39321 76.0838C6.21084 74.8228 4.0458 73.5318 1.86305 72.2715C1.41164 72.0108 0.915795 71.827 0.44043 71.6078C0.44043 59.4062 0.44043 47.2046 0.44043 34.9516Z" fill="#DF085D"/>
<path d="M263.56 58.6269C262.851 58.6782 262.142 58.6782 261.4 58.6782C261.4 52.1445 261.4 45.6321 261.4 39.0643C262.084 39.0643 262.77 39.0643 263.508 39.0643C263.56 45.5681 263.56 52.0718 263.56 58.6269Z" fill="black"/>
<path d="M56.7918 36.9826C58.1071 36.9826 59.3703 36.9287 60.6273 36.9945C62.8234 37.1093 64.7263 37.8466 65.9388 39.8258C66.6068 40.9163 66.8219 42.0872 66.6808 43.3758C66.544 44.6254 66.0541 45.6583 65.169 46.5065C64.8073 46.8531 64.3512 47.1013 64.0147 47.34C64.6631 47.8078 65.4496 48.2146 66.0229 48.8223C67.1921 50.0616 67.5799 51.5703 67.3416 53.2918C67.1388 54.7568 66.5611 55.9761 65.4745 56.9509C64.3715 57.9402 63.0551 58.5146 61.5812 58.5548C58.5408 58.6377 55.4983 58.6419 52.4567 58.6781C52.2767 58.6802 52.0966 58.6783 51.8879 58.6783C51.8879 51.4488 51.8879 44.2469 51.8879 36.9826C53.5004 36.9826 55.1187 36.9826 56.7918 36.9826ZM59.1417 54.6241C59.5689 54.5875 60.0043 54.5913 60.4218 54.5068C61.6747 54.2533 62.3658 53.5379 62.4838 52.477C62.6495 50.9873 61.7948 50.0215 60.7292 49.8555C59.3792 49.6453 57.9715 49.8047 56.6041 49.8047C56.6041 51.3768 56.6041 52.9889 56.6041 54.595C56.6696 54.6084 56.7037 54.6214 56.7379 54.6214C57.5032 54.6232 58.2686 54.6235 59.1417 54.6241ZM59.4294 45.6361C59.6018 45.6005 59.774 45.5636 59.9467 45.5295C61.0891 45.304 61.8306 44.5632 61.935 43.3639C62.0225 42.3583 61.1417 41.266 60.1157 41.1619C58.955 41.044 57.7826 41.0411 56.6115 40.988C56.6115 42.5997 56.6115 44.1151 56.6115 45.6388C57.5428 45.6388 58.4353 45.6388 59.4294 45.6361Z" fill="#014FD5"/>
<path d="M41.8389 49.4581C41.7581 49.6904 41.6695 49.8918 41.6688 50.0936C41.6595 52.7598 41.6626 55.4261 41.6626 58.0924C41.6626 58.271 41.6626 58.4496 41.6626 58.6529C40.0468 58.6529 38.4676 58.6529 36.8387 58.6529C36.8387 57.9168 36.8387 57.1919 36.8387 56.467C36.8387 54.4034 36.8029 52.3388 36.8561 50.2766C36.8778 49.4361 36.3421 48.8933 35.9901 48.271C34.8455 46.2473 33.6208 44.2689 32.4237 42.275C31.4257 40.6127 30.4225 38.9535 29.4247 37.291C29.3722 37.2034 29.3484 37.0986 29.3037 36.9823C31.1388 36.9823 32.9451 36.9743 34.751 36.9958C34.913 36.9977 35.1407 37.152 35.2232 37.2995C36.5031 39.5909 37.7635 41.8933 39.03 44.1922C39.3651 44.8005 39.389 44.8116 39.7328 44.217C40.5348 42.8296 41.3148 41.4295 42.1023 40.0337C42.6654 39.0357 43.2262 38.0362 43.8062 37.005C45.6063 37.005 47.4425 37.005 49.3277 37.005C48.7707 37.9408 48.2278 38.8616 47.6767 39.7774C46.6228 41.529 45.5666 43.2793 44.5066 45.0272C43.7019 46.3541 42.8889 47.6758 42.0828 49.0019C42.0009 49.1366 41.9418 49.2852 41.8389 49.4581Z" fill="#014FD5"/>
<path d="M24.4505 53.9665C26.5126 53.9665 28.5199 53.9665 30.5585 53.9665C30.5585 55.532 30.5585 57.0739 30.5585 58.6471C25.8437 58.6471 21.1219 58.6471 16.3689 58.6471C16.3689 51.4511 16.3689 44.2484 16.3689 37.014C17.9767 37.014 19.5925 37.014 21.2517 37.014C21.2517 42.6388 21.2517 48.2712 21.2517 53.9665C22.3277 53.9665 23.3617 53.9665 24.4505 53.9665Z" fill="#014FD5"/>
<path d="M199.314 42.7898C199.314 42.007 199.314 41.2789 199.314 40.5164C199.476 40.5062 199.615 40.49 199.754 40.4899C201.636 40.4882 203.52 40.4432 205.4 40.5051C206.6 40.5447 207.794 40.7278 208.848 41.4088C209.914 42.0972 210.471 43.1083 210.584 44.321C210.657 45.1009 210.623 45.9257 210.446 46.6859C210.174 47.8533 209.358 48.6284 208.243 49.0547C208.8 49.3414 209.365 49.5946 209.893 49.9113C210.96 50.5529 211.431 51.5606 211.476 52.7661C211.509 53.6794 211.544 54.5983 211.226 55.4882C210.671 57.0369 209.534 57.9743 207.993 58.322C206.884 58.572 205.72 58.6287 204.577 58.6641C202.846 58.7178 201.111 58.6781 199.314 58.6781C199.314 53.3846 199.314 48.1146 199.314 42.7898ZM209.244 53.9604C209.204 53.413 209.243 52.8456 209.11 52.3218C208.752 50.9158 207.711 50.3819 206.298 50.2696C204.725 50.1447 203.134 50.241 201.546 50.241C201.546 52.458 201.546 54.6322 201.546 56.7057C203.272 56.7057 204.969 56.8202 206.643 56.6717C208.151 56.5379 209.126 55.5948 209.244 53.9604ZM202.228 42.3515C201.997 42.3515 201.767 42.3515 201.533 42.3515C201.533 44.3867 201.533 46.3649 201.533 48.2674C203.097 48.2674 204.636 48.3156 206.17 48.2432C206.768 48.215 207.377 47.9243 207.749 47.3936C208.518 46.2965 208.617 45.0924 208.114 43.8695C207.633 42.6999 206.558 42.4375 205.455 42.3659C204.419 42.2987 203.376 42.3515 202.228 42.3515Z" fill="black"/>
<path d="M159.424 58.6784C157.383 58.1537 156.074 56.8753 155.421 54.9547C154.967 53.6166 154.92 52.2303 155.112 50.8196C155.243 49.8565 155.502 48.9624 155.982 48.1222C156.933 46.4583 158.344 45.4949 160.244 45.1914C161.676 44.9628 163.006 45.1452 164.206 45.9737C164.614 46.2555 164.956 46.6324 165.407 47.0362C165.407 44.3381 165.407 41.7296 165.407 39.093C166.206 39.093 166.944 39.093 167.712 39.093C167.712 45.5998 167.712 52.1059 167.712 58.6451C166.982 58.6451 166.244 58.6451 165.448 58.6451C165.448 58.0892 165.448 57.5182 165.448 56.9472C165.416 56.9002 165.383 56.8531 165.35 56.8061C163.702 58.4932 161.787 59.2701 159.424 58.6784ZM165.171 49.4792C164.86 48.5666 164.309 47.8557 163.432 47.4236C162.527 46.9779 161.589 46.8546 160.589 47.0551C159.424 47.2883 158.559 47.8738 157.976 48.9239C157.233 50.2658 157.262 51.7201 157.353 53.1626C157.392 53.7915 157.621 54.4488 157.917 55.0133C158.692 56.4932 160.331 57.2789 162.04 56.9392C163.631 56.623 164.701 55.7501 165.209 54.2385C165.73 52.6909 165.683 51.1183 165.171 49.4792Z" fill="black"/>
<path d="M241.663 46.65C242.598 45.8056 243.653 45.3584 244.87 45.184C246.091 45.0092 247.229 45.1713 248.367 45.6079C249.806 46.1601 250.707 47.2243 251.268 48.5922C251.762 49.796 251.833 51.0817 251.832 52.4139C248.509 52.4139 245.212 52.4139 241.917 52.4139C241.828 54.488 242.899 56.663 245.236 56.9442C246.222 57.0629 247.144 57.0188 248.038 56.6037C248.825 56.2383 249.359 55.6607 249.446 54.7536C250.21 54.7536 250.954 54.7536 251.704 54.7536C251.344 56.8355 250.074 58.0938 248.114 58.5952C245.566 59.247 243.189 58.9088 241.266 56.9307C240.285 55.9211 239.844 54.6533 239.647 53.2677C239.478 52.0752 239.55 50.9174 239.852 49.7611C240.163 48.5683 240.711 47.5148 241.663 46.65ZM245.196 50.6793C246.635 50.6793 248.075 50.6793 249.518 50.6793C249.288 48.0652 248.019 46.8525 245.516 46.9779C243.372 47.0854 242.142 48.8324 242.021 50.6793C243.044 50.6793 244.065 50.6793 245.196 50.6793Z" fill="black"/>
<path d="M181.987 52.4324C178.978 52.4324 176.022 52.4324 173.069 52.4324C172.878 54.5629 174.138 56.6683 176.38 56.9447C177.256 57.0526 178.06 56.9787 178.891 56.7215C179.891 56.412 180.372 55.7026 180.627 54.7465C181.347 54.7465 182.075 54.7465 182.804 54.7465C182.527 56.8403 181.028 58.2248 178.978 58.6765C177.125 59.085 175.33 58.9345 173.674 57.966C172.26 57.1391 171.377 55.88 170.972 54.2933C170.488 52.4048 170.528 50.5108 171.31 48.7355C172.195 46.7284 173.75 45.5015 176.006 45.1827C177.68 44.9463 179.198 45.254 180.557 46.1987C181.811 47.0696 182.51 48.3492 182.746 49.8417C182.877 50.6728 182.864 51.5268 182.92 52.4324C182.575 52.4324 182.308 52.4324 181.987 52.4324ZM177.553 50.6792C178.59 50.6792 179.627 50.6792 180.668 50.6792C180.396 47.82 178.672 46.61 176.088 47.0672C174.349 47.3747 173.171 49.127 173.175 50.6792C174.598 50.6792 176.02 50.6792 177.553 50.6792Z" fill="black"/>
<path d="M218.916 50.8958C219.323 50.8586 219.679 50.8014 220.035 50.7934C220.745 50.7775 221.455 50.7887 222.162 50.7887C222.441 48.5524 221.966 47.4104 220.529 47.0923C218.325 46.6043 216.79 47.3357 216.481 49.3399C215.776 49.3399 215.07 49.3399 214.326 49.3399C214.347 48.0247 214.84 46.9501 215.873 46.1976C217.26 45.187 218.838 44.9647 220.529 45.1818C221.435 45.2981 222.231 45.5675 222.972 46.096C223.765 46.6618 224.088 47.4881 224.296 48.3645C224.415 48.8644 224.414 49.3995 224.416 49.919C224.426 52.819 224.421 55.719 224.421 58.6485C223.691 58.6485 222.989 58.6485 222.246 58.6485C222.246 58.276 222.246 57.8998 222.246 57.3997C221.965 57.5458 221.736 57.6179 221.566 57.7599C220.366 58.7628 218.984 59.0518 217.48 58.7799C216.812 58.6591 216.125 58.5156 215.513 58.2374C214.552 57.8012 214.011 56.9552 213.844 55.9323C213.622 54.5735 213.748 53.2549 214.878 52.2897C215.709 51.5806 216.72 51.1944 217.798 51.0115C218.15 50.9518 218.509 50.9346 218.916 50.8958ZM217.854 52.692C217.495 52.8715 217.102 53.0049 216.784 53.2397C216.04 53.7887 215.849 54.5948 215.993 55.4527C216.121 56.2122 216.538 56.8155 217.369 56.9317C217.972 57.016 218.6 57.0916 219.197 57.0149C220.233 56.8819 221.174 56.5005 221.787 55.5597C222.429 54.5757 222.176 53.4986 222.235 52.327C220.742 52.4407 219.34 52.5474 217.854 52.692Z" fill="black"/>
<path d="M126.767 56.5718C125.908 55.6162 125.501 54.4919 125.322 53.2925C125.113 51.8836 125.217 50.4917 125.745 49.1452C126.557 47.0775 128.021 45.7995 130.201 45.3015C132.247 44.8342 134.113 45.1669 135.805 46.4054C137.002 47.2811 137.729 48.4816 138.075 49.9043C138.604 52.0811 138.417 54.166 137.173 56.0917C136.095 57.762 134.527 58.5663 132.582 58.8001C130.963 58.9946 129.473 58.7105 128.128 57.8079C127.636 57.4774 127.238 57.0066 126.767 56.5718ZM135.349 54.9483C136.01 53.6925 136.125 52.379 135.971 50.9703C135.788 49.2896 134.492 47.3451 132.534 47.0289C130.781 46.7457 128.963 47.5497 128.179 49.0955C127.568 50.3016 127.42 51.5648 127.586 52.9193C127.697 53.8311 127.94 54.6881 128.46 55.381C130.248 57.7654 133.936 57.4995 135.349 54.9483Z" fill="black"/>
<path d="M152.173 49.8886C152.209 50.0954 152.277 50.2507 152.277 50.4061C152.284 53.1419 152.282 55.8777 152.282 58.6458C151.522 58.6458 150.783 58.6458 149.98 58.6458C149.98 58.4815 149.98 58.3067 149.98 58.1318C149.98 55.3938 149.998 52.6556 149.974 49.9178C149.953 47.3895 148.178 46.8221 146.286 47.1142C145.11 47.2956 144.122 47.8953 143.655 49.0815C143.516 49.4359 143.416 49.8316 143.413 50.2093C143.392 52.8377 143.402 55.4663 143.402 58.0948C143.402 58.2736 143.402 58.4524 143.402 58.6536C142.625 58.6536 141.887 58.6536 141.124 58.6536C141.124 54.2139 141.124 49.788 141.124 45.336C141.872 45.336 142.611 45.336 143.409 45.336C143.409 45.8735 143.409 46.4054 143.409 47.0301C145.188 44.9979 147.334 44.649 149.642 45.4993C151.586 46.2154 152.111 47.9329 152.173 49.8886Z" fill="black"/>
<path d="M228.44 46.7166C229.759 45.3534 231.329 44.9412 233.143 45.1856C234.002 45.3013 234.79 45.4987 235.503 46.0183C236.517 46.7564 236.933 47.7733 237.06 49.0351C236.406 49.0351 235.79 49.0523 235.176 49.0201C235.058 49.014 234.879 48.8308 234.849 48.701C234.363 46.6302 231.621 46.6219 230.403 47.5042C229.831 47.9185 229.709 48.5476 229.806 49.1915C229.899 49.8096 230.361 50.1838 230.93 50.339C232 50.6307 233.09 50.8451 234.164 51.1215C235.288 51.4106 236.421 51.7456 237.039 52.8425C237.858 54.2942 237.704 57.0041 235.792 58.0925C234.55 58.8 233.216 58.9725 231.792 58.807C230.803 58.6922 229.891 58.4851 229.065 57.9045C227.903 57.0875 227.467 55.9285 227.351 54.5455C228.096 54.5455 228.801 54.5455 229.534 54.5455C229.658 55.3438 229.886 56.1022 230.674 56.5525C231.449 56.996 232.28 57.0949 233.146 57.0024C233.39 56.9764 233.631 56.9143 233.869 56.8509C234.925 56.5691 235.376 55.9144 235.383 55.031C235.391 54.0714 234.963 53.5204 233.853 53.2061C232.804 52.9088 231.726 52.7102 230.672 52.4272C228.596 51.8697 227.565 50.8171 227.738 48.545C227.785 47.931 228.177 47.3433 228.44 46.7166Z" fill="black"/>
<path d="M117.395 57.081C116.322 54.6092 115.278 52.1732 114.216 49.7447C113.577 48.2832 112.911 46.8336 112.239 45.3374C113.066 45.3374 113.842 45.3374 114.654 45.3374C115.937 48.3323 117.229 51.3477 118.522 54.3631C118.571 54.3805 118.62 54.3979 118.669 54.4153C118.801 54.1318 118.949 53.8545 119.062 53.5638C120.079 50.9474 121.091 48.3286 122.106 45.7112C122.156 45.5809 122.226 45.4582 122.292 45.3215C123.018 45.3215 123.748 45.3215 124.548 45.3215C124.139 46.3108 123.735 47.2747 123.343 48.2432C122.315 50.7797 121.3 53.3216 120.264 55.855C119.327 58.1459 118.359 60.424 117.431 62.7186C117.28 63.0929 117.082 63.1988 116.706 63.1786C116.161 63.1493 115.612 63.1711 114.97 63.1711C115.273 62.4399 115.553 61.7553 115.841 61.0747C116.362 59.8462 116.89 58.6207 117.408 57.391C117.441 57.3134 117.415 57.2109 117.395 57.081Z" fill="black"/>
<path d="M104.702 53.0898C104.702 54.3108 104.702 55.477 104.702 56.6866C107.437 56.6866 110.15 56.6866 112.893 56.6866C112.893 57.3583 112.893 57.9871 112.893 58.6472C109.42 58.6472 105.941 58.6472 102.43 58.6472C102.43 52.6194 102.43 46.5855 102.43 40.5201C103.162 40.5201 103.9 40.5201 104.702 40.5201C104.702 44.6872 104.702 48.8611 104.702 53.0898Z" fill="black"/>
<path d="M254.899 51.2274C254.899 47.1577 254.899 43.1429 254.899 39.0963C255.66 39.0963 256.399 39.0963 257.17 39.0963C257.17 45.5975 257.17 52.1062 257.17 58.6467C256.439 58.6467 255.701 58.6467 254.899 58.6467C254.899 56.1972 254.899 53.7397 254.899 51.2274Z" fill="black"/>
<path d="M192.652 39.0672C193.358 39.0643 194.012 39.0643 194.687 39.0643C194.687 45.614 194.687 52.1231 194.687 58.655C193.967 58.655 193.264 58.655 192.517 58.655C192.517 58.4769 192.517 58.3176 192.517 58.1583C192.517 51.9676 192.517 45.7769 192.521 39.5862C192.521 39.4142 192.572 39.2422 192.652 39.0672Z" fill="black"/>
<path d="M188.242 51.7746C188.242 54.0913 188.242 56.3531 188.242 58.6464C187.516 58.6464 186.814 58.6464 186.08 58.6464C186.08 52.1445 186.08 45.6357 186.08 39.0955C186.775 39.0955 187.477 39.0955 188.242 39.0955C188.242 43.2989 188.242 47.5094 188.242 51.7746Z" fill="black"/>
</svg>
