<svg width="162" height="50" viewBox="0 0 162 50" fill="none" xmlns="http://www.w3.org/2000/svg">
<path d="M38.8113 48.47V36.2181C42.6369 36.0022 46.6348 35.6892 50.7621 35.2898V48.47H38.8113ZM53.6286 35.0199C57.5404 34.6637 61.6354 34.2319 65.7627 33.7029L77.067 48.47H62.1527L53.6286 35.0199ZM150.065 20.296C156.488 22.1959 161.413 25.4559 161.37 32.8178C161.37 37.3947 160.27 42.1119 156.617 45.2424C153.007 48.3296 148.212 49.6034 143.557 49.6034C137.748 49.6034 132.08 47.6604 127.371 44.3572L132.511 34.7068C135.507 37.3083 139.063 39.4673 143.158 39.4673C145.97 39.4673 148.955 38.1935 148.955 34.8364C148.955 31.4901 144.257 30.3458 141.703 29.5902C135.108 27.7011 130.496 25.9848 129.483 19.5512C133.653 18.0508 137.748 16.464 141.703 14.7368V14.9635C141.703 17.6514 144.957 18.7092 147.026 19.3677L150.065 20.296ZM113.652 24.4844C117.747 23.3833 121.788 22.1527 125.786 20.825C126.002 22.0232 126.088 23.2538 126.088 24.5275C126.088 39.4241 115.409 49.9596 100.635 49.9596C88.5868 49.9596 79.2222 42.9108 76.2264 32.1917C80.3214 31.5764 84.5026 30.9179 88.673 30.1299C90.699 35.0631 95.3112 38.323 100.635 38.323C107.801 38.323 113.652 32.5047 113.652 24.5707V24.4844Z" fill="#FF7715"/>
<path d="M12.2051 37.2328V48.4699H0.243408V37.1896C0.243408 37.1896 4.68323 37.3191 12.2051 37.2328Z" fill="#FF7715"/>
<path fill-rule="evenodd" clip-rule="evenodd" d="M149.042 11.3581C152.468 9.68494 155.82 7.88224 158.977 5.93921L154.764 14.1863C153.137 12.8586 151.154 11.8007 149.042 11.3581ZM72.6595 16.3884C72.6595 21.6777 70.2025 26.341 65.6334 28.4999C56.0856 29.6981 46.9797 30.4861 38.8113 31.0151V2.19348H56.6568C65.7627 2.19348 72.6703 6.5545 72.6703 16.3776L72.6595 16.3884ZM60.2129 16.7122C60.2129 11.6819 55.8162 10.9371 51.9044 10.9371H50.7622V22.8759H51.9044C55.8162 22.8759 60.2129 22.1203 60.2129 17.1008V16.7122ZM155.324 2.86274C147.317 7.3641 138.567 11.153 129.386 14.3698C130.259 6.21987 136.595 0.973688 145.119 0.973688C148.287 0.973688 151.984 1.67534 155.324 2.86274ZM100.667 0.660645C111.045 0.660645 120.808 6.70563 124.547 15.9998C120.635 17.2843 116.67 18.4718 112.672 19.5296C110.689 15.1686 106.077 11.8547 100.667 11.8547C93.5008 11.8547 87.6493 17.6729 87.6493 24.0202V25.1212C83.5651 25.8661 79.4701 26.5353 75.429 27.1506L75.2027 24.4196C75.2027 10.4514 87.4338 0.660645 100.667 0.660645Z" fill="#01B0FF"/>
<path fill-rule="evenodd" clip-rule="evenodd" d="M27.281 31.5872C10.9335 32.2997 0.243408 31.9434 0.243408 31.9434V2.19348H18.5846C28.4772 2.19348 35.2878 6.78119 35.2878 17.3599C35.2878 24.8945 32.4752 29.4715 27.281 31.5872ZM22.8412 17.2628C22.8412 11.4445 18.8863 11.4013 14.2202 11.4013H12.2051V23.3509H14.2202C18.5738 23.3509 22.8412 23.3509 22.8412 17.7053V17.2628Z" fill="#01B0FF"/>
</svg>
