<svg width="183" height="112" viewBox="0 0 183 112" fill="none" xmlns="http://www.w3.org/2000/svg">
<path fill-rule="evenodd" clip-rule="evenodd" d="M89.4328 58.2725C89.5937 58.3031 89.7545 58.3316 89.9148 58.3601L89.4328 58.2725ZM90.7475 58.4914C90.9347 58.5194 91.1219 58.5441 91.3096 58.5689L90.7475 58.4914ZM92.1375 58.6582C92.3204 58.6748 92.5022 58.6904 92.6851 58.7044L92.1375 58.6582ZM92.8809 58.7179C93.0352 58.7292 93.1896 58.7383 93.344 58.7464L92.8809 58.7179ZM93.5689 58.7582C93.7518 58.7663 93.9346 58.7733 94.1175 58.7792L93.5689 58.7582ZM94.2994 58.7813C94.7079 58.7922 95.1167 58.7925 95.5253 58.7824L94.2994 58.7813ZM95.7205 58.7792C95.911 58.7734 96.1014 58.7661 96.2918 58.7571L95.7205 58.7792ZM96.5503 58.7441C96.5241 58.7456 96.4978 58.7471 96.4715 58.7485L96.4891 58.7474C96.5095 58.7463 96.5299 58.7452 96.5503 58.7441ZM96.9631 58.7179C96.8801 58.7236 96.7975 58.729 96.7147 58.7342C96.7858 58.7297 96.8568 58.7249 96.928 58.7201L96.9631 58.7179ZM97.6689 58.6608L97.6646 58.6614C97.4871 58.6781 97.3079 58.6931 97.1293 58.7066L96.9599 58.7179C96.9493 58.7186 96.9387 58.7193 96.928 58.7201L96.4891 58.7474C96.4821 58.7478 96.4752 58.7482 96.4682 58.7485L96.2886 58.7582C96.0982 58.7674 95.9088 58.7743 95.7173 58.7803L95.5231 58.7835C95.1145 58.7937 94.7058 58.7933 94.2972 58.7824L94.1143 58.7803C93.9314 58.7743 93.7485 58.7674 93.5656 58.7593L93.3419 58.7469C93.1875 58.7383 93.0331 58.7302 92.8787 58.7184L92.6824 58.7055C92.4997 58.6914 92.3172 58.676 92.1348 58.6592L91.8647 58.6313L91.507 58.5925L91.3075 58.5694C91.1197 58.5463 90.9323 58.5203 90.7453 58.4914L90.5189 58.4581L90.1187 58.3957L89.9126 58.3612L89.8453 58.3493C89.7069 58.3248 89.5686 58.3004 89.4307 58.2735L89.0837 58.2042L88.9062 58.1681L88.8222 58.1499C88.6127 58.1043 88.4024 58.0586 88.1945 58.0084L88.1321 57.9938L87.7615 57.9035L87.5711 57.8545C87.35 57.7975 87.13 57.7362 86.9105 57.6748L86.832 57.6517C80.2984 55.7669 74.7154 51.6523 70.9516 46.1871L70.4562 46.9412C69.5589 48.4431 68.2512 48.2667 67.5471 48.1698L67.3642 48.1413C67.0361 48.0951 66.8285 48.1946 65.9307 48.6905L65.7865 48.7659C64.8166 49.2979 62.8963 49.9869 61.6144 50.4463L61.1099 50.6265C59.6483 51.1574 58.6898 50.4818 58.1271 50.0735L57.9297 49.9364C57.2148 49.463 56.8447 48.6437 56.5822 48.0547C56.5822 48.0547 56.4961 47.8821 56.4542 47.789C56.3085 47.7756 56.1621 47.7698 56.0158 47.7718C54.877 47.7718 54.4709 47.2505 54.2089 46.683L54.1627 46.5857C54.0083 46.2737 53.3332 45.2823 53.1465 45.0887C52.8308 44.7729 52.6065 44.2339 52.571 43.8531C52.4526 42.618 53.1309 42.3458 53.7554 42.2194L55.0642 42.0935L56.2132 42.0075C56.6403 41.9682 57.4052 41.9574 57.7172 42.05L58.6973 41.7918C58.979 41.7183 59.3432 41.7246 59.7578 41.7317C60.0297 41.7363 60.3233 41.7414 60.6295 41.7245C60.2186 41.4132 59.8298 41.0737 59.466 40.7084C59.0921 40.7869 58.7038 40.873 58.7038 40.873C57.6349 41.1167 53.7554 40.9015 52.5279 40.4561C51.9039 40.2296 49.9578 40.5492 49.0234 40.7084L48.4629 40.7939C47.891 40.8818 47.3072 40.8527 46.7469 40.7084C46.7173 41.4115 46.3365 42.05 46.01 42.59L46.0003 42.6059C45.812 42.9152 45.5792 43.2978 45.5506 43.5088C45.3843 44.7014 44.0762 45.2726 42.8191 45.8215L42.7852 45.8364C42.293 46.0445 41.7981 46.2635 41.4468 46.4759C40.0633 47.3262 38.5481 47.053 37.3336 46.834L37.3167 46.831L36.7271 46.7266C35.7465 46.5755 34.1769 46.8197 32.9854 48.0122C31.1635 49.8299 29.3507 49.4302 28.525 49.2043C28.2517 49.3662 27.6885 49.952 27.3319 50.5829C26.6433 51.8331 25.3281 52.1881 24.3373 51.9907L24.2378 51.9648C23.8311 51.8793 23.1517 51.7459 22.6316 51.811L21.2771 51.9907L21.2916 51.754C20.3648 51.9046 19.3804 51.7319 18.822 51.3161C18.4116 51.0106 17.8366 50.2855 18.5627 48.8455C18.7311 48.5001 18.7887 48.2602 18.7887 47.9402C18.7887 46.6836 19.5154 45.7535 20.0253 45.463C20.56 45.1828 20.9118 44.9025 21.0549 44.4792C21.1953 44.0548 21.4707 43.6992 21.971 43.419C22.115 43.3367 22.2766 43.2369 22.4474 43.1315C22.8637 42.8747 23.3342 42.5844 23.7343 42.4319C24.2975 42.2199 25.0758 42.001 25.5003 42.4319C25.9279 42.8482 26.9075 43.6992 26.9075 43.6992C27.5453 43.2068 27.6872 42.661 27.8823 41.9106C27.9621 41.6035 28.0508 41.2622 28.1861 40.8762C28.694 39.4392 29.8185 39.5933 30.698 39.7137C30.8273 39.7314 30.9512 39.7484 31.0672 39.7595L31.171 39.774C31.171 39.774 31.6589 39.7955 31.6734 39.8031C31.6987 39.7886 31.8353 39.724 31.8353 39.724L32.0618 39.6051C32.0618 39.6051 33.5228 38.7471 33.5373 38.7402C33.5437 38.7224 33.5437 38.6966 33.5437 38.653C33.5437 38.5492 33.5082 38.3373 33.3108 38.0215C32.661 37.0156 32.2016 35.0231 32.1183 33.3465C31.8837 33.3744 31.6573 33.3976 31.4346 33.4153C27.8961 33.6993 25.7934 32.8042 24.5632 31.6515C23.9012 31.0439 23.3981 30.2833 23.0979 29.4363C23.0883 29.4085 23.0786 29.3804 23.0688 29.3521C22.8293 28.6597 22.5374 27.8157 22.5374 27.0948C22.553 23.7113 24.5277 21.1981 26.6536 20.0346C27.6197 19.5064 27.9785 19.1438 28.1258 18.9577C28.0551 18.9265 27.9797 18.9072 27.9026 18.9007C25.0091 18.9007 23.5256 17.7764 22.7972 16.8249C22.1071 15.9335 21.7547 14.7845 21.7547 13.528C21.7547 12.9174 21.8408 12.2784 22.0103 11.6248C22.8257 10.2779 23.6003 10.648 24.0748 11.337C24.3771 11.7684 26.4486 13.237 29.001 13.4699C30.8585 13.6463 31.8595 14.5549 32.3802 15.2805C32.9805 16.1207 33.2108 17.1331 33.2108 17.9943C33.2108 18.3466 33.171 18.6775 33.0951 18.9717C32.8154 20.1067 31.6196 21.1298 29.9542 22.4332L29.0096 23.2164C27.6267 24.4267 26.8655 25.7737 26.8655 26.9151C26.8655 27.2002 26.9155 27.4783 27.0118 27.7349C27.0516 27.8403 27.0995 27.942 27.156 28.0383C27.774 29.0845 29.5207 29.7408 32.0543 28.8543C33.2253 28.4482 35.4797 27.0292 36.8562 25.6645C38.4759 24.0486 40.6378 23.6607 42.7195 23.4961C44.5248 23.36 45.6361 22.9173 46.4188 22.0373C48.7318 19.4311 50.9577 19.0648 53.0411 18.9098C53.8383 18.8485 53.8813 18.7915 53.9851 18.6511C55.1336 17.1218 56.3132 16.3122 57.3719 15.841C58.1787 15.4822 58.9157 15.3187 59.5192 15.1864L60.2519 15.0062L60.4348 14.9416C61.5945 14.5683 62.4923 14.259 64.8516 12.6646L64.9522 12.6011L64.9527 12.6001L65.0517 12.5382L65.0528 12.5377L65.1523 12.479L65.1539 12.4785L65.2534 12.4215L65.255 12.4209L65.3551 12.3682L65.3583 12.3671L65.4573 12.3155L65.4605 12.3144L65.56 12.266L65.5644 12.2649L65.6644 12.2187L65.6682 12.2165L65.7688 12.1746L65.7731 12.173L65.8731 12.1315L65.8785 12.1305L65.9791 12.0928L65.9839 12.0901L66.0834 12.0546L66.1894 12.0191L66.1964 12.0175L66.2954 11.9858L66.3018 11.9841L66.4024 11.9551L66.4094 11.9535L66.5089 11.9261L66.5165 11.9239L66.6165 11.9002L66.6257 11.8981L66.7241 11.8755L66.7322 11.8733L66.8328 11.8529L66.8414 11.8507L66.9409 11.8325L66.95 11.8308L67.0495 11.8142L67.0587 11.8131L67.1571 11.7986L67.1673 11.7964L67.2663 11.7851L67.2765 11.783L67.3739 11.7722L67.3847 11.7717L67.4831 11.7625L67.4944 11.7614L67.5923 11.7545L67.6036 11.7534L67.6999 11.7475L67.7112 11.7469L67.8085 11.7426L67.9172 11.7394H67.9285L68.0253 11.7383H68.1458L68.2416 11.7394L68.2529 11.7399H68.2642C68.333 11.7415 68.4019 11.7458 68.4707 11.7496L68.5654 11.7555L68.5788 11.7566L68.6719 11.7636L68.6859 11.7647L68.7789 11.7738L68.7935 11.7754L68.886 11.7846L68.9011 11.7857L68.993 11.797L69.0076 11.7991L69.099 11.8104L69.1146 11.8131L69.205 11.8265L69.22 11.8292L69.3109 11.8432L69.3271 11.8464L69.4158 11.862L69.4325 11.8647L69.5207 11.8809L69.5369 11.8846C69.6778 11.911 69.8166 11.9422 69.9527 11.9755L70.0382 11.9971L70.0554 12.0019C70.1926 12.0374 70.3281 12.0751 70.4616 12.1149L70.5406 12.1396L70.56 12.1455C70.8246 12.2289 71.0812 12.323 71.3298 12.4225L71.3997 12.4516L71.4911 12.4893C76.5368 5.63457 84.5141 1.07357 93.5807 0.660987V0.658835C94.0271 0.638767 94.4738 0.628544 94.9207 0.628174C95.216 0.628368 95.5114 0.632851 95.8066 0.641622C95.9534 0.646463 96.1003 0.65238 96.2466 0.658297H96.2482L96.263 0.65901C96.4035 0.665768 96.5453 0.672594 96.6861 0.681428C105.46 1.20859 113.186 5.62704 118.162 12.2332C118.873 11.9863 119.647 11.8072 120.437 11.7534L120.458 11.7523L120.533 11.7475L120.611 11.7437L120.63 11.7426L120.65 11.7421L120.727 11.7399L120.747 11.7389L120.824 11.7383L120.844 11.7378L120.922 11.7372H120.941L121.019 11.7378H121.038L121.134 11.7394L121.213 11.7426L121.23 11.7432L121.309 11.7469L121.327 11.748L121.406 11.7534L121.421 11.7545L121.501 11.7609L121.517 11.762L121.598 11.7701L121.612 11.7717C121.62 11.7724 121.627 11.7732 121.635 11.774L122.165 11.8553C122.173 11.8568 122.18 11.8584 122.188 11.8599L122.272 11.8771L122.283 11.8798L122.367 11.8997L122.379 11.9018L122.463 11.9234L122.474 11.9261L122.559 11.9486L122.568 11.9513L122.655 11.9755L122.663 11.9782L122.748 12.0046L122.758 12.0073L122.844 12.0358L122.852 12.0379L122.946 12.0708L123.033 12.1019L123.039 12.1046L123.126 12.1385L123.131 12.1407L123.22 12.1762L123.225 12.1789C123.235 12.183 123.245 12.1872 123.255 12.1914L123.654 12.3821C123.663 12.3867 123.672 12.3915 123.68 12.3962L123.683 12.3978L123.772 12.4451L123.773 12.4462L123.862 12.4973L123.863 12.4979L123.952 12.5516L123.953 12.5522L124.041 12.6076L124.13 12.6651C125.755 13.77 126.694 14.2568 127.496 14.5748C127.845 14.7139 128.17 14.8197 128.513 14.9314L128.546 14.9422L128.733 15.0067L129.473 15.1869C129.874 15.2751 130.332 15.3768 130.829 15.5392C132.071 15.9438 133.555 16.7291 134.995 18.6516C135.099 18.792 135.146 18.849 135.947 18.9104C138.028 19.0658 140.25 19.4316 142.573 22.0378C143.349 22.9179 144.455 23.36 146.26 23.4967C148.354 23.6613 150.509 24.0486 152.125 25.665C153.504 27.0297 155.755 28.4487 156.93 28.8548C159.462 29.7413 161.217 29.0851 161.821 28.0388C161.953 27.8183 162.042 27.5757 162.087 27.3191C162.111 27.1859 162.123 27.0509 162.123 26.9157C162.123 25.7742 161.361 24.4272 159.982 23.2169L159.81 23.0744L159.028 22.4337C157.369 21.1304 156.173 20.1072 155.884 18.9722C155.809 18.678 155.776 18.3472 155.776 17.9948C155.776 17.1331 156.011 16.1213 156.6 15.281C157.124 14.5554 158.136 13.6468 159.982 13.4704C162.548 13.2375 164.608 11.769 164.909 11.3376C165.392 10.6485 166.159 10.2784 166.971 11.6254C167.143 12.2789 167.229 12.918 167.229 13.5285C167.229 14.7921 166.877 15.9341 166.187 16.8254C165.454 17.777 163.975 18.9012 161.077 18.9012C161.016 18.9012 160.93 18.9297 160.859 18.9582C161.002 19.1449 161.361 19.5075 162.329 20.0352C164.455 21.1992 166.432 23.7124 166.45 27.0953C166.45 27.8457 166.137 28.729 165.885 29.4369C165.621 30.1793 165.203 30.8575 164.658 31.4266C164.585 31.503 164.508 31.5783 164.427 31.652C163.229 32.7644 161.235 33.6375 157.911 33.439C157.561 33.4176 157.212 33.386 156.864 33.3443C156.778 35.021 156.318 37.014 155.671 38.0193C155.474 38.3351 155.435 38.547 155.435 38.6509C155.435 38.6944 155.44 38.7197 155.44 38.738C155.46 38.745 156.914 39.603 156.914 39.603L157.149 39.7219C157.149 39.7219 157.285 39.7864 157.303 39.8009C157.324 39.7934 157.805 39.7719 157.805 39.7719L157.901 39.7584L157.91 39.7574C158.027 39.7462 158.152 39.7292 158.282 39.7114C159.163 39.591 160.284 39.4378 160.798 40.8741C160.934 41.2604 161.024 41.6027 161.104 41.9098C161.114 41.9503 161.125 41.9902 161.135 42.0295C161.315 42.7191 161.47 43.2312 162.073 43.6965C162.073 43.6965 162.372 43.4405 162.711 43.1392C162.972 42.9081 163.229 42.6711 163.48 42.4287C163.901 41.9978 164.679 42.2167 165.24 42.4287C165.642 42.5808 166.11 42.8697 166.526 43.1259C166.698 43.2322 166.861 43.3328 167.007 43.4157C167.507 43.696 167.782 44.0515 167.926 44.476C168.076 44.8993 168.423 45.1796 168.952 45.4598C169.463 45.7503 170.196 46.6809 170.196 47.9369C170.196 48.1295 170.217 48.2941 170.272 48.4689C170.309 48.5846 170.359 48.7051 170.429 48.8422C171.143 50.2822 170.57 51.0074 170.156 51.3129C169.6 51.7292 168.619 51.9014 167.697 51.7508L167.704 51.9874L166.358 51.8078C165.836 51.7427 165.148 51.8761 164.737 51.9616L164.64 51.9874C163.682 52.1779 162.428 51.8535 161.724 50.7099C161.698 50.6674 161.672 50.6249 161.648 50.5797C161.289 49.9487 160.729 49.3629 160.456 49.201C160.06 49.3097 159.436 49.4571 158.692 49.3812C158.003 49.3118 157.207 49.0472 156.398 48.3769C156.264 48.2656 156.129 48.1424 155.995 48.009C154.806 46.8164 153.238 46.5722 152.252 46.7234L151.664 46.8277L151.646 46.831C150.435 47.05 148.928 47.3227 147.534 46.4727C147.186 46.2602 146.683 46.0413 146.191 45.8331L146.185 45.8309C144.916 45.2781 143.605 44.7073 143.426 43.5056C143.396 43.2909 143.164 42.8988 142.973 42.5868C142.805 42.3108 142.622 42.0091 142.481 41.6858C142.345 41.377 142.247 41.0484 142.237 40.7052C141.821 40.8122 141.391 40.8561 140.962 40.8353C140.81 40.8277 140.659 40.8128 140.509 40.7907L139.957 40.7052C139.027 40.5465 137.079 40.2264 136.459 40.4529C135.224 40.8983 131.338 41.1134 130.272 40.8698C130.272 40.8698 129.88 40.7837 129.51 40.7052C129.155 41.0715 128.759 41.4152 128.343 41.7213C128.652 41.7381 128.946 41.7331 129.218 41.7284C129.633 41.7213 129.996 41.7151 130.28 41.7885L131.259 42.0467C131.572 41.9542 132.336 41.965 132.77 42.0042L133.917 42.0903L135.225 42.2162C135.856 42.3426 136.525 42.6148 136.41 43.8498C136.366 44.2307 136.153 44.7691 135.832 45.0854C135.656 45.2791 134.972 46.2705 134.822 46.5825L134.773 46.6798C134.507 47.2473 134.112 47.7686 132.963 47.7686C132.817 47.7666 132.671 47.7723 132.525 47.7858C132.49 47.8788 132.396 48.0515 132.396 48.0515C132.138 48.64 131.764 49.4592 131.049 49.9331L130.858 50.0703C130.285 50.4797 129.33 51.1542 127.867 50.6233L127.364 50.4431L127.252 50.4028C125.978 49.9442 124.133 49.2793 123.188 48.7626L123.051 48.6873C122.145 48.1914 121.944 48.0918 121.615 48.1381L121.432 48.1666C120.737 48.264 119.427 48.4399 118.521 46.938L118.438 46.8078C114.143 52.7034 107.687 56.9234 100.235 58.301L100.202 58.308C99.9486 58.3542 99.6925 58.3973 99.4365 58.4376L99.3413 58.4516L98.9911 58.5032C98.9767 58.5054 98.9624 58.5075 98.9481 58.5096L98.5849 58.5586C98.5835 58.5588 98.5821 58.559 98.5806 58.5592L98.331 58.5904L97.9373 58.6329L97.6689 58.6608ZM97.6689 58.6608L97.1336 58.706C97.3122 58.6926 97.4914 58.6775 97.6689 58.6608ZM98.5849 58.5586C98.7067 58.5434 98.8276 58.5273 98.9481 58.5096L98.9954 58.5032C98.8593 58.5248 98.7226 58.5425 98.5849 58.5586ZM123.654 12.3821L123.683 12.3957C123.534 12.3158 123.383 12.2433 123.227 12.1783L123.255 12.1914C123.389 12.2488 123.522 12.3118 123.654 12.3821ZM122.165 11.8553L122.191 11.8593C122.001 11.8204 121.809 11.7909 121.616 11.7711L121.635 11.774C121.813 11.793 121.99 11.8201 122.165 11.8553ZM34.2644 37.49C32.9787 34.9753 33.2735 32.1216 33.2735 32.1216C31.3139 32.4627 29.1143 32.6563 27.2101 31.9984C22.2623 30.0227 24.2903 24.9039 24.2903 24.9039C25.1978 21.9797 27.2058 21.1013 27.2058 21.1013C28.3473 20.6726 29.1977 19.4946 29.1977 19.4946C29.8034 18.1175 28.0686 17.8609 28.0686 17.8609C21.4119 17.9604 23.108 11.9868 23.108 11.9868C24.627 13.8835 28.3833 14.6092 28.3833 14.6092C31.3768 14.6651 31.8604 16.7792 31.8604 16.7792C32.7759 18.9669 30.7787 20.3741 30.7787 20.3741C28.3166 22.1938 26.8734 23.9356 26.8734 23.9356C24.598 27.3476 26.5883 29.2319 26.5883 29.2319C30.4295 32.8763 36.8716 27.2567 36.8716 27.2567C39.4246 24.2503 43.346 24.6516 43.346 24.6516C45.7505 24.3632 46.9651 23.1777 46.9651 23.1777C49.5794 19.6855 53.1302 20.1142 53.1302 20.1142C54.7466 19.9184 54.8929 19.4042 54.8929 19.4042C56.603 16.6205 60.6137 16.1536 60.6137 16.1536C62.5653 15.6614 64.902 14.0718 64.902 14.0718C68.2855 11.3677 72.9691 14.7388 72.9691 14.7388C73.8497 15.6786 75.0519 16.5527 75.0519 16.5527C77.7071 18.4155 78.9249 19.8431 78.9249 19.8431C79.8507 20.785 81.0954 22.3229 81.0954 22.3229C82.7334 23.7355 83.785 25.7629 83.785 25.7629C85.3547 27.658 85.1868 30.0926 85.1868 30.0926C85.1836 30.6074 85.6909 32.4713 85.6909 32.4713C85.82 32.9672 86.2992 35.0893 86.2992 35.0893C87.2395 36.3593 87.3186 38.6191 87.3186 38.6191C89.3347 40.1151 89.9345 42.1258 89.9345 42.1258C90.9049 43.6115 92.97 44.4082 92.97 44.4082C90.3395 45.335 88.5144 42.5771 88.5144 42.5771C87.9835 41.2867 86.5139 39.8768 86.5139 39.8768C85.9378 39.2985 85.6736 39.4959 85.6736 39.4959C85.2175 39.6643 85.6903 40.3114 85.6903 40.3114C87.2374 42.2619 87.3396 43.6664 87.3396 43.6664C88.1056 45.3205 91.0587 46.5351 91.0587 46.5351C87.3471 47.3458 85.054 44.2689 85.054 44.2689C84.7296 43.533 83.7737 44.2909 83.7737 44.2909C82.5177 45.6793 80.6328 45.4652 80.6328 45.4652C80.0164 45.342 79.5328 45.3953 79.5328 45.3953C78.7894 45.3576 77.2821 45.8966 77.2821 45.8966C76.8862 46.0365 75.7023 46.3619 75.7023 46.3619C74.9212 46.632 74.6221 46.633 74.6221 46.633C74.3327 46.5459 74.1724 46.6755 74.1724 46.6755C73.5678 46.8439 73.1854 46.3135 73.1854 46.3135C72.8852 45.9456 72.7281 44.8009 72.7281 44.8009C72.7916 43.809 73.641 43.0699 73.641 43.0699C73.9675 42.7035 73.8798 42.6621 73.8798 42.6621C73.5807 42.2673 72.734 42.6594 72.734 42.6594C72.1095 42.8778 72.4118 41.965 72.4118 41.965C72.5361 41.0166 73.9503 40.0263 73.9503 40.0263C74.4064 39.7003 74.4548 39.1436 74.4548 39.1436C74.5183 38.4443 75.2687 37.3771 75.2687 37.3771C75.6259 36.9333 75.0003 37.0845 75.0003 37.0845C74.5199 37.2168 72.0321 37.5804 72.0321 37.5804C71.2058 38.1694 69.2085 37.5804 69.2085 37.5804C71.7324 34.4777 70.1499 31.4266 70.1499 31.4266C70.1617 32.78 69.3543 34.9726 69.3543 34.9726C68.768 36.8526 67.8654 37.1259 67.8654 37.1259C67.5292 37.3561 65.6518 37.78 65.6518 37.78C64.8982 38.0672 65.3651 38.681 65.3651 38.681C65.5884 38.8257 66.0074 39.6692 66.0074 39.6692C66.1989 40.2996 67.5351 42.4088 67.5351 42.4088C68.1053 42.8805 67.9719 43.6863 67.9719 43.6863C68.0171 44.4598 67.3296 45.9063 67.3296 45.9063C67.1612 46.313 67.3882 46.25 67.3882 46.25C67.5152 46.2377 68.037 45.9289 68.037 45.9289C68.3387 45.7498 68.7104 44.9429 68.7104 44.9429C68.8245 44.7229 69.1074 44.27 69.1074 44.27C69.3323 44.0322 69.3877 43.462 69.3877 43.462C69.4302 42.6487 68.5937 41.3695 68.5937 41.3695C67.9756 40.4905 67.1316 38.3335 67.1316 38.3335L68.3581 38.2437C68.7669 38.4809 69.1391 39.0575 69.1391 39.0575L70.0579 41.2167C70.1348 41.5895 70.6216 42.1043 70.6216 42.1043C71.137 42.7256 71.0202 43.3367 71.0202 43.3367C71.0595 43.9537 70.7766 44.4448 70.7766 44.4448L69.4877 46.4388C68.974 47.4232 67.7266 47.1258 67.7266 47.1258C67.0133 46.8837 66.1139 47.3872 66.1139 47.3872C65.3899 47.9283 61.2312 49.4549 61.2312 49.4549C60.3695 49.9385 59.4513 49.6319 59.4513 49.6319C58.4696 49.2979 57.8897 48.2527 57.8897 48.2527C57.256 46.1623 56.1323 46.7191 56.1323 46.7191C55.3222 46.8434 55.2195 46.2586 55.2195 46.2586C54.8671 45.5744 54.0048 44.4281 54.0048 44.4281C53.3723 43.7396 54.2313 43.5196 54.2313 43.5196L56.7493 43.3152C58.0903 43.2135 59.6309 46.5109 59.6309 46.5109C60.0155 47.4028 61.2092 47.0257 61.2092 47.0257C64.4039 45.8907 64.7729 45.4717 64.7729 45.4717C64.8121 42.4158 62.4028 41.5384 62.4028 41.5384C59.7052 40.5599 58.7181 37.2991 58.7181 37.2991C58.2969 36.7375 57.9295 37.6105 57.9295 37.6105C57.7988 38.83 58.4647 39.8499 58.4647 39.8499C55.8994 40.1775 52.9139 39.469 52.9139 39.469C50.9726 39.1366 48.5843 39.7073 48.5843 39.7073C47.0087 39.9548 46.1572 39.2856 46.1572 39.2856C44.6903 38.4115 45.4713 33.8978 45.4713 33.8978C45.559 33.0646 45.1201 33.1991 45.1201 33.1991C43.9834 34.2195 44.2411 38.5282 44.2411 38.5282C41.8608 43.582 36.7275 43.4313 36.7275 43.4313C35.6871 43.2624 34.4397 43.5276 34.4397 43.5276C30.6286 44.2291 28.8927 47.1892 28.8927 47.1892C29.5054 47.4372 29.9347 46.817 29.9347 46.817C33.0761 43.4243 36.6527 44.2345 36.6527 44.2345C39.1438 44.6374 40.3848 44.1414 40.3848 44.1414C42.6543 43.4642 43.9899 41.2178 43.9899 41.2178L45.4649 41.2345C45.069 41.6939 44.5246 43.0726 44.5246 43.0726C44.4321 44.0526 43.537 44.3157 43.537 44.3157C42.8054 44.5685 40.8555 45.5879 40.8555 45.5879C39.891 46.3011 36.799 45.675 36.799 45.675C34.054 45.2382 32.1105 47.3614 32.1105 47.3614C30.6958 48.8234 28.6926 48.1532 28.6926 48.1532C27.6953 47.8068 26.3505 50.1096 26.3505 50.1096C25.6545 51.392 24.0977 50.8691 24.0977 50.8691C23.4646 50.64 22.4931 50.7675 22.4931 50.7675C22.4824 50.1381 22.6878 49.3172 22.6878 49.3172C23.0649 48.0483 23.6346 47.8675 23.6346 47.8675C24.3984 47.8358 24.7798 47.1161 24.7798 47.1161C25.1386 46.0903 26.3215 45.8192 26.3215 45.8192C27.8056 45.1591 28.7023 43.0989 28.7023 43.0989C29.1434 42.249 29.4957 41.2178 29.4957 41.2178C29.9013 40.6815 31.1154 40.9822 31.1154 40.9822C31.9938 41.0489 32.2585 40.852 32.2585 40.852L34.2278 39.7073C35.217 38.8402 34.2644 37.49 34.2644 37.49ZM24.7583 43.9149C24.4092 43.8332 24.016 43.9596 23.7475 44.1839C23.7475 44.1839 22.7761 45.023 22.257 45.2339C22.257 45.2339 21.3646 45.561 22.0504 46.2371C22.0504 46.2371 22.7836 47.0628 23.7093 46.3694C23.7093 46.3694 24.7502 45.363 25.0692 44.7665C25.0692 44.7665 25.5458 44.0844 24.7583 43.9149ZM21.8966 48.0155C22.0504 47.5959 21.7626 47.3834 21.7626 47.3834C21.583 47.1677 21.3872 46.966 21.1392 46.8272C19.8896 46.3162 19.9138 48.2452 19.9138 48.2452C19.8423 49.0117 19.5663 49.4307 19.5663 49.4307C19.3011 49.8799 19.3447 50.1897 19.3447 50.1897C19.5701 50.9923 21.1962 50.7018 21.1962 50.7018C21.1618 50.0267 21.8966 48.0155 21.8966 48.0155ZM78.7533 42.8746C78.7189 43.1898 78.7915 43.2947 79.0777 43.3017C79.0777 43.3017 80.0336 43.2813 80.2557 43.2049C80.2557 43.2049 81.3676 43.0279 81.1261 41.6213C81.1261 41.6213 80.9658 40.8327 79.6479 41.6202C79.6479 41.6202 78.9454 41.9983 78.7533 42.8746ZM83.0537 37.0138L83.0535 37.0199C83.0535 37.0199 84.2869 36.8203 83.9372 34.3551C83.9372 34.3551 83.905 33.9274 83.5704 33.5294C83.5704 33.5294 82.0615 31.7295 81.7786 31.177C81.7786 31.177 81.1444 30.3831 80.4715 31.4261C80.4715 31.4261 80.3778 31.737 80.2762 31.9705C79.946 32.6273 79.6127 33.2825 79.2762 33.936C79.2762 33.936 79.1121 34.2098 79.118 34.4551C79.118 34.4551 79.8136 34.6192 80.5107 33.2738C80.5107 33.2738 80.7711 32.8048 80.9728 32.8242C80.9728 32.8242 81.0874 32.8403 81.2364 33.1001C81.2364 33.1001 82.2154 34.1722 82.4628 34.369C83.1315 34.8914 83.078 36.3509 83.0537 37.0138ZM69.2424 21.0287C69.0353 21.3891 68.9503 21.7673 69.1564 22.1379C69.1564 22.1379 70.4016 23.6091 70.5673 26.7059C70.5673 26.7059 71.7577 23.3412 70.1456 21.0938C70.1456 21.0938 69.7093 20.3133 69.2424 21.0287ZM154.723 37.49C156.009 34.9753 155.714 32.1216 155.714 32.1216C157.674 32.4627 159.873 32.6563 161.774 31.9984C166.724 30.0227 164.696 24.9039 164.696 24.9039C163.788 21.9797 161.78 21.1013 161.78 21.1013C160.638 20.6726 159.788 19.4946 159.788 19.4946C159.182 18.1175 160.917 17.8609 160.917 17.8609C167.575 17.9604 165.878 11.9868 165.878 11.9868C164.359 13.8835 160.603 14.6092 160.603 14.6092C157.609 14.6651 157.126 16.7792 157.126 16.7792C156.209 18.9669 158.208 20.3741 158.208 20.3741C160.67 22.1938 162.112 23.9356 162.112 23.9356C164.387 27.3476 162.398 29.2319 162.398 29.2319C158.556 32.8763 152.113 27.2567 152.113 27.2567C149.56 24.2503 145.641 24.6516 145.641 24.6516C143.236 24.3632 142.022 23.1777 142.022 23.1777C139.407 19.6855 135.856 20.1142 135.856 20.1142C134.24 19.9184 134.093 19.4042 134.093 19.4042C132.384 16.6205 128.375 16.1536 128.375 16.1536C126.422 15.6614 124.085 14.0718 124.085 14.0718C120.701 11.3677 116.018 14.7388 116.018 14.7388C115.138 15.6786 113.936 16.5527 113.936 16.5527C111.281 18.4155 110.062 19.8431 110.062 19.8431C109.137 20.785 107.893 22.3229 107.893 22.3229C106.253 23.7355 105.202 25.7629 105.202 25.7629C103.632 27.658 103.8 30.0926 103.8 30.0926C103.803 30.6074 103.296 32.4713 103.296 32.4713C103.168 32.9672 102.689 35.0893 102.689 35.0893C101.748 36.3593 101.669 38.6191 101.669 38.6191C99.6514 40.1151 99.0517 42.1258 99.0517 42.1258C98.0813 43.6115 96.0173 44.4082 96.0173 44.4082C98.6466 45.335 100.473 42.5771 100.473 42.5771C101.004 41.2867 102.472 39.8768 102.472 39.8768C103.049 39.2985 103.312 39.4959 103.312 39.4959C103.769 39.6643 103.296 40.3114 103.296 40.3114C101.749 42.2619 101.648 43.6664 101.648 43.6664C100.883 45.3205 97.9279 46.5351 97.9279 46.5351C101.64 47.3458 103.934 44.2689 103.934 44.2689C104.257 43.533 105.213 44.2909 105.213 44.2909C106.469 45.6793 108.354 45.4652 108.354 45.4652C108.971 45.342 109.454 45.3953 109.454 45.3953C110.198 45.3576 111.706 45.8966 111.706 45.8966C112.102 46.0365 113.285 46.3619 113.285 46.3619C114.067 46.632 114.365 46.633 114.365 46.633C114.656 46.5459 114.816 46.6755 114.816 46.6755C115.42 46.8439 115.802 46.3135 115.802 46.3135C116.103 45.9456 116.26 44.8009 116.26 44.8009C116.197 43.809 115.348 43.0699 115.348 43.0699C115.021 42.7035 115.109 42.6621 115.109 42.6621C115.408 42.2673 116.254 42.6594 116.254 42.6594C116.879 42.8778 116.576 41.965 116.576 41.965C116.453 41.0166 115.039 40.0263 115.039 40.0263C114.582 39.7003 114.535 39.1436 114.535 39.1436C114.47 38.4443 113.72 37.3771 113.72 37.3771C113.364 36.9333 113.988 37.0845 113.988 37.0845C114.47 37.2168 116.957 37.5804 116.957 37.5804C117.784 38.1694 119.781 37.5804 119.781 37.5804C117.256 34.4777 118.839 31.4266 118.839 31.4266C118.828 32.78 119.635 34.9726 119.635 34.9726C120.221 36.8526 121.124 37.1259 121.124 37.1259C121.46 37.3561 123.337 37.78 123.337 37.78C124.091 38.0672 123.624 38.681 123.624 38.681C123.4 38.8257 122.983 39.6692 122.983 39.6692C122.79 40.2996 121.453 42.4088 121.453 42.4088C120.884 42.8805 121.016 43.6863 121.016 43.6863C120.972 44.4598 121.658 45.9063 121.658 45.9063C121.828 46.313 121.601 46.25 121.601 46.25C121.473 46.2377 120.952 45.9289 120.952 45.9289C120.649 45.7498 120.279 44.9429 120.279 44.9429C120.164 44.7229 119.881 44.27 119.881 44.27C119.657 44.0322 119.601 43.462 119.601 43.462C119.559 42.6487 120.395 41.3695 120.395 41.3695C121.014 40.4905 121.859 38.3335 121.859 38.3335L120.631 38.2437C120.223 38.4809 119.851 39.0575 119.851 39.0575L118.931 41.2167C118.855 41.5895 118.368 42.1043 118.368 42.1043C117.852 42.7256 117.969 43.3367 117.969 43.3367C117.929 43.9537 118.213 44.4448 118.213 44.4448L119.502 46.4388C120.016 47.4232 121.262 47.1258 121.262 47.1258C121.975 46.8837 122.875 47.3872 122.875 47.3872C123.598 47.9283 127.757 49.4549 127.757 49.4549C128.618 49.9385 129.537 49.6319 129.537 49.6319C130.519 49.2979 131.098 48.2527 131.098 48.2527C131.732 46.1623 132.856 46.7191 132.856 46.7191C133.667 46.8434 133.768 46.2586 133.768 46.2586C134.122 45.5744 134.983 44.4281 134.983 44.4281C135.616 43.7396 134.758 43.5196 134.758 43.5196L132.238 43.3152C130.897 43.2135 129.358 46.5109 129.358 46.5109C128.973 47.4028 127.779 47.0257 127.779 47.0257C124.584 45.8907 124.214 45.4717 124.214 45.4717C124.175 42.4158 126.584 41.5384 126.584 41.5384C129.282 40.5599 130.269 37.2991 130.269 37.2991C130.69 36.7375 131.058 37.6105 131.058 37.6105C131.189 38.83 130.522 39.8499 130.522 39.8499C133.088 40.1775 136.074 39.469 136.074 39.469C138.015 39.1366 140.403 39.7073 140.403 39.7073C141.979 39.9548 142.831 39.2856 142.831 39.2856C144.296 38.4115 143.516 33.8978 143.516 33.8978C143.43 33.0646 143.868 33.1991 143.868 33.1991C145.004 34.2195 144.746 38.5282 144.746 38.5282C147.127 43.582 152.26 43.4313 152.26 43.4313C153.302 43.2624 154.549 43.5276 154.549 43.5276C158.36 44.2291 160.095 47.1892 160.095 47.1892C159.483 47.4372 159.054 46.817 159.054 46.817C155.912 43.4243 152.335 44.2345 152.335 44.2345C149.845 44.6374 148.603 44.1414 148.603 44.1414C146.333 43.4642 144.998 41.2178 144.998 41.2178L143.524 41.2345C143.92 41.6939 144.465 43.0726 144.465 43.0726C144.556 44.0526 145.452 44.3157 145.452 44.3157C146.183 44.5685 148.133 45.5879 148.133 45.5879C149.098 46.3011 152.189 45.675 152.189 45.675C154.935 45.2382 156.878 47.3614 156.878 47.3614C158.293 48.8234 160.296 48.1532 160.296 48.1532C161.293 47.8068 162.638 50.1096 162.638 50.1096C163.334 51.392 164.89 50.8691 164.89 50.8691C165.524 50.64 166.496 50.7675 166.496 50.7675C166.506 50.1381 166.3 49.3172 166.3 49.3172C165.923 48.0483 165.353 47.8675 165.353 47.8675C164.59 47.8358 164.207 47.1161 164.207 47.1161C163.85 46.0903 162.667 45.8192 162.667 45.8192C161.183 45.1591 160.285 43.0989 160.285 43.0989C159.844 42.249 159.491 41.2178 159.491 41.2178C159.086 40.6815 157.873 40.9822 157.873 40.9822C156.994 41.0489 156.73 40.852 156.73 40.852L154.76 39.7073C153.771 38.8402 154.723 37.49 154.723 37.49ZM164.231 43.9149C164.579 43.8332 164.972 43.9596 165.241 44.1839C165.241 44.1839 166.212 45.023 166.73 45.2339C166.73 45.2339 167.623 45.561 166.938 46.2371C166.938 46.2371 166.206 47.0628 165.279 46.3694C165.279 46.3694 164.239 45.363 163.919 44.7665C163.919 44.7665 163.442 44.0844 164.231 43.9149ZM167.091 48.0155C166.938 47.5959 167.225 47.3834 167.225 47.3834C167.405 47.1677 167.601 46.966 167.849 46.8272C169.099 46.3162 169.074 48.2452 169.074 48.2452C169.145 49.0117 169.421 49.4307 169.421 49.4307C169.686 49.8799 169.643 50.1897 169.643 50.1897C169.419 50.9923 167.792 50.7018 167.792 50.7018C167.825 50.0267 167.091 48.0155 167.091 48.0155ZM110.234 42.8746C110.27 43.1898 110.196 43.2947 109.91 43.3017C109.91 43.3017 108.955 43.2813 108.733 43.2049C108.733 43.2049 107.621 43.0279 107.862 41.6213C107.862 41.6213 108.022 40.8327 109.34 41.6202C109.34 41.6202 110.042 41.9983 110.234 42.8746ZM105.935 37.0157L105.935 37.0199C105.935 37.0199 104.702 36.8203 105.05 34.3551C105.091 34.0501 105.219 33.7635 105.418 33.5294C105.418 33.5294 106.927 31.7295 107.21 31.177C107.21 31.177 107.843 30.3831 108.516 31.4261C108.573 31.6106 108.638 31.7922 108.712 31.9705C109.041 32.6273 109.375 33.2825 109.711 33.936C109.711 33.936 109.876 34.2098 109.871 34.4551C109.871 34.4551 109.174 34.6192 108.478 33.2738C108.478 33.2738 108.216 32.8048 108.016 32.8242C108.016 32.8242 107.901 32.8403 107.752 33.1001C107.752 33.1001 106.774 34.1722 106.525 34.369C105.855 34.8919 105.91 36.3536 105.935 37.0157ZM119.745 21.0287C119.952 21.3891 120.037 21.7673 119.831 22.1379C119.831 22.1379 118.586 23.6091 118.421 26.7059C118.421 26.7059 117.231 23.3412 118.843 21.0938C118.843 21.0938 119.278 20.3133 119.745 21.0287Z" fill="#FFC801"/>
<path d="M33.2733 32.1216C33.2733 32.1216 32.9785 34.9753 34.2641 37.49C34.2641 37.49 35.2168 38.8402 34.2276 39.7073L32.2582 40.852C32.2582 40.852 31.9936 41.0489 31.1152 40.9822C31.1152 40.9822 29.9011 40.6815 29.4955 41.2178C29.4955 41.2178 29.1432 42.249 28.7021 43.0989C28.7021 43.0989 27.8054 45.1591 26.3212 45.8191C26.3212 45.8191 25.1384 46.0902 24.7796 47.116C24.7796 47.116 24.3982 47.8358 23.6344 47.8675C23.6344 47.8675 23.0647 48.0483 22.6876 49.3172C22.6876 49.3172 22.4821 50.1381 22.4929 50.7674C22.4929 50.7674 23.4644 50.6399 24.0975 50.8691C24.0975 50.8691 25.6542 51.3919 26.3503 50.1096C26.3503 50.1096 27.6951 47.8067 28.6924 48.1531C28.6924 48.1531 30.6956 48.8234 32.1103 47.3613C32.1103 47.3613 34.0538 45.2382 36.7988 45.675C36.7988 45.675 39.8908 46.3011 40.8552 45.5878C40.8552 45.5878 42.8052 44.5685 43.5368 44.3157C43.5368 44.3157 44.4318 44.0526 44.5244 43.0725C44.5244 43.0725 45.0687 41.6938 45.4646 41.2345L43.9897 41.2178C43.9897 41.2178 42.654 43.4641 40.3846 44.1414C40.3846 44.1414 39.1436 44.6373 36.6525 44.2344C36.6525 44.2344 33.0759 43.4243 29.9344 46.817C29.9344 46.817 29.5052 47.4372 28.8925 47.1892C28.8925 47.1892 30.6284 44.229 34.4395 43.5276C34.4395 43.5276 35.6869 43.2624 36.7273 43.4313C36.7273 43.4313 41.8606 43.5819 44.2409 38.5282C44.2409 38.5282 43.9832 34.2195 45.1198 33.199C45.1198 33.199 45.5588 33.0646 45.4711 33.8978C45.4711 33.8978 44.69 38.4115 46.1569 39.2856C46.1569 39.2856 47.0085 39.9548 48.584 39.7073C48.584 39.7073 50.9724 39.1366 52.9137 39.469C52.9137 39.469 55.8992 40.1775 58.4645 39.8499C58.4645 39.8499 57.7986 38.83 57.9293 37.6105C57.9293 37.6105 58.2967 36.7375 58.7179 37.2991C58.7179 37.2991 59.7049 40.5599 62.4026 41.5384C62.4026 41.5384 64.8119 42.4157 64.7727 45.4716C64.7727 45.4716 64.4036 45.8907 61.209 47.0257C61.209 47.0257 60.0153 47.4028 59.6307 46.5109C59.6307 46.5109 58.0901 43.2135 56.7491 43.3151L54.2311 43.5195C54.2311 43.5195 53.372 43.7395 54.0046 44.4281C54.0046 44.4281 54.8669 45.5744 55.2192 46.2586C55.2192 46.2586 55.322 46.8433 56.1321 46.7191C56.1321 46.7191 57.2558 46.1623 57.8895 48.2527C57.8895 48.2527 58.4693 49.2978 59.451 49.6319C59.451 49.6319 60.3693 49.9385 61.231 49.4549C61.231 49.4549 65.3896 47.9283 66.1137 47.3872C66.1137 47.3872 67.0131 46.8837 67.7264 47.1257C67.7264 47.1257 68.9738 47.4232 69.4875 46.4388L70.7763 44.4447C70.7763 44.4447 71.0593 43.9536 71.02 43.3366C71.02 43.3366 71.1367 42.7256 70.6214 42.1043C70.6214 42.1043 70.1346 41.5895 70.0577 41.2167L69.1389 39.0575C69.1389 39.0575 68.7667 38.4809 68.3579 38.2436L67.1314 38.3335C67.1314 38.3335 67.9754 40.4905 68.5935 41.3695C68.5935 41.3695 69.4299 42.6486 69.3874 43.462C69.3874 43.462 69.332 44.0322 69.1072 44.2699C69.1072 44.2699 68.8242 44.7229 68.7102 44.9429C68.7102 44.9429 68.3385 45.7497 68.0367 45.9289C68.0367 45.9289 67.515 46.2376 67.388 46.25C67.388 46.25 67.161 46.3129 67.3294 45.9063C67.3294 45.9063 68.0168 44.4598 67.9716 43.6863C67.9716 43.6863 68.105 42.8805 67.5349 42.4087C67.5349 42.4087 66.1987 40.2996 66.0072 39.6691C66.0072 39.6691 65.5881 38.8257 65.3649 38.681C65.3649 38.681 64.898 38.0672 65.6516 37.78C65.6516 37.78 67.5289 37.3561 67.8651 37.1258C67.8651 37.1258 68.7678 36.8526 69.3541 34.9726C69.3541 34.9726 70.1615 32.78 70.1497 31.4266C70.1497 31.4266 71.7322 34.4777 69.2083 37.5804C69.2083 37.5804 71.2056 38.1694 72.0318 37.5804C72.0318 37.5804 74.5197 37.2168 75.0001 37.0844C75.0001 37.0844 75.6257 36.9333 75.2685 37.3771C75.2685 37.3771 74.5181 38.4443 74.4546 39.1436C74.4546 39.1436 74.4062 39.7003 73.9501 40.0263C73.9501 40.0263 72.5359 41.0166 72.4116 41.965C72.4116 41.965 72.1093 42.8778 72.7338 42.6594C72.7338 42.6594 73.5805 42.2673 73.8796 42.6621C73.8796 42.6621 73.9673 42.7035 73.6408 43.0698C73.6408 43.0698 72.7914 43.8089 72.7279 44.8008C72.7279 44.8008 72.885 45.9455 73.1851 46.3135C73.1851 46.3135 73.5676 46.8439 74.1722 46.6755C74.1722 46.6755 74.3325 46.5459 74.6219 46.633C74.6219 46.633 74.921 46.6319 75.7021 46.3619C75.7021 46.3619 76.886 46.0364 77.2819 45.8966C77.2819 45.8966 78.7892 45.3576 79.5326 45.3952C79.5326 45.3952 80.0162 45.342 80.6326 45.4652C80.6326 45.4652 82.5175 45.6793 83.7735 44.2909C83.7735 44.2909 84.7294 43.533 85.0537 44.2688C85.0537 44.2688 87.3469 47.3457 91.0585 46.5351C91.0585 46.5351 88.1053 45.3205 87.3394 43.6664C87.3394 43.6664 87.2372 42.2619 85.6901 40.3114C85.6901 40.3114 85.2173 39.6643 85.6734 39.4959C85.6734 39.4959 85.9375 39.2985 86.5137 39.8768C86.5137 39.8768 87.9832 41.2866 88.5142 42.5771C88.5142 42.5771 90.3393 45.335 92.9697 44.4082C92.9697 44.4082 90.9047 43.6115 89.9343 42.1258C89.9343 42.1258 89.3345 40.1151 87.3184 38.6191C87.3184 38.6191 87.2393 36.3593 86.299 35.0893C86.299 35.0893 85.8197 32.9672 85.6906 32.4712C85.6906 32.4712 85.1834 30.6074 85.1866 30.0926C85.1866 30.0926 85.3544 27.658 83.7848 25.7629C83.7848 25.7629 82.7332 23.7355 81.0952 22.3229C81.0952 22.3229 79.8505 20.785 78.9247 19.8431C78.9247 19.8431 77.7069 18.4155 75.0517 16.5527C75.0517 16.5527 73.8495 15.6785 72.9689 14.7388C72.9689 14.7388 68.2852 11.3677 64.9017 14.0718C64.9017 14.0718 62.565 15.6613 60.6135 16.1535C60.6135 16.1535 56.6028 16.6204 54.8927 19.4042C54.8927 19.4042 54.7464 19.9184 53.13 20.1142C53.13 20.1142 49.5792 19.6855 46.9649 23.1776C46.9649 23.1776 45.7503 24.3632 43.3458 24.6515C43.3458 24.6515 39.4244 24.2503 36.8714 27.2567C36.8714 27.2567 30.4293 32.8763 26.5881 29.2319C26.5881 29.2319 24.5978 27.3476 26.8732 23.9356C26.8732 23.9356 28.3164 22.1938 30.7784 20.374C30.7784 20.374 32.7757 18.9668 31.8602 16.7791C31.8602 16.7791 31.3766 14.6651 28.3831 14.6092C28.3831 14.6092 24.6268 13.8835 23.1077 11.9868C23.1077 11.9868 21.4117 17.9604 28.0684 17.8609C28.0684 17.8609 29.8032 18.1175 29.1975 19.4945C29.1975 19.4945 28.347 20.6726 27.2056 21.1013C27.2056 21.1013 25.1975 21.9797 24.2901 24.9038C24.2901 24.9038 22.2621 30.0226 27.2099 31.9984C29.1141 32.6563 31.3137 32.4626 33.2733 32.1216ZM23.7473 44.1839C24.0157 43.9595 24.409 43.8331 24.7581 43.9149C25.5456 44.0843 25.069 44.7664 25.069 44.7664C24.75 45.363 23.7091 46.3694 23.7091 46.3694C22.7834 47.0628 22.0502 46.2371 22.0502 46.2371C21.3643 45.5609 22.2567 45.2339 22.2567 45.2339C22.7758 45.023 23.7473 44.1839 23.7473 44.1839ZM21.7624 47.3834C21.7624 47.3834 22.0502 47.5959 21.8963 48.0154C21.8963 48.0154 21.1615 50.0267 21.196 50.7018C21.196 50.7018 19.5698 50.9923 19.3445 50.1897C19.3445 50.1897 19.3009 49.8799 19.5661 49.4307C19.5661 49.4307 19.842 49.0117 19.9136 48.2451C19.9136 48.2451 19.8894 46.3162 21.139 46.8272C21.3869 46.966 21.5827 47.1677 21.7624 47.3834ZM79.0775 43.3017C78.7913 43.2947 78.7187 43.1898 78.7531 42.8746C78.9452 41.9983 79.6477 41.6201 79.6477 41.6201C80.9656 40.8326 81.1259 41.6212 81.1259 41.6212C81.3674 43.0279 80.2555 43.2048 80.2555 43.2048C80.0334 43.2812 79.0775 43.3017 79.0775 43.3017ZM83.0532 37.0199C83.0774 36.3599 83.1334 34.893 82.4626 34.369C82.2152 34.1721 81.2361 33.1001 81.2361 33.1001C81.0871 32.8403 80.9726 32.8241 80.9726 32.8241C80.7708 32.8048 80.5105 33.2738 80.5105 33.2738C79.8134 34.6191 79.1178 34.4551 79.1178 34.4551C79.1119 34.2098 79.276 33.936 79.276 33.936C79.6125 33.2824 79.9458 32.6272 80.276 31.9704C80.3776 31.737 80.4712 31.4261 80.4712 31.4261C81.1442 30.3831 81.7784 31.177 81.7784 31.177C82.0613 31.7295 83.5702 33.5293 83.5702 33.5293C83.9048 33.9274 83.937 34.355 83.937 34.355C84.2867 36.8203 83.0532 37.0199 83.0532 37.0199ZM69.1561 22.1379C68.9501 21.7672 69.0351 21.3891 69.2422 21.0287C69.7091 20.3132 70.1454 21.0938 70.1454 21.0938C71.7575 23.3412 70.5671 26.7058 70.5671 26.7058C70.4014 23.6091 69.1561 22.1379 69.1561 22.1379ZM155.714 32.1216C155.714 32.1216 156.009 34.9753 154.723 37.49C154.723 37.49 153.771 38.8402 154.76 39.7073L156.73 40.852C156.73 40.852 156.994 41.0489 157.873 40.9822C157.873 40.9822 159.086 40.6815 159.491 41.2178C159.491 41.2178 159.844 42.249 160.285 43.0989C160.285 43.0989 161.183 45.1591 162.667 45.8191C162.667 45.8191 163.849 46.0902 164.207 47.116C164.207 47.116 164.59 47.8358 165.352 47.8675C165.352 47.8675 165.923 48.0483 166.3 49.3172C166.3 49.3172 166.506 50.1381 166.495 50.7674C166.495 50.7674 165.523 50.6399 164.89 50.8691C164.89 50.8691 163.334 51.3919 162.638 50.1096C162.638 50.1096 161.293 47.8067 160.295 48.1531C160.295 48.1531 158.293 48.8234 156.878 47.3613C156.878 47.3613 154.935 45.2382 152.189 45.675C152.189 45.675 149.098 46.3011 148.133 45.5878C148.133 45.5878 146.183 44.5685 145.452 44.3157C145.452 44.3157 144.556 44.0526 144.465 43.0725C144.465 43.0725 143.92 41.6938 143.524 41.2345L144.998 41.2178C144.998 41.2178 146.333 43.4641 148.603 44.1414C148.603 44.1414 149.845 44.6373 152.335 44.2344C152.335 44.2344 155.912 43.4243 159.053 46.817C159.053 46.817 159.483 47.4372 160.095 47.1892C160.095 47.1892 158.36 44.229 154.548 43.5276C154.548 43.5276 153.301 43.2624 152.26 43.4313C152.26 43.4313 147.127 43.5819 144.745 38.5282C144.745 38.5282 145.004 34.2195 143.867 33.199C143.867 33.199 143.43 33.0646 143.516 33.8978C143.516 33.8978 144.296 38.4115 142.83 39.2856C142.83 39.2856 141.978 39.9548 140.403 39.7073C140.403 39.7073 138.015 39.1366 136.074 39.469C136.074 39.469 133.088 40.1775 130.522 39.8499C130.522 39.8499 131.189 38.83 131.058 37.6105C131.058 37.6105 130.69 36.7375 130.269 37.2991C130.269 37.2991 129.282 40.5599 126.584 41.5384C126.584 41.5384 124.174 42.4157 124.214 45.4716C124.214 45.4716 124.584 45.8907 127.779 47.0257C127.779 47.0257 128.973 47.4028 129.358 46.5109C129.358 46.5109 130.897 43.2135 132.238 43.3151L134.757 43.5195C134.757 43.5195 135.616 43.7395 134.983 44.4281C134.983 44.4281 134.121 45.5744 133.768 46.2586C133.768 46.2586 133.666 46.8433 132.856 46.7191C132.856 46.7191 131.732 46.1623 131.097 48.2527C131.097 48.2527 130.519 49.2978 129.537 49.6319C129.537 49.6319 128.618 49.9385 127.757 49.4549C127.757 49.4549 123.598 47.9283 122.875 47.3872C122.875 47.3872 121.975 46.8837 121.262 47.1257C121.262 47.1257 120.016 47.4232 119.502 46.4388L118.213 44.4447C118.213 44.4447 117.929 43.9536 117.969 43.3366C117.969 43.3366 117.852 42.7256 118.368 42.1043C118.368 42.1043 118.855 41.5895 118.931 41.2167L119.851 39.0575C119.851 39.0575 120.223 38.4809 120.631 38.2436L121.859 38.3335C121.859 38.3335 121.014 40.4905 120.395 41.3695C120.395 41.3695 119.558 42.6486 119.601 43.462C119.601 43.462 119.657 44.0322 119.881 44.2699C119.881 44.2699 120.164 44.7229 120.279 44.9429C120.279 44.9429 120.649 45.7497 120.952 45.9289C120.952 45.9289 121.473 46.2376 121.6 46.25C121.6 46.25 121.828 46.3129 121.657 45.9063C121.657 45.9063 120.972 44.4598 121.016 43.6863C121.016 43.6863 120.883 42.8805 121.452 42.4087C121.452 42.4087 122.79 40.2996 122.982 39.6691C122.982 39.6691 123.4 38.8257 123.623 38.681C123.623 38.681 124.09 38.0672 123.337 37.78C123.337 37.78 121.46 37.3561 121.124 37.1258C121.124 37.1258 120.221 36.8526 119.634 34.9726C119.634 34.9726 118.827 32.78 118.839 31.4266C118.839 31.4266 117.256 34.4777 119.781 37.5804C119.781 37.5804 117.783 38.1694 116.957 37.5804C116.957 37.5804 114.47 37.2168 113.988 37.0844C113.988 37.0844 113.364 36.9333 113.72 37.3771C113.72 37.3771 114.47 38.4443 114.534 39.1436C114.534 39.1436 114.582 39.7003 115.039 40.0263C115.039 40.0263 116.453 41.0166 116.576 41.965C116.576 41.965 116.879 42.8778 116.254 42.6594C116.254 42.6594 115.408 42.2673 115.109 42.6621C115.109 42.6621 115.021 42.7035 115.348 43.0698C115.348 43.0698 116.197 43.8089 116.26 44.8008C116.26 44.8008 116.103 45.9455 115.802 46.3135C115.802 46.3135 115.42 46.8439 114.816 46.6755C114.816 46.6755 114.656 46.5459 114.365 46.633C114.365 46.633 114.066 46.6319 113.285 46.3619C113.285 46.3619 112.101 46.0364 111.705 45.8966C111.705 45.8966 110.198 45.3576 109.454 45.3952C109.454 45.3952 108.971 45.342 108.354 45.4652C108.354 45.4652 106.469 45.6793 105.213 44.2909C105.213 44.2909 104.257 43.533 103.934 44.2688C103.934 44.2688 101.64 47.3457 97.9277 46.5351C97.9277 46.5351 100.882 45.3205 101.648 43.6664C101.648 43.6664 101.749 42.2619 103.296 40.3114C103.296 40.3114 103.768 39.6643 103.312 39.4959C103.312 39.4959 103.049 39.2985 102.472 39.8768C102.472 39.8768 101.004 41.2866 100.473 42.5771C100.473 42.5771 98.6464 45.335 96.017 44.4082C96.017 44.4082 98.081 43.6115 99.0514 42.1258C99.0514 42.1258 99.6512 40.1151 101.669 38.6191C101.669 38.6191 101.747 36.3593 102.688 35.0893C102.688 35.0893 103.168 32.9672 103.296 32.4712C103.296 32.4712 103.803 30.6074 103.8 30.0926C103.8 30.0926 103.632 27.658 105.202 25.7629C105.202 25.7629 106.253 23.7355 107.893 22.3229C107.893 22.3229 109.137 20.785 110.062 19.8431C110.062 19.8431 111.28 18.4155 113.936 16.5527C113.936 16.5527 115.137 15.6785 116.017 14.7388C116.017 14.7388 120.7 11.3677 124.085 14.0718C124.085 14.0718 126.422 15.6613 128.374 16.1535C128.374 16.1535 132.384 16.6204 134.093 19.4042C134.093 19.4042 134.239 19.9184 135.856 20.1142C135.856 20.1142 139.407 19.6855 142.021 23.1776C142.021 23.1776 143.236 24.3632 145.641 24.6515C145.641 24.6515 149.56 24.2503 152.113 27.2567C152.113 27.2567 158.556 32.8763 162.398 29.2319C162.398 29.2319 164.387 27.3476 162.112 23.9356C162.112 23.9356 160.669 22.1938 158.208 20.374C158.208 20.374 156.209 18.9668 157.126 16.7791C157.126 16.7791 157.609 14.6651 160.603 14.6092C160.603 14.6092 164.359 13.8835 165.877 11.9868C165.877 11.9868 167.575 17.9604 160.917 17.8609C160.917 17.8609 159.181 18.1175 159.788 19.4945C159.788 19.4945 160.638 20.6726 161.78 21.1013C161.78 21.1013 163.788 21.9797 164.696 24.9038C164.696 24.9038 166.724 30.0226 161.774 31.9984C159.873 32.6563 157.674 32.4626 155.714 32.1216ZM165.241 44.1839C164.972 43.9595 164.578 43.8331 164.23 43.9149C163.442 44.0843 163.919 44.7664 163.919 44.7664C164.238 45.363 165.279 46.3694 165.279 46.3694C166.206 47.0628 166.938 46.2371 166.938 46.2371C167.623 45.5609 166.73 45.2339 166.73 45.2339C166.212 45.023 165.241 44.1839 165.241 44.1839ZM167.224 47.3834C167.224 47.3834 166.938 47.5959 167.09 48.0154C167.09 48.0154 167.825 50.0267 167.791 50.7018C167.791 50.7018 169.419 50.9923 169.642 50.1897C169.642 50.1897 169.686 49.8799 169.421 49.4307C169.421 49.4307 169.145 49.0117 169.074 48.2451C169.074 48.2451 169.098 46.3162 167.849 46.8272C167.6 46.966 167.405 47.1677 167.224 47.3834ZM109.909 43.3017C110.196 43.2947 110.27 43.1898 110.234 42.8746C110.042 41.9983 109.34 41.6201 109.34 41.6201C108.022 40.8326 107.861 41.6212 107.861 41.6212C107.621 43.0279 108.732 43.2048 108.732 43.2048C108.954 43.2812 109.909 43.3017 109.909 43.3017ZM105.935 37.0199C105.91 36.3599 105.853 34.893 106.525 34.369C106.774 34.1721 107.752 33.1001 107.752 33.1001C107.901 32.8403 108.015 32.8241 108.015 32.8241C108.216 32.8048 108.478 33.2738 108.478 33.2738C109.174 34.6191 109.871 34.4551 109.871 34.4551C109.876 34.2098 109.711 33.936 109.711 33.936C109.374 33.2825 109.041 32.6273 108.711 31.9704C108.638 31.7922 108.572 31.6105 108.516 31.4261C107.843 30.3831 107.209 31.177 107.209 31.177C106.927 31.7295 105.418 33.5293 105.418 33.5293C105.219 33.7635 105.091 34.0501 105.05 34.355C104.702 36.8203 105.935 37.0199 105.935 37.0199ZM119.831 22.1379C120.037 21.7672 119.952 21.3891 119.745 21.0287C119.278 20.3132 118.843 21.0938 118.843 21.0938C117.23 23.3412 118.421 26.7058 118.421 26.7058C118.585 23.6091 119.831 22.1379 119.831 22.1379Z" fill="#FF0C48"/>
<path d="M0.879395 68.7105V109.937H9.19829V76.5787H13.1176C13.1176 76.5787 19.2358 76.3032 19.2358 81.8728C19.2358 87.4424 13.8039 87.3037 13.8039 87.3037H11.8099V96.7931L20.1304 109.938H29.892L18.2735 93.0814C18.2735 93.0814 27.8301 92.2563 27.8301 81.8739C27.8301 71.4932 20.6107 68.7122 10.9863 68.7122L0.879395 68.7105ZM122.506 87.9938C122.506 87.9938 126.149 85.1601 126.149 79.79C126.149 74.4173 122.246 69.5739 113.938 69.5739H100.023V109.938H117.162C117.162 109.938 129.446 109.798 129.446 98.6973C129.447 92.253 126.945 89.7851 122.506 87.9938ZM115.802 102.912H108.343V76.612H112.329C112.329 76.612 117.747 76.2053 117.747 80.932C117.747 85.6587 113.438 85.2418 113.438 85.2418H110.955V92.3273H115.8C117.07 92.3273 121.116 92.9432 121.116 97.5994C121.116 102.255 115.802 102.912 115.802 102.912ZM174.965 67.8999H182.734V109.938H174.965V67.8999ZM161.593 67.8999H169.465V109.938H161.593V67.8999ZM131.788 85.3118H139.762V99.4052C139.762 99.4052 140.04 104.151 144.507 104.151C148.975 104.151 148.908 99.4052 148.908 99.4052V85.3785H156.951V99.8882C156.951 99.8882 157.983 111.232 144.713 111.232C131.444 111.232 131.788 101.263 131.788 99.4757V85.3118ZM78.9167 67.8999V86.9626C78.9167 86.9626 75.0663 84.0068 70.6634 84.0068C66.2649 84.0068 58.8395 87.1003 58.8395 96.8624C58.8395 106.625 65.1654 110.34 70.5962 110.34C76.0286 110.34 79.0539 106.764 79.0539 106.764V109.939H86.8902V67.9004L78.9167 67.8999ZM72.8651 103.462C72.452 103.462 67.2955 103.531 67.2955 97.2062C67.2955 90.8797 72.9329 90.6737 72.9329 90.6737C72.9329 90.6737 79.2593 90.8797 79.2593 97.0679C79.2593 103.256 73.2772 103.462 72.8651 103.462ZM43.1629 84.0057C56.5011 84.0057 55.9508 97.0007 55.9508 97.0007V99.062H37.8693C37.8693 102.017 40.3437 104.562 43.7132 104.562C47.0817 104.562 48.8008 101.331 48.8008 101.331L55.194 104.493C52.2381 108.963 48.2506 110.749 43.7821 110.749C29.893 110.749 29.6182 99.1997 29.6182 97.7565C29.6182 96.3116 29.8258 84.0057 43.1629 84.0057ZM38.0059 94.317H47.9079C47.9079 94.317 47.4953 89.6436 43.0263 89.6436C38.5573 89.6431 38.0059 94.317 38.0059 94.317Z" fill="#FF0C48"/>
</svg>
