<svg width="393" height="376" viewBox="0 0 393 376" fill="none" xmlns="http://www.w3.org/2000/svg">
<rect width="393" height="300" fill="url(#paint0_linear_741_707)"/>
<path d="M157.484 260.012L145.529 269.31V279.937L175.416 301.19V271.967L157.484 260.012Z" fill="url(#paint1_linear_741_707)" fill-opacity="0.03"/>
<path d="M217.922 271.967V301.19L247.809 279.937V269.31L235.854 260.012L217.922 271.967Z" fill="url(#paint2_linear_741_707)" fill-opacity="0.03"/>
<path d="M180.065 337.055L193.348 348.345V356.979H199.99V348.345L213.273 337.055H180.065Z" fill="url(#paint3_linear_741_707)" fill-opacity="0.03"/>
<path d="M157.484 260.012L145.529 269.31V279.937L175.416 301.19V271.967L157.484 260.012Z" stroke="url(#paint4_linear_741_707)" stroke-opacity="0.4" strokeWidth="0.8"/>
<path d="M217.922 271.967V301.19L247.809 279.937V269.31L235.854 260.012L217.922 271.967Z" stroke="url(#paint5_linear_741_707)" stroke-opacity="0.4" strokeWidth="0.8"/>
<path d="M180.065 337.055L193.348 348.345V356.979H199.99V348.345L213.273 337.055H180.065Z" stroke="url(#paint6_linear_741_707)" stroke-opacity="0.4" strokeWidth="0.8"/>
<path d="M400.124 257.517V263.523L395.272 260.503L400.124 257.517Z" fill="url(#paint7_linear_741_707)"/>
<path d="M393.914 257.517V263.523L389.062 260.503L393.914 257.517Z" fill="url(#paint8_linear_741_707)"/>
<path d="M387.739 257.517V263.523L382.886 260.503L387.739 257.517Z" fill="url(#paint9_linear_741_707)"/>
<path d="M381.563 257.517V263.523L376.71 260.503L381.563 257.517Z" fill="url(#paint10_linear_741_707)"/>
<path d="M375.353 257.517V263.523L370.501 260.503L375.353 257.517Z" fill="url(#paint11_linear_741_707)"/>
<path d="M369.177 257.517V263.523L364.325 260.503L369.177 257.517Z" fill="url(#paint12_linear_741_707)"/>
<path d="M407.472 281.933C407.472 282.351 407.807 282.685 408.225 282.685C408.643 282.685 408.978 282.351 408.978 281.933C408.978 281.515 408.643 281.18 408.225 281.18C407.807 281.18 407.472 281.515 407.472 281.933Z" fill="url(#paint13_linear_741_707)"/>
<path d="M403.79 281.933C403.79 282.351 404.125 282.685 404.543 282.685C404.961 282.685 405.296 282.351 405.296 281.933C405.296 281.515 404.961 281.18 404.543 281.18C404.125 281.18 403.79 281.515 403.79 281.933Z" fill="url(#paint14_linear_741_707)"/>
<path d="M400.108 281.933C400.108 282.351 400.443 282.685 400.861 282.685C401.279 282.685 401.613 282.351 401.613 281.933C401.613 281.515 401.279 281.18 400.861 281.18C400.443 281.18 400.108 281.515 400.108 281.933Z" fill="url(#paint15_linear_741_707)"/>
<path d="M396.426 281.933C396.426 282.351 396.76 282.685 397.179 282.685C397.597 282.685 397.931 282.351 397.931 281.933C397.931 281.515 397.597 281.18 397.179 281.18C396.76 281.18 396.426 281.515 396.426 281.933Z" fill="url(#paint16_linear_741_707)"/>
<path d="M392.744 281.933C392.744 282.351 393.078 282.685 393.496 282.685C393.914 282.685 394.249 282.351 394.249 281.933C394.249 281.515 393.914 281.18 393.496 281.18C393.078 281.18 392.744 281.515 392.744 281.933Z" fill="url(#paint17_linear_741_707)"/>
<path d="M403.79 285.41C403.79 285.829 404.125 286.163 404.543 286.163C404.961 286.163 405.296 285.829 405.296 285.41C405.296 284.992 404.961 284.658 404.543 284.658C404.125 284.658 403.79 284.992 403.79 285.41Z" fill="url(#paint18_linear_741_707)"/>
<path d="M400.108 285.41C400.108 285.829 400.443 286.163 400.861 286.163C401.279 286.163 401.613 285.829 401.613 285.41C401.613 284.992 401.279 284.658 400.861 284.658C400.443 284.658 400.108 284.992 400.108 285.41Z" fill="url(#paint19_linear_741_707)"/>
<path d="M396.426 285.41C396.426 285.829 396.76 286.163 397.178 286.163C397.597 286.163 397.931 285.829 397.931 285.41C397.931 284.992 397.597 284.658 397.178 284.658C396.76 284.658 396.426 284.992 396.426 285.41Z" fill="url(#paint20_linear_741_707)"/>
<path d="M392.744 285.41C392.744 285.829 393.078 286.163 393.496 286.163C393.914 286.163 394.249 285.829 394.249 285.41C394.249 284.992 393.914 284.658 393.496 284.658C393.078 284.658 392.744 284.992 392.744 285.41Z" fill="url(#paint21_linear_741_707)"/>
<path d="M389.061 285.41C389.061 285.829 389.396 286.163 389.814 286.163C390.232 286.163 390.567 285.829 390.567 285.41C390.567 284.992 390.232 284.658 389.814 284.658C389.396 284.658 389.061 284.992 389.061 285.41Z" fill="url(#paint22_linear_741_707)"/>
<path d="M418.519 288.888C418.519 289.306 418.854 289.641 419.272 289.641C419.69 289.641 420.024 289.306 420.024 288.888C420.024 288.47 419.69 288.135 419.272 288.135C418.854 288.135 418.519 288.47 418.519 288.888Z" fill="url(#paint23_linear_741_707)"/>
<path d="M414.837 288.888C414.837 289.306 415.171 289.641 415.59 289.641C416.008 289.641 416.342 289.306 416.342 288.888C416.342 288.47 416.008 288.135 415.59 288.135C415.171 288.135 414.837 288.47 414.837 288.888Z" fill="url(#paint24_linear_741_707)"/>
<path d="M411.155 288.888C411.155 289.306 411.489 289.641 411.907 289.641C412.325 289.641 412.66 289.306 412.66 288.888C412.66 288.47 412.325 288.135 411.907 288.135C411.489 288.135 411.155 288.47 411.155 288.888Z" fill="url(#paint25_linear_741_707)"/>
<path d="M407.472 288.888C407.472 289.306 407.807 289.641 408.225 289.641C408.643 289.641 408.978 289.306 408.978 288.888C408.978 288.47 408.643 288.135 408.225 288.135C407.807 288.135 407.472 288.47 407.472 288.888Z" fill="url(#paint26_linear_741_707)"/>
<path d="M403.79 288.888C403.79 289.306 404.125 289.641 404.543 289.641C404.961 289.641 405.296 289.306 405.296 288.888C405.296 288.47 404.961 288.135 404.543 288.135C404.125 288.135 403.79 288.47 403.79 288.888Z" fill="url(#paint27_linear_741_707)"/>
<path d="M407.472 292.366C407.472 292.784 407.807 293.118 408.225 293.118C408.643 293.118 408.978 292.784 408.978 292.366C408.978 291.948 408.643 291.613 408.225 291.613C407.807 291.613 407.472 291.948 407.472 292.366Z" fill="url(#paint28_linear_741_707)"/>
<path d="M403.79 292.366C403.79 292.784 404.125 293.118 404.543 293.118C404.961 293.118 405.296 292.784 405.296 292.366C405.296 291.948 404.961 291.613 404.543 291.613C404.125 291.613 403.79 291.948 403.79 292.366Z" fill="url(#paint29_linear_741_707)"/>
<path d="M400.108 292.366C400.108 292.784 400.443 293.118 400.861 293.118C401.279 293.118 401.613 292.784 401.613 292.366C401.613 291.948 401.279 291.613 400.861 291.613C400.443 291.613 400.108 291.948 400.108 292.366Z" fill="url(#paint30_linear_741_707)"/>
<path d="M396.426 292.366C396.426 292.784 396.76 293.118 397.179 293.118C397.597 293.118 397.931 292.784 397.931 292.366C397.931 291.948 397.597 291.613 397.179 291.613C396.76 291.613 396.426 291.948 396.426 292.366Z" fill="url(#paint31_linear_741_707)"/>
<path d="M392.744 292.366C392.744 292.784 393.078 293.118 393.496 293.118C393.914 293.118 394.249 292.784 394.249 292.366C394.249 291.948 393.914 291.613 393.496 291.613C393.078 291.613 392.744 291.948 392.744 292.366Z" fill="url(#paint32_linear_741_707)"/>
<path d="M351.773 232.162C351.773 232.58 352.107 232.915 352.525 232.915C352.943 232.915 353.278 232.58 353.278 232.162C353.278 231.744 352.943 231.409 352.525 231.409C352.107 231.409 351.773 231.744 351.773 232.162Z" fill="url(#paint33_linear_741_707)"/>
<path d="M348.09 232.162C348.09 232.58 348.425 232.915 348.843 232.915C349.261 232.915 349.596 232.58 349.596 232.162C349.596 231.744 349.261 231.409 348.843 231.409C348.425 231.409 348.09 231.744 348.09 232.162Z" fill="url(#paint34_linear_741_707)"/>
<path d="M344.408 232.162C344.408 232.58 344.743 232.915 345.161 232.915C345.579 232.915 345.914 232.58 345.914 232.162C345.914 231.744 345.579 231.409 345.161 231.409C344.743 231.409 344.408 231.744 344.408 232.162Z" fill="url(#paint35_linear_741_707)"/>
<path d="M340.726 232.162C340.726 232.58 341.061 232.915 341.479 232.915C341.897 232.915 342.231 232.58 342.231 232.162C342.231 231.744 341.897 231.409 341.479 231.409C341.061 231.409 340.726 231.744 340.726 232.162Z" fill="url(#paint36_linear_741_707)"/>
<path d="M337.044 232.162C337.044 232.58 337.378 232.915 337.797 232.915C338.215 232.915 338.549 232.58 338.549 232.162C338.549 231.744 338.215 231.409 337.797 231.409C337.378 231.409 337.044 231.744 337.044 232.162Z" fill="url(#paint37_linear_741_707)"/>
<path d="M348.09 235.64C348.09 236.058 348.425 236.392 348.843 236.392C349.261 236.392 349.596 236.058 349.596 235.64C349.596 235.222 349.261 234.887 348.843 234.887C348.425 234.887 348.09 235.222 348.09 235.64Z" fill="url(#paint38_linear_741_707)"/>
<path d="M344.408 235.64C344.408 236.058 344.743 236.392 345.161 236.392C345.579 236.392 345.914 236.058 345.914 235.64C345.914 235.222 345.579 234.887 345.161 234.887C344.743 234.887 344.408 235.222 344.408 235.64Z" fill="url(#paint39_linear_741_707)"/>
<path d="M340.726 235.64C340.726 236.058 341.061 236.392 341.479 236.392C341.897 236.392 342.231 236.058 342.231 235.64C342.231 235.222 341.897 234.887 341.479 234.887C341.061 234.887 340.726 235.222 340.726 235.64Z" fill="url(#paint40_linear_741_707)"/>
<path d="M337.044 235.64C337.044 236.058 337.378 236.392 337.797 236.392C338.215 236.392 338.549 236.058 338.549 235.64C338.549 235.222 338.215 234.887 337.797 234.887C337.378 234.887 337.044 235.222 337.044 235.64Z" fill="url(#paint41_linear_741_707)"/>
<path d="M333.362 235.64C333.362 236.058 333.696 236.392 334.114 236.392C334.532 236.392 334.867 236.058 334.867 235.64C334.867 235.222 334.532 234.887 334.114 234.887C333.696 234.887 333.362 235.222 333.362 235.64Z" fill="url(#paint42_linear_741_707)"/>
<path d="M362.819 239.117C362.819 239.535 363.154 239.87 363.572 239.87C363.99 239.87 364.325 239.535 364.325 239.117C364.325 238.699 363.99 238.365 363.572 238.365C363.154 238.365 362.819 238.699 362.819 239.117Z" fill="url(#paint43_linear_741_707)"/>
<path d="M359.137 239.117C359.137 239.535 359.472 239.87 359.89 239.87C360.308 239.87 360.642 239.535 360.642 239.117C360.642 238.699 360.308 238.365 359.89 238.365C359.472 238.365 359.137 238.699 359.137 239.117Z" fill="url(#paint44_linear_741_707)"/>
<path d="M355.455 239.117C355.455 239.535 355.789 239.87 356.208 239.87C356.626 239.87 356.96 239.535 356.96 239.117C356.96 238.699 356.626 238.365 356.208 238.365C355.789 238.365 355.455 238.699 355.455 239.117Z" fill="url(#paint45_linear_741_707)"/>
<path d="M351.773 239.117C351.773 239.535 352.107 239.87 352.525 239.87C352.943 239.87 353.278 239.535 353.278 239.117C353.278 238.699 352.943 238.365 352.525 238.365C352.107 238.365 351.773 238.699 351.773 239.117Z" fill="url(#paint46_linear_741_707)"/>
<path d="M348.09 239.117C348.09 239.535 348.425 239.87 348.843 239.87C349.261 239.87 349.596 239.535 349.596 239.117C349.596 238.699 349.261 238.365 348.843 238.365C348.425 238.365 348.09 238.699 348.09 239.117Z" fill="url(#paint47_linear_741_707)"/>
<path d="M351.773 242.595C351.773 243.013 352.107 243.348 352.525 243.348C352.943 243.348 353.278 243.013 353.278 242.595C353.278 242.177 352.943 241.842 352.525 241.842C352.107 241.842 351.773 242.177 351.773 242.595Z" fill="url(#paint48_linear_741_707)"/>
<path d="M348.09 242.595C348.09 243.013 348.425 243.348 348.843 243.348C349.261 243.348 349.596 243.013 349.596 242.595C349.596 242.177 349.261 241.842 348.843 241.842C348.425 241.842 348.09 242.177 348.09 242.595Z" fill="url(#paint49_linear_741_707)"/>
<path d="M344.408 242.595C344.408 243.013 344.743 243.348 345.161 243.348C345.579 243.348 345.914 243.013 345.914 242.595C345.914 242.177 345.579 241.842 345.161 241.842C344.743 241.842 344.408 242.177 344.408 242.595Z" fill="url(#paint50_linear_741_707)"/>
<path d="M340.726 242.595C340.726 243.013 341.061 243.348 341.479 243.348C341.897 243.348 342.231 243.013 342.231 242.595C342.231 242.177 341.897 241.842 341.479 241.842C341.061 241.842 340.726 242.177 340.726 242.595Z" fill="url(#paint51_linear_741_707)"/>
<path d="M337.044 242.595C337.044 243.013 337.378 243.348 337.797 243.348C338.215 243.348 338.549 243.013 338.549 242.595C338.549 242.177 338.215 241.842 337.797 241.842C337.378 241.842 337.044 242.177 337.044 242.595Z" fill="url(#paint52_linear_741_707)"/>
<path d="M-13.0996 33.5169V39.523L-8.24724 36.503L-13.0996 33.5169Z" fill="url(#paint53_linear_741_707)"/>
<path d="M-6.88993 33.5169V39.523L-2.03753 36.503L-6.88993 33.5169Z" fill="url(#paint54_linear_741_707)"/>
<path d="M-0.714176 33.5169V39.523L4.13823 36.503L-0.714176 33.5169Z" fill="url(#paint55_linear_741_707)"/>
<path d="M5.46158 33.5169V39.523L10.314 36.503L5.46158 33.5169Z" fill="url(#paint56_linear_741_707)"/>
<path d="M11.6713 33.5169V39.523L16.5237 36.503L11.6713 33.5169Z" fill="url(#paint57_linear_741_707)"/>
<path d="M17.8474 33.5169V39.523L22.6998 36.503L17.8474 33.5169Z" fill="url(#paint58_linear_741_707)"/>
<path d="M-20.448 57.9327C-20.448 58.3509 -20.7826 58.6854 -21.2007 58.6854C-21.6188 58.6854 -21.9534 58.3509 -21.9534 57.9327C-21.9534 57.5146 -21.6188 57.1801 -21.2007 57.1801C-20.7826 57.1801 -20.448 57.5146 -20.448 57.9327Z" fill="url(#paint59_linear_741_707)"/>
<path d="M-16.7658 57.9327C-16.7658 58.3509 -17.1004 58.6854 -17.5185 58.6854C-17.9366 58.6854 -18.2712 58.3509 -18.2712 57.9327C-18.2712 57.5146 -17.9366 57.1801 -17.5185 57.1801C-17.1004 57.1801 -16.7658 57.5146 -16.7658 57.9327Z" fill="url(#paint60_linear_741_707)"/>
<path d="M-13.0836 57.9327C-13.0836 58.3509 -13.4182 58.6854 -13.8363 58.6854C-14.2544 58.6854 -14.589 58.3509 -14.589 57.9327C-14.589 57.5146 -14.2544 57.1801 -13.8363 57.1801C-13.4182 57.1801 -13.0836 57.5146 -13.0836 57.9327Z" fill="url(#paint61_linear_741_707)"/>
<path d="M-9.40144 57.9327C-9.40144 58.3509 -9.73596 58.6854 -10.1541 58.6854C-10.5722 58.6854 -10.9068 58.3509 -10.9068 57.9327C-10.9068 57.5146 -10.5722 57.1801 -10.1541 57.1801C-9.73596 57.1801 -9.40144 57.5146 -9.40144 57.9327Z" fill="url(#paint62_linear_741_707)"/>
<path d="M-5.71924 57.9327C-5.71924 58.3509 -6.05376 58.6854 -6.4719 58.6854C-6.89004 58.6854 -7.22456 58.3509 -7.22456 57.9327C-7.22456 57.5146 -6.89004 57.1801 -6.4719 57.1801C-6.05376 57.1801 -5.71924 57.5146 -5.71924 57.9327Z" fill="url(#paint63_linear_741_707)"/>
<path d="M-16.7658 61.4105C-16.7658 61.8286 -17.1003 62.1632 -17.5185 62.1632C-17.9366 62.1632 -18.2711 61.8286 -18.2711 61.4105C-18.2711 60.9924 -17.9366 60.6578 -17.5185 60.6578C-17.1003 60.6578 -16.7658 60.9924 -16.7658 61.4105Z" fill="url(#paint64_linear_741_707)"/>
<path d="M-13.0836 61.4105C-13.0836 61.8286 -13.4181 62.1632 -13.8363 62.1632C-14.2544 62.1632 -14.5889 61.8286 -14.5889 61.4105C-14.5889 60.9924 -14.2544 60.6578 -13.8363 60.6578C-13.4181 60.6578 -13.0836 60.9924 -13.0836 61.4105Z" fill="url(#paint65_linear_741_707)"/>
<path d="M-9.40142 61.4105C-9.40142 61.8286 -9.73594 62.1632 -10.1541 62.1632C-10.5722 62.1632 -10.9067 61.8286 -10.9067 61.4105C-10.9067 60.9924 -10.5722 60.6578 -10.1541 60.6578C-9.73594 60.6578 -9.40142 60.9924 -9.40142 61.4105Z" fill="url(#paint66_linear_741_707)"/>
<path d="M-5.71922 61.4105C-5.71922 61.8286 -6.05374 62.1632 -6.47189 62.1632C-6.89003 62.1632 -7.22454 61.8286 -7.22454 61.4105C-7.22454 60.9924 -6.89003 60.6578 -6.47189 60.6578C-6.05374 60.6578 -5.71922 60.9924 -5.71922 61.4105Z" fill="url(#paint67_linear_741_707)"/>
<path d="M-2.03703 61.4105C-2.03703 61.8286 -2.37154 62.1632 -2.78969 62.1632C-3.20783 62.1632 -3.54235 61.8286 -3.54235 61.4105C-3.54235 60.9924 -3.20783 60.6578 -2.78969 60.6578C-2.37154 60.6578 -2.03703 60.9924 -2.03703 61.4105Z" fill="url(#paint68_linear_741_707)"/>
<path d="M-31.4947 64.8881C-31.4947 65.3062 -31.8292 65.6408 -32.2473 65.6408C-32.6655 65.6408 -33 65.3062 -33 64.8881C-33 64.47 -32.6655 64.1354 -32.2473 64.1354C-31.8292 64.1354 -31.4947 64.47 -31.4947 64.8881Z" fill="url(#paint69_linear_741_707)"/>
<path d="M-27.8125 64.8881C-27.8125 65.3062 -28.147 65.6408 -28.5651 65.6408C-28.9833 65.6408 -29.3178 65.3062 -29.3178 64.8881C-29.3178 64.47 -28.9833 64.1354 -28.5651 64.1354C-28.147 64.1354 -27.8125 64.47 -27.8125 64.8881Z" fill="url(#paint70_linear_741_707)"/>
<path d="M-24.1303 64.8881C-24.1303 65.3062 -24.4648 65.6408 -24.8829 65.6408C-25.3011 65.6408 -25.6356 65.3062 -25.6356 64.8881C-25.6356 64.47 -25.3011 64.1354 -24.8829 64.1354C-24.4648 64.1354 -24.1303 64.47 -24.1303 64.8881Z" fill="url(#paint71_linear_741_707)"/>
<path d="M-20.4481 64.8881C-20.4481 65.3062 -20.7826 65.6408 -21.2007 65.6408C-21.6189 65.6408 -21.9534 65.3062 -21.9534 64.8881C-21.9534 64.47 -21.6189 64.1354 -21.2007 64.1354C-20.7826 64.1354 -20.4481 64.47 -20.4481 64.8881Z" fill="url(#paint72_linear_741_707)"/>
<path d="M-16.7659 64.8881C-16.7659 65.3062 -17.1004 65.6408 -17.5185 65.6408C-17.9367 65.6408 -18.2712 65.3062 -18.2712 64.8881C-18.2712 64.47 -17.9367 64.1354 -17.5185 64.1354C-17.1004 64.1354 -16.7659 64.47 -16.7659 64.8881Z" fill="url(#paint73_linear_741_707)"/>
<path d="M-20.448 68.3657C-20.448 68.7838 -20.7826 69.1183 -21.2007 69.1183C-21.6188 69.1183 -21.9534 68.7838 -21.9534 68.3657C-21.9534 67.9475 -21.6188 67.613 -21.2007 67.613C-20.7826 67.613 -20.448 67.9475 -20.448 68.3657Z" fill="url(#paint74_linear_741_707)"/>
<path d="M-16.7658 68.3657C-16.7658 68.7838 -17.1004 69.1183 -17.5185 69.1183C-17.9366 69.1183 -18.2712 68.7838 -18.2712 68.3657C-18.2712 67.9475 -17.9366 67.613 -17.5185 67.613C-17.1004 67.613 -16.7658 67.9475 -16.7658 68.3657Z" fill="url(#paint75_linear_741_707)"/>
<path d="M-13.0836 68.3657C-13.0836 68.7838 -13.4182 69.1183 -13.8363 69.1183C-14.2544 69.1183 -14.589 68.7838 -14.589 68.3657C-14.589 67.9475 -14.2544 67.613 -13.8363 67.613C-13.4182 67.613 -13.0836 67.9475 -13.0836 68.3657Z" fill="url(#paint76_linear_741_707)"/>
<path d="M-9.40144 68.3657C-9.40144 68.7838 -9.73596 69.1183 -10.1541 69.1183C-10.5722 69.1183 -10.9068 68.7838 -10.9068 68.3657C-10.9068 67.9475 -10.5722 67.613 -10.1541 67.613C-9.73596 67.613 -9.40144 67.9475 -9.40144 68.3657Z" fill="url(#paint77_linear_741_707)"/>
<path d="M-5.71924 68.3657C-5.71924 68.7838 -6.05376 69.1183 -6.4719 69.1183C-6.89004 69.1183 -7.22456 68.7838 -7.22456 68.3657C-7.22456 67.9475 -6.89004 67.613 -6.4719 67.613C-6.05376 67.613 -5.71924 67.9475 -5.71924 68.3657Z" fill="url(#paint78_linear_741_707)"/>
<path d="M35.2518 8.16208C35.2518 8.58022 34.9173 8.91473 34.4991 8.91473C34.081 8.91473 33.7465 8.58022 33.7465 8.16208C33.7465 7.74393 34.081 7.40942 34.4991 7.40942C34.9173 7.40942 35.2518 7.74393 35.2518 8.16208Z" fill="url(#paint79_linear_741_707)"/>
<path d="M38.934 8.16208C38.934 8.58022 38.5995 8.91473 38.1813 8.91473C37.7632 8.91473 37.4287 8.58022 37.4287 8.16208C37.4287 7.74393 37.7632 7.40942 38.1813 7.40942C38.5995 7.40942 38.934 7.74393 38.934 8.16208Z" fill="url(#paint80_linear_741_707)"/>
<path d="M42.6162 8.16208C42.6162 8.58022 42.2817 8.91473 41.8635 8.91473C41.4454 8.91473 41.1109 8.58022 41.1109 8.16208C41.1109 7.74393 41.4454 7.40942 41.8635 7.40942C42.2817 7.40942 42.6162 7.74393 42.6162 8.16208Z" fill="url(#paint81_linear_741_707)"/>
<path d="M46.2984 8.16208C46.2984 8.58022 45.9639 8.91473 45.5457 8.91473C45.1276 8.91473 44.7931 8.58022 44.7931 8.16208C44.7931 7.74393 45.1276 7.40942 45.5457 7.40942C45.9639 7.40942 46.2984 7.74393 46.2984 8.16208Z" fill="url(#paint82_linear_741_707)"/>
<path d="M49.9806 8.16208C49.9806 8.58022 49.646 8.91473 49.2279 8.91473C48.8097 8.91473 48.4752 8.58022 48.4752 8.16208C48.4752 7.74393 48.8097 7.40942 49.2279 7.40942C49.646 7.40942 49.9806 7.74393 49.9806 8.16208Z" fill="url(#paint83_linear_741_707)"/>
<path d="M38.934 11.6397C38.934 12.0578 38.5995 12.3923 38.1814 12.3923C37.7632 12.3923 37.4287 12.0578 37.4287 11.6397C37.4287 11.2215 37.7632 10.887 38.1814 10.887C38.5995 10.887 38.934 11.2215 38.934 11.6397Z" fill="url(#paint84_linear_741_707)"/>
<path d="M42.6162 11.6397C42.6162 12.0578 42.2817 12.3923 41.8636 12.3923C41.4454 12.3923 41.1109 12.0578 41.1109 11.6397C41.1109 11.2215 41.4454 10.887 41.8636 10.887C42.2817 10.887 42.6162 11.2215 42.6162 11.6397Z" fill="url(#paint85_linear_741_707)"/>
<path d="M46.2984 11.6397C46.2984 12.0578 45.9639 12.3923 45.5458 12.3923C45.1276 12.3923 44.7931 12.0578 44.7931 11.6397C44.7931 11.2215 45.1276 10.887 45.5458 10.887C45.9639 10.887 46.2984 11.2215 46.2984 11.6397Z" fill="url(#paint86_linear_741_707)"/>
<path d="M49.9806 11.6397C49.9806 12.0578 49.646 12.3923 49.2279 12.3923C48.8097 12.3923 48.4752 12.0578 48.4752 11.6397C48.4752 11.2215 48.8097 10.887 49.2279 10.887C49.646 10.887 49.9806 11.2215 49.9806 11.6397Z" fill="url(#paint87_linear_741_707)"/>
<path d="M53.6628 11.6397C53.6628 12.0578 53.3283 12.3923 52.9101 12.3923C52.492 12.3923 52.1574 12.0578 52.1574 11.6397C52.1574 11.2215 52.492 10.887 52.9101 10.887C53.3283 10.887 53.6628 11.2215 53.6628 11.6397Z" fill="url(#paint88_linear_741_707)"/>
<path d="M24.2052 15.1173C24.2052 15.5355 23.8706 15.87 23.4525 15.87C23.0344 15.87 22.6998 15.5355 22.6998 15.1173C22.6998 14.6992 23.0344 14.3647 23.4525 14.3647C23.8706 14.3647 24.2052 14.6992 24.2052 15.1173Z" fill="url(#paint89_linear_741_707)"/>
<path d="M27.8874 15.1173C27.8874 15.5355 27.5528 15.87 27.1347 15.87C26.7166 15.87 26.382 15.5355 26.382 15.1173C26.382 14.6992 26.7166 14.3647 27.1347 14.3647C27.5528 14.3647 27.8874 14.6992 27.8874 15.1173Z" fill="url(#paint90_linear_741_707)"/>
<path d="M31.5696 15.1173C31.5696 15.5355 31.235 15.87 30.8169 15.87C30.3988 15.87 30.0642 15.5355 30.0642 15.1173C30.0642 14.6992 30.3988 14.3647 30.8169 14.3647C31.235 14.3647 31.5696 14.6992 31.5696 15.1173Z" fill="url(#paint91_linear_741_707)"/>
<path d="M35.2518 15.1173C35.2518 15.5355 34.9172 15.87 34.4991 15.87C34.081 15.87 33.7464 15.5355 33.7464 15.1173C33.7464 14.6992 34.081 14.3647 34.4991 14.3647C34.9172 14.3647 35.2518 14.6992 35.2518 15.1173Z" fill="url(#paint92_linear_741_707)"/>
<path d="M38.934 15.1173C38.934 15.5355 38.5994 15.87 38.1813 15.87C37.7632 15.87 37.4286 15.5355 37.4286 15.1173C37.4286 14.6992 37.7632 14.3647 38.1813 14.3647C38.5994 14.3647 38.934 14.6992 38.934 15.1173Z" fill="url(#paint93_linear_741_707)"/>
<path d="M35.2518 18.5949C35.2518 19.0131 34.9173 19.3476 34.4991 19.3476C34.081 19.3476 33.7465 19.0131 33.7465 18.5949C33.7465 18.1768 34.081 17.8423 34.4991 17.8423C34.9173 17.8423 35.2518 18.1768 35.2518 18.5949Z" fill="url(#paint94_linear_741_707)"/>
<path d="M38.934 18.5949C38.934 19.0131 38.5995 19.3476 38.1813 19.3476C37.7632 19.3476 37.4287 19.0131 37.4287 18.5949C37.4287 18.1768 37.7632 17.8423 38.1813 17.8423C38.5995 17.8423 38.934 18.1768 38.934 18.5949Z" fill="url(#paint95_linear_741_707)"/>
<path d="M42.6162 18.5949C42.6162 19.0131 42.2817 19.3476 41.8635 19.3476C41.4454 19.3476 41.1109 19.0131 41.1109 18.5949C41.1109 18.1768 41.4454 17.8423 41.8635 17.8423C42.2817 17.8423 42.6162 18.1768 42.6162 18.5949Z" fill="url(#paint96_linear_741_707)"/>
<path d="M46.2984 18.5949C46.2984 19.0131 45.9639 19.3476 45.5457 19.3476C45.1276 19.3476 44.7931 19.0131 44.7931 18.5949C44.7931 18.1768 45.1276 17.8423 45.5457 17.8423C45.9639 17.8423 46.2984 18.1768 46.2984 18.5949Z" fill="url(#paint97_linear_741_707)"/>
<path d="M49.9806 18.5949C49.9806 19.0131 49.646 19.3476 49.2279 19.3476C48.8097 19.3476 48.4752 19.0131 48.4752 18.5949C48.4752 18.1768 48.8097 17.8423 49.2279 17.8423C49.646 17.8423 49.9806 18.1768 49.9806 18.5949Z" fill="url(#paint98_linear_741_707)"/>
<path d="M356.436 278.543C356.436 278.963 356.856 279.383 357.276 279.383C357.696 279.383 358.115 278.963 358.115 278.543C358.115 278.123 357.696 277.704 357.276 277.704C356.856 277.704 356.436 278.123 356.436 278.543Z" fill="url(#paint99_linear_741_707)"/>
<path d="M347.623 278.543C347.623 279.243 348.183 279.803 348.882 279.803C349.582 279.803 350.141 279.243 350.141 278.543C350.141 277.844 349.582 277.284 348.882 277.284C348.183 277.284 347.623 277.844 347.623 278.543Z" fill="url(#paint100_linear_741_707)"/>
<path d="M339.089 278.543C339.089 279.243 339.648 279.942 340.488 279.942C341.187 279.942 341.887 279.382 341.887 278.543C341.887 277.844 341.327 277.144 340.488 277.144C339.788 277.284 339.089 277.844 339.089 278.543Z" fill="url(#paint101_linear_741_707)"/>
<path d="M330.975 278.543C330.975 279.243 331.535 279.803 332.234 279.803C332.934 279.803 333.493 279.243 333.493 278.543C333.493 277.844 332.934 277.284 332.234 277.284C331.535 277.424 330.975 277.984 330.975 278.543Z" fill="url(#paint102_linear_741_707)"/>
<path d="M323.001 278.543C323.001 278.962 323.28 279.242 323.7 279.242C324.12 279.242 324.4 278.962 324.4 278.543C324.4 278.123 324.12 277.843 323.7 277.843C323.42 277.843 323.001 278.263 323.001 278.543Z" fill="url(#paint103_linear_741_707)"/>
<path d="M17.6788 59.3991C17.6788 59.8188 17.2591 60.2385 16.8394 60.2385C16.4197 60.2385 16 59.8188 16 59.3991C16 58.9794 16.4197 58.5597 16.8394 58.5597C17.2591 58.5597 17.6788 58.9794 17.6788 59.3991Z" fill="url(#paint104_linear_741_707)"/>
<path d="M26.4922 59.3994C26.4922 60.0989 25.9326 60.6585 25.2331 60.6585C24.5336 60.6585 23.974 60.0989 23.974 59.3994C23.974 58.6999 24.5336 58.1403 25.2331 58.1403C25.9326 58.1403 26.4922 58.6999 26.4922 59.3994Z" fill="url(#paint105_linear_741_707)"/>
<path d="M35.0266 59.399C35.0266 60.0985 34.467 60.798 33.6276 60.798C32.9281 60.798 32.2286 60.2384 32.2286 59.399C32.2286 58.6995 32.7882 58 33.6276 58C34.3271 58.1399 35.0266 58.6995 35.0266 59.399Z" fill="url(#paint106_linear_741_707)"/>
<path d="M43.1401 59.3994C43.1401 60.0989 42.5805 60.6585 41.881 60.6585C41.1815 60.6585 40.6219 60.0989 40.6219 59.3994C40.6219 58.6999 41.1815 58.1403 41.881 58.1403C42.5805 58.2802 43.1401 58.8398 43.1401 59.3994Z" fill="url(#paint107_linear_741_707)"/>
<path d="M51.1147 59.3987C51.1147 59.8184 50.8349 60.0982 50.4152 60.0982C49.9955 60.0982 49.7157 59.8184 49.7157 59.3987C49.7157 58.979 49.9955 58.6992 50.4152 58.6992C50.695 58.6992 51.1147 59.1189 51.1147 59.3987Z" fill="url(#paint108_linear_741_707)"/>
<path d="M40.6083 247.402C45.0983 249.691 46.9037 255.254 44.6141 259.744C42.3245 264.234 36.7617 266.04 32.2717 263.75C27.7816 261.46 25.9762 255.898 28.2658 251.408C30.6141 246.802 36.1183 245.112 40.6083 247.402ZM32.9174 262.484C36.8318 264.48 41.5254 262.956 43.5215 259.042C45.5176 255.128 43.9943 250.434 40.0799 248.438C36.1655 246.442 31.4719 247.965 29.4758 251.88C27.4797 255.794 29.0031 260.488 32.9174 262.484Z" fill="url(#paint109_linear_741_707)"/>
<path d="M39.1995 250.165C36.2746 248.673 32.6944 249.835 31.2029 252.76C29.7114 255.685 30.8734 259.265 33.7983 260.757C36.7231 262.248 40.3033 261.086 41.7948 258.161C43.2863 255.236 42.1243 251.656 39.1995 250.165Z" fill="url(#paint110_linear_741_707)"/>
<path d="M7.3904 258.561C9.82615 259.803 10.8056 262.821 9.56347 265.256C8.32139 267.692 5.3037 268.672 2.86796 267.43C0.432214 266.187 -0.547207 263.17 0.694873 260.734C1.9688 258.236 4.95466 257.319 7.3904 258.561ZM3.21829 266.743C5.34176 267.825 7.88793 266.999 8.97077 264.876C10.0536 262.752 9.22724 260.206 7.10377 259.123C4.9803 258.04 2.43411 258.867 1.35127 260.99C0.268433 263.114 1.09482 265.66 3.21829 266.743Z" fill="url(#paint111_linear_741_707)"/>
<path d="M6.62667 260.059C5.04 259.25 3.09783 259.881 2.28873 261.467C1.47962 263.054 2.10996 264.996 3.69664 265.805C5.28331 266.614 7.22547 265.984 8.03457 264.397C8.84368 262.811 8.21335 260.869 6.62667 260.059Z" fill="url(#paint112_linear_741_707)"/>
<path d="M28.3846 272.809C30.8203 274.051 31.7997 277.069 30.5576 279.504C29.3155 281.94 26.2979 282.919 23.8621 281.677C21.4264 280.435 20.4469 277.418 21.689 274.982C22.9629 272.484 25.9488 271.567 28.3846 272.809ZM24.2124 280.99C26.3359 282.073 28.8821 281.247 29.9649 279.123C31.0478 277 30.2214 274.454 28.0979 273.371C25.9744 272.288 23.4283 273.114 22.3454 275.238C21.2626 277.361 22.089 279.908 24.2124 280.99Z" fill="url(#paint113_linear_741_707)"/>
<path d="M27.6208 274.307C26.0341 273.498 24.092 274.129 23.2829 275.715C22.4738 277.302 23.1041 279.244 24.6908 280.053C26.2775 280.862 28.2196 280.232 29.0287 278.645C29.8378 277.059 29.2075 275.116 27.6208 274.307Z" fill="url(#paint114_linear_741_707)"/>
<path d="M28.3846 272.809C30.8203 274.051 31.7997 277.069 30.5576 279.504C29.3155 281.94 26.2979 282.919 23.8621 281.677C21.4264 280.435 20.4469 277.418 21.689 274.982C22.9629 272.484 25.9488 271.567 28.3846 272.809ZM24.2124 280.99C26.3359 282.073 28.8821 281.247 29.9649 279.123C31.0478 277 30.2214 274.454 28.0979 273.371C25.9744 272.288 23.4283 273.114 22.3454 275.238C21.2626 277.361 22.089 279.908 24.2124 280.99Z" fill="url(#paint115_linear_741_707)"/>
<path d="M27.6208 274.307C26.0341 273.498 24.092 274.129 23.2829 275.715C22.4738 277.302 23.1041 279.244 24.6908 280.053C26.2775 280.862 28.2196 280.232 29.0287 278.645C29.8378 277.059 29.2075 275.116 27.6208 274.307Z" fill="url(#paint116_linear_741_707)"/>
<path d="M351.174 44.1476C346.684 41.858 344.878 36.2952 347.168 31.8051C349.458 27.3151 355.021 25.5096 359.511 27.7993C364.001 30.0889 365.806 35.6517 363.516 40.1417C361.168 44.7469 355.664 46.4372 351.174 44.1476ZM358.865 29.0657C354.95 27.0696 350.257 28.593 348.261 32.5073C346.265 36.4217 347.788 41.1153 351.702 43.1114C355.617 45.1075 360.31 43.5842 362.306 39.6698C364.303 35.7554 362.779 31.0618 358.865 29.0657Z" fill="url(#paint117_linear_741_707)"/>
<path d="M352.583 41.3845C355.508 42.876 359.088 41.714 360.579 38.7892C362.071 35.8643 360.909 32.2841 357.984 30.7926C355.059 29.3011 351.479 30.4631 349.987 33.388C348.496 36.3129 349.658 39.893 352.583 41.3845Z" fill="url(#paint118_linear_741_707)"/>
<path d="M384.392 32.9884C381.956 31.7463 380.977 28.7286 382.219 26.2928C383.461 23.8571 386.479 22.8777 388.914 24.1197C391.35 25.3618 392.329 28.3795 391.087 30.8153C389.813 33.3135 386.828 34.2304 384.392 32.9884ZM388.564 24.8067C386.44 23.7239 383.894 24.5503 382.811 26.6738C381.729 28.7972 382.555 31.3434 384.678 32.4263C386.802 33.5091 389.348 32.6827 390.431 30.5592C391.514 28.4358 390.687 25.8896 388.564 24.8067Z" fill="url(#paint119_linear_741_707)"/>
<path d="M385.156 31.4898C386.742 32.2989 388.684 31.6686 389.494 30.0819C390.303 28.4952 389.672 26.5531 388.086 25.744C386.499 24.9349 384.557 25.5652 383.748 27.1519C382.939 28.7386 383.569 30.6807 385.156 31.4898Z" fill="url(#paint120_linear_741_707)"/>
<path d="M363.398 18.7406C360.962 17.4985 359.983 14.4808 361.225 12.045C362.467 9.60929 365.484 8.62987 367.92 9.87195C370.356 11.114 371.335 14.1317 370.093 16.5675C368.819 19.0657 365.833 19.9826 363.398 18.7406ZM367.57 10.5589C365.446 9.47611 362.9 10.3025 361.817 12.426C360.734 14.5494 361.561 17.0956 363.684 18.1785C365.808 19.2613 368.354 18.4349 369.437 16.3114C370.52 14.188 369.693 11.6418 367.57 10.5589Z" fill="url(#paint121_linear_741_707)"/>
<path d="M364.161 17.242C365.748 18.0511 367.69 17.4208 368.499 15.8341C369.308 14.2474 368.678 12.3053 367.091 11.4962C365.505 10.6871 363.563 11.3174 362.754 12.9041C361.944 14.4908 362.575 16.4329 364.161 17.242Z" fill="url(#paint122_linear_741_707)"/>
<path d="M363.398 18.7406C360.962 17.4985 359.983 14.4808 361.225 12.045C362.467 9.60929 365.484 8.62987 367.92 9.87195C370.356 11.114 371.335 14.1317 370.093 16.5675C368.819 19.0657 365.833 19.9826 363.398 18.7406ZM367.57 10.5589C365.446 9.47611 362.9 10.3025 361.817 12.426C360.734 14.5494 361.561 17.0956 363.684 18.1785C365.808 19.2613 368.354 18.4349 369.437 16.3114C370.52 14.188 369.693 11.6418 367.57 10.5589Z" fill="url(#paint123_linear_741_707)"/>
<path d="M364.161 17.242C365.748 18.0511 367.69 17.4208 368.499 15.8341C369.308 14.2474 368.678 12.3053 367.091 11.4962C365.505 10.6871 363.563 11.3174 362.754 12.9041C361.944 14.4908 362.575 16.4329 364.161 17.242Z" fill="url(#paint124_linear_741_707)"/>
<defs>
<linearGradient id="paint0_linear_741_707" x1="196.5" y1="0" x2="196.5" y2="300" gradientUnits="userSpaceOnUse">
<stop stop-color="#DA1C3C"/>
<stop offset="1" stop-color="#C80F2E"/>
</linearGradient>
<linearGradient id="paint1_linear_741_707" x1="278.5" y1="178" x2="119" y2="325" gradientUnits="userSpaceOnUse">
<stop offset="0.407284" stop-color="white"/>
<stop offset="1" stop-color="#C80F2E"/>
</linearGradient>
<linearGradient id="paint2_linear_741_707" x1="278.5" y1="178" x2="119" y2="325" gradientUnits="userSpaceOnUse">
<stop offset="0.407284" stop-color="white"/>
<stop offset="1" stop-color="#C80F2E"/>
</linearGradient>
<linearGradient id="paint3_linear_741_707" x1="278.5" y1="178" x2="119" y2="325" gradientUnits="userSpaceOnUse">
<stop offset="0.407284" stop-color="white"/>
<stop offset="1" stop-color="#C80F2E"/>
</linearGradient>
<linearGradient id="paint4_linear_741_707" x1="289" y1="159" x2="102" y2="336.5" gradientUnits="userSpaceOnUse">
<stop offset="0.345208" stop-color="white"/>
<stop offset="0.82611" stop-color="white" stop-opacity="0"/>
</linearGradient>
<linearGradient id="paint5_linear_741_707" x1="289" y1="159" x2="102" y2="336.5" gradientUnits="userSpaceOnUse">
<stop offset="0.345208" stop-color="white"/>
<stop offset="0.82611" stop-color="white" stop-opacity="0"/>
</linearGradient>
<linearGradient id="paint6_linear_741_707" x1="289" y1="159" x2="102" y2="336.5" gradientUnits="userSpaceOnUse">
<stop offset="0.345208" stop-color="white"/>
<stop offset="0.82611" stop-color="white" stop-opacity="0"/>
</linearGradient>
<linearGradient id="paint7_linear_741_707" x1="339.328" y1="286.073" x2="413.796" y2="286.073" gradientUnits="userSpaceOnUse">
<stop offset="0.264832" stop-color="white"/>
<stop offset="1" stop-color="white" stop-opacity="0"/>
</linearGradient>
<linearGradient id="paint8_linear_741_707" x1="339.328" y1="286.073" x2="413.796" y2="286.073" gradientUnits="userSpaceOnUse">
<stop offset="0.264832" stop-color="white"/>
<stop offset="1" stop-color="white" stop-opacity="0"/>
</linearGradient>
<linearGradient id="paint9_linear_741_707" x1="339.328" y1="286.073" x2="413.796" y2="286.073" gradientUnits="userSpaceOnUse">
<stop offset="0.264832" stop-color="white"/>
<stop offset="1" stop-color="white" stop-opacity="0"/>
</linearGradient>
<linearGradient id="paint10_linear_741_707" x1="339.328" y1="286.073" x2="413.796" y2="286.073" gradientUnits="userSpaceOnUse">
<stop offset="0.264832" stop-color="white"/>
<stop offset="1" stop-color="white" stop-opacity="0"/>
</linearGradient>
<linearGradient id="paint11_linear_741_707" x1="339.328" y1="286.073" x2="413.796" y2="286.073" gradientUnits="userSpaceOnUse">
<stop offset="0.264832" stop-color="white"/>
<stop offset="1" stop-color="white" stop-opacity="0"/>
</linearGradient>
<linearGradient id="paint12_linear_741_707" x1="339.328" y1="286.073" x2="413.796" y2="286.073" gradientUnits="userSpaceOnUse">
<stop offset="0.264832" stop-color="white"/>
<stop offset="1" stop-color="white" stop-opacity="0"/>
</linearGradient>
<linearGradient id="paint13_linear_741_707" x1="339.328" y1="286.073" x2="413.796" y2="286.073" gradientUnits="userSpaceOnUse">
<stop offset="0.264832" stop-color="white"/>
<stop offset="1" stop-color="white" stop-opacity="0"/>
</linearGradient>
<linearGradient id="paint14_linear_741_707" x1="339.328" y1="286.073" x2="413.796" y2="286.073" gradientUnits="userSpaceOnUse">
<stop offset="0.264832" stop-color="white"/>
<stop offset="1" stop-color="white" stop-opacity="0"/>
</linearGradient>
<linearGradient id="paint15_linear_741_707" x1="339.328" y1="286.073" x2="413.796" y2="286.073" gradientUnits="userSpaceOnUse">
<stop offset="0.264832" stop-color="white"/>
<stop offset="1" stop-color="white" stop-opacity="0"/>
</linearGradient>
<linearGradient id="paint16_linear_741_707" x1="339.328" y1="286.073" x2="413.796" y2="286.073" gradientUnits="userSpaceOnUse">
<stop offset="0.264832" stop-color="white"/>
<stop offset="1" stop-color="white" stop-opacity="0"/>
</linearGradient>
<linearGradient id="paint17_linear_741_707" x1="339.328" y1="286.073" x2="413.796" y2="286.073" gradientUnits="userSpaceOnUse">
<stop offset="0.264832" stop-color="white"/>
<stop offset="1" stop-color="white" stop-opacity="0"/>
</linearGradient>
<linearGradient id="paint18_linear_741_707" x1="339.328" y1="286.073" x2="413.796" y2="286.073" gradientUnits="userSpaceOnUse">
<stop offset="0.264832" stop-color="white"/>
<stop offset="1" stop-color="white" stop-opacity="0"/>
</linearGradient>
<linearGradient id="paint19_linear_741_707" x1="339.328" y1="286.073" x2="413.796" y2="286.073" gradientUnits="userSpaceOnUse">
<stop offset="0.264832" stop-color="white"/>
<stop offset="1" stop-color="white" stop-opacity="0"/>
</linearGradient>
<linearGradient id="paint20_linear_741_707" x1="339.328" y1="286.073" x2="413.796" y2="286.073" gradientUnits="userSpaceOnUse">
<stop offset="0.264832" stop-color="white"/>
<stop offset="1" stop-color="white" stop-opacity="0"/>
</linearGradient>
<linearGradient id="paint21_linear_741_707" x1="339.328" y1="286.073" x2="413.796" y2="286.073" gradientUnits="userSpaceOnUse">
<stop offset="0.264832" stop-color="white"/>
<stop offset="1" stop-color="white" stop-opacity="0"/>
</linearGradient>
<linearGradient id="paint22_linear_741_707" x1="339.328" y1="286.073" x2="413.796" y2="286.073" gradientUnits="userSpaceOnUse">
<stop offset="0.264832" stop-color="white"/>
<stop offset="1" stop-color="white" stop-opacity="0"/>
</linearGradient>
<linearGradient id="paint23_linear_741_707" x1="339.328" y1="286.073" x2="413.796" y2="286.073" gradientUnits="userSpaceOnUse">
<stop offset="0.264832" stop-color="white"/>
<stop offset="1" stop-color="white" stop-opacity="0"/>
</linearGradient>
<linearGradient id="paint24_linear_741_707" x1="339.328" y1="286.073" x2="413.796" y2="286.073" gradientUnits="userSpaceOnUse">
<stop offset="0.264832" stop-color="white"/>
<stop offset="1" stop-color="white" stop-opacity="0"/>
</linearGradient>
<linearGradient id="paint25_linear_741_707" x1="339.328" y1="286.073" x2="413.796" y2="286.073" gradientUnits="userSpaceOnUse">
<stop offset="0.264832" stop-color="white"/>
<stop offset="1" stop-color="white" stop-opacity="0"/>
</linearGradient>
<linearGradient id="paint26_linear_741_707" x1="339.328" y1="286.073" x2="413.796" y2="286.073" gradientUnits="userSpaceOnUse">
<stop offset="0.264832" stop-color="white"/>
<stop offset="1" stop-color="white" stop-opacity="0"/>
</linearGradient>
<linearGradient id="paint27_linear_741_707" x1="339.328" y1="286.073" x2="413.796" y2="286.073" gradientUnits="userSpaceOnUse">
<stop offset="0.264832" stop-color="white"/>
<stop offset="1" stop-color="white" stop-opacity="0"/>
</linearGradient>
<linearGradient id="paint28_linear_741_707" x1="339.328" y1="286.073" x2="413.796" y2="286.073" gradientUnits="userSpaceOnUse">
<stop offset="0.264832" stop-color="white"/>
<stop offset="1" stop-color="white" stop-opacity="0"/>
</linearGradient>
<linearGradient id="paint29_linear_741_707" x1="339.328" y1="286.073" x2="413.796" y2="286.073" gradientUnits="userSpaceOnUse">
<stop offset="0.264832" stop-color="white"/>
<stop offset="1" stop-color="white" stop-opacity="0"/>
</linearGradient>
<linearGradient id="paint30_linear_741_707" x1="339.328" y1="286.073" x2="413.796" y2="286.073" gradientUnits="userSpaceOnUse">
<stop offset="0.264832" stop-color="white"/>
<stop offset="1" stop-color="white" stop-opacity="0"/>
</linearGradient>
<linearGradient id="paint31_linear_741_707" x1="339.328" y1="286.073" x2="413.796" y2="286.073" gradientUnits="userSpaceOnUse">
<stop offset="0.264832" stop-color="white"/>
<stop offset="1" stop-color="white" stop-opacity="0"/>
</linearGradient>
<linearGradient id="paint32_linear_741_707" x1="339.328" y1="286.073" x2="413.796" y2="286.073" gradientUnits="userSpaceOnUse">
<stop offset="0.264832" stop-color="white"/>
<stop offset="1" stop-color="white" stop-opacity="0"/>
</linearGradient>
<linearGradient id="paint33_linear_741_707" x1="339.328" y1="286.073" x2="413.796" y2="286.073" gradientUnits="userSpaceOnUse">
<stop offset="0.264832" stop-color="white"/>
<stop offset="1" stop-color="white" stop-opacity="0"/>
</linearGradient>
<linearGradient id="paint34_linear_741_707" x1="339.328" y1="286.073" x2="413.796" y2="286.073" gradientUnits="userSpaceOnUse">
<stop offset="0.264832" stop-color="white"/>
<stop offset="1" stop-color="white" stop-opacity="0"/>
</linearGradient>
<linearGradient id="paint35_linear_741_707" x1="339.328" y1="286.073" x2="413.796" y2="286.073" gradientUnits="userSpaceOnUse">
<stop offset="0.264832" stop-color="white"/>
<stop offset="1" stop-color="white" stop-opacity="0"/>
</linearGradient>
<linearGradient id="paint36_linear_741_707" x1="339.328" y1="286.073" x2="413.796" y2="286.073" gradientUnits="userSpaceOnUse">
<stop offset="0.264832" stop-color="white"/>
<stop offset="1" stop-color="white" stop-opacity="0"/>
</linearGradient>
<linearGradient id="paint37_linear_741_707" x1="339.328" y1="286.073" x2="413.796" y2="286.073" gradientUnits="userSpaceOnUse">
<stop offset="0.264832" stop-color="white"/>
<stop offset="1" stop-color="white" stop-opacity="0"/>
</linearGradient>
<linearGradient id="paint38_linear_741_707" x1="339.328" y1="286.073" x2="413.796" y2="286.073" gradientUnits="userSpaceOnUse">
<stop offset="0.264832" stop-color="white"/>
<stop offset="1" stop-color="white" stop-opacity="0"/>
</linearGradient>
<linearGradient id="paint39_linear_741_707" x1="339.328" y1="286.073" x2="413.796" y2="286.073" gradientUnits="userSpaceOnUse">
<stop offset="0.264832" stop-color="white"/>
<stop offset="1" stop-color="white" stop-opacity="0"/>
</linearGradient>
<linearGradient id="paint40_linear_741_707" x1="339.328" y1="286.073" x2="413.796" y2="286.073" gradientUnits="userSpaceOnUse">
<stop offset="0.264832" stop-color="white"/>
<stop offset="1" stop-color="white" stop-opacity="0"/>
</linearGradient>
<linearGradient id="paint41_linear_741_707" x1="339.328" y1="286.073" x2="413.796" y2="286.073" gradientUnits="userSpaceOnUse">
<stop offset="0.264832" stop-color="white"/>
<stop offset="1" stop-color="white" stop-opacity="0"/>
</linearGradient>
<linearGradient id="paint42_linear_741_707" x1="339.328" y1="286.073" x2="413.796" y2="286.073" gradientUnits="userSpaceOnUse">
<stop offset="0.264832" stop-color="white"/>
<stop offset="1" stop-color="white" stop-opacity="0"/>
</linearGradient>
<linearGradient id="paint43_linear_741_707" x1="339.328" y1="286.073" x2="413.796" y2="286.073" gradientUnits="userSpaceOnUse">
<stop offset="0.264832" stop-color="white"/>
<stop offset="1" stop-color="white" stop-opacity="0"/>
</linearGradient>
<linearGradient id="paint44_linear_741_707" x1="339.328" y1="286.073" x2="413.796" y2="286.073" gradientUnits="userSpaceOnUse">
<stop offset="0.264832" stop-color="white"/>
<stop offset="1" stop-color="white" stop-opacity="0"/>
</linearGradient>
<linearGradient id="paint45_linear_741_707" x1="339.328" y1="286.073" x2="413.796" y2="286.073" gradientUnits="userSpaceOnUse">
<stop offset="0.264832" stop-color="white"/>
<stop offset="1" stop-color="white" stop-opacity="0"/>
</linearGradient>
<linearGradient id="paint46_linear_741_707" x1="339.328" y1="286.073" x2="413.796" y2="286.073" gradientUnits="userSpaceOnUse">
<stop offset="0.264832" stop-color="white"/>
<stop offset="1" stop-color="white" stop-opacity="0"/>
</linearGradient>
<linearGradient id="paint47_linear_741_707" x1="339.328" y1="286.073" x2="413.796" y2="286.073" gradientUnits="userSpaceOnUse">
<stop offset="0.264832" stop-color="white"/>
<stop offset="1" stop-color="white" stop-opacity="0"/>
</linearGradient>
<linearGradient id="paint48_linear_741_707" x1="339.328" y1="286.073" x2="413.796" y2="286.073" gradientUnits="userSpaceOnUse">
<stop offset="0.264832" stop-color="white"/>
<stop offset="1" stop-color="white" stop-opacity="0"/>
</linearGradient>
<linearGradient id="paint49_linear_741_707" x1="339.328" y1="286.073" x2="413.796" y2="286.073" gradientUnits="userSpaceOnUse">
<stop offset="0.264832" stop-color="white"/>
<stop offset="1" stop-color="white" stop-opacity="0"/>
</linearGradient>
<linearGradient id="paint50_linear_741_707" x1="339.328" y1="286.073" x2="413.796" y2="286.073" gradientUnits="userSpaceOnUse">
<stop offset="0.264832" stop-color="white"/>
<stop offset="1" stop-color="white" stop-opacity="0"/>
</linearGradient>
<linearGradient id="paint51_linear_741_707" x1="339.328" y1="286.073" x2="413.796" y2="286.073" gradientUnits="userSpaceOnUse">
<stop offset="0.264832" stop-color="white"/>
<stop offset="1" stop-color="white" stop-opacity="0"/>
</linearGradient>
<linearGradient id="paint52_linear_741_707" x1="339.328" y1="286.073" x2="413.796" y2="286.073" gradientUnits="userSpaceOnUse">
<stop offset="0.264832" stop-color="white"/>
<stop offset="1" stop-color="white" stop-opacity="0"/>
</linearGradient>
<linearGradient id="paint53_linear_741_707" x1="47.696" y1="62.0734" x2="-26.7712" y2="62.0734" gradientUnits="userSpaceOnUse">
<stop offset="0.264832" stop-color="white"/>
<stop offset="1" stop-color="white" stop-opacity="0"/>
</linearGradient>
<linearGradient id="paint54_linear_741_707" x1="47.696" y1="62.0734" x2="-26.7712" y2="62.0734" gradientUnits="userSpaceOnUse">
<stop offset="0.264832" stop-color="white"/>
<stop offset="1" stop-color="white" stop-opacity="0"/>
</linearGradient>
<linearGradient id="paint55_linear_741_707" x1="47.696" y1="62.0734" x2="-26.7712" y2="62.0734" gradientUnits="userSpaceOnUse">
<stop offset="0.264832" stop-color="white"/>
<stop offset="1" stop-color="white" stop-opacity="0"/>
</linearGradient>
<linearGradient id="paint56_linear_741_707" x1="47.696" y1="62.0734" x2="-26.7712" y2="62.0734" gradientUnits="userSpaceOnUse">
<stop offset="0.264832" stop-color="white"/>
<stop offset="1" stop-color="white" stop-opacity="0"/>
</linearGradient>
<linearGradient id="paint57_linear_741_707" x1="47.696" y1="62.0734" x2="-26.7712" y2="62.0734" gradientUnits="userSpaceOnUse">
<stop offset="0.264832" stop-color="white"/>
<stop offset="1" stop-color="white" stop-opacity="0"/>
</linearGradient>
<linearGradient id="paint58_linear_741_707" x1="47.696" y1="62.0734" x2="-26.7712" y2="62.0734" gradientUnits="userSpaceOnUse">
<stop offset="0.264832" stop-color="white"/>
<stop offset="1" stop-color="white" stop-opacity="0"/>
</linearGradient>
<linearGradient id="paint59_linear_741_707" x1="47.696" y1="62.0734" x2="-26.7712" y2="62.0734" gradientUnits="userSpaceOnUse">
<stop offset="0.264832" stop-color="white"/>
<stop offset="1" stop-color="white" stop-opacity="0"/>
</linearGradient>
<linearGradient id="paint60_linear_741_707" x1="47.696" y1="62.0734" x2="-26.7712" y2="62.0734" gradientUnits="userSpaceOnUse">
<stop offset="0.264832" stop-color="white"/>
<stop offset="1" stop-color="white" stop-opacity="0"/>
</linearGradient>
<linearGradient id="paint61_linear_741_707" x1="47.696" y1="62.0734" x2="-26.7712" y2="62.0734" gradientUnits="userSpaceOnUse">
<stop offset="0.264832" stop-color="white"/>
<stop offset="1" stop-color="white" stop-opacity="0"/>
</linearGradient>
<linearGradient id="paint62_linear_741_707" x1="47.696" y1="62.0734" x2="-26.7712" y2="62.0734" gradientUnits="userSpaceOnUse">
<stop offset="0.264832" stop-color="white"/>
<stop offset="1" stop-color="white" stop-opacity="0"/>
</linearGradient>
<linearGradient id="paint63_linear_741_707" x1="47.696" y1="62.0734" x2="-26.7712" y2="62.0734" gradientUnits="userSpaceOnUse">
<stop offset="0.264832" stop-color="white"/>
<stop offset="1" stop-color="white" stop-opacity="0"/>
</linearGradient>
<linearGradient id="paint64_linear_741_707" x1="47.696" y1="62.0734" x2="-26.7712" y2="62.0734" gradientUnits="userSpaceOnUse">
<stop offset="0.264832" stop-color="white"/>
<stop offset="1" stop-color="white" stop-opacity="0"/>
</linearGradient>
<linearGradient id="paint65_linear_741_707" x1="47.696" y1="62.0734" x2="-26.7712" y2="62.0734" gradientUnits="userSpaceOnUse">
<stop offset="0.264832" stop-color="white"/>
<stop offset="1" stop-color="white" stop-opacity="0"/>
</linearGradient>
<linearGradient id="paint66_linear_741_707" x1="47.696" y1="62.0734" x2="-26.7712" y2="62.0734" gradientUnits="userSpaceOnUse">
<stop offset="0.264832" stop-color="white"/>
<stop offset="1" stop-color="white" stop-opacity="0"/>
</linearGradient>
<linearGradient id="paint67_linear_741_707" x1="47.696" y1="62.0734" x2="-26.7712" y2="62.0734" gradientUnits="userSpaceOnUse">
<stop offset="0.264832" stop-color="white"/>
<stop offset="1" stop-color="white" stop-opacity="0"/>
</linearGradient>
<linearGradient id="paint68_linear_741_707" x1="47.696" y1="62.0734" x2="-26.7712" y2="62.0734" gradientUnits="userSpaceOnUse">
<stop offset="0.264832" stop-color="white"/>
<stop offset="1" stop-color="white" stop-opacity="0"/>
</linearGradient>
<linearGradient id="paint69_linear_741_707" x1="47.696" y1="62.0734" x2="-26.7712" y2="62.0734" gradientUnits="userSpaceOnUse">
<stop offset="0.264832" stop-color="white"/>
<stop offset="1" stop-color="white" stop-opacity="0"/>
</linearGradient>
<linearGradient id="paint70_linear_741_707" x1="47.696" y1="62.0734" x2="-26.7712" y2="62.0734" gradientUnits="userSpaceOnUse">
<stop offset="0.264832" stop-color="white"/>
<stop offset="1" stop-color="white" stop-opacity="0"/>
</linearGradient>
<linearGradient id="paint71_linear_741_707" x1="47.696" y1="62.0734" x2="-26.7712" y2="62.0734" gradientUnits="userSpaceOnUse">
<stop offset="0.264832" stop-color="white"/>
<stop offset="1" stop-color="white" stop-opacity="0"/>
</linearGradient>
<linearGradient id="paint72_linear_741_707" x1="47.696" y1="62.0734" x2="-26.7712" y2="62.0734" gradientUnits="userSpaceOnUse">
<stop offset="0.264832" stop-color="white"/>
<stop offset="1" stop-color="white" stop-opacity="0"/>
</linearGradient>
<linearGradient id="paint73_linear_741_707" x1="47.696" y1="62.0734" x2="-26.7712" y2="62.0734" gradientUnits="userSpaceOnUse">
<stop offset="0.264832" stop-color="white"/>
<stop offset="1" stop-color="white" stop-opacity="0"/>
</linearGradient>
<linearGradient id="paint74_linear_741_707" x1="47.696" y1="62.0734" x2="-26.7712" y2="62.0734" gradientUnits="userSpaceOnUse">
<stop offset="0.264832" stop-color="white"/>
<stop offset="1" stop-color="white" stop-opacity="0"/>
</linearGradient>
<linearGradient id="paint75_linear_741_707" x1="47.696" y1="62.0734" x2="-26.7712" y2="62.0734" gradientUnits="userSpaceOnUse">
<stop offset="0.264832" stop-color="white"/>
<stop offset="1" stop-color="white" stop-opacity="0"/>
</linearGradient>
<linearGradient id="paint76_linear_741_707" x1="47.696" y1="62.0734" x2="-26.7712" y2="62.0734" gradientUnits="userSpaceOnUse">
<stop offset="0.264832" stop-color="white"/>
<stop offset="1" stop-color="white" stop-opacity="0"/>
</linearGradient>
<linearGradient id="paint77_linear_741_707" x1="47.696" y1="62.0734" x2="-26.7712" y2="62.0734" gradientUnits="userSpaceOnUse">
<stop offset="0.264832" stop-color="white"/>
<stop offset="1" stop-color="white" stop-opacity="0"/>
</linearGradient>
<linearGradient id="paint78_linear_741_707" x1="47.696" y1="62.0734" x2="-26.7712" y2="62.0734" gradientUnits="userSpaceOnUse">
<stop offset="0.264832" stop-color="white"/>
<stop offset="1" stop-color="white" stop-opacity="0"/>
</linearGradient>
<linearGradient id="paint79_linear_741_707" x1="47.696" y1="62.0734" x2="-26.7712" y2="62.0734" gradientUnits="userSpaceOnUse">
<stop offset="0.264832" stop-color="white"/>
<stop offset="1" stop-color="white" stop-opacity="0"/>
</linearGradient>
<linearGradient id="paint80_linear_741_707" x1="47.696" y1="62.0734" x2="-26.7712" y2="62.0734" gradientUnits="userSpaceOnUse">
<stop offset="0.264832" stop-color="white"/>
<stop offset="1" stop-color="white" stop-opacity="0"/>
</linearGradient>
<linearGradient id="paint81_linear_741_707" x1="47.696" y1="62.0734" x2="-26.7712" y2="62.0734" gradientUnits="userSpaceOnUse">
<stop offset="0.264832" stop-color="white"/>
<stop offset="1" stop-color="white" stop-opacity="0"/>
</linearGradient>
<linearGradient id="paint82_linear_741_707" x1="47.696" y1="62.0734" x2="-26.7712" y2="62.0734" gradientUnits="userSpaceOnUse">
<stop offset="0.264832" stop-color="white"/>
<stop offset="1" stop-color="white" stop-opacity="0"/>
</linearGradient>
<linearGradient id="paint83_linear_741_707" x1="47.696" y1="62.0734" x2="-26.7712" y2="62.0734" gradientUnits="userSpaceOnUse">
<stop offset="0.264832" stop-color="white"/>
<stop offset="1" stop-color="white" stop-opacity="0"/>
</linearGradient>
<linearGradient id="paint84_linear_741_707" x1="47.696" y1="62.0734" x2="-26.7712" y2="62.0734" gradientUnits="userSpaceOnUse">
<stop offset="0.264832" stop-color="white"/>
<stop offset="1" stop-color="white" stop-opacity="0"/>
</linearGradient>
<linearGradient id="paint85_linear_741_707" x1="47.696" y1="62.0734" x2="-26.7712" y2="62.0734" gradientUnits="userSpaceOnUse">
<stop offset="0.264832" stop-color="white"/>
<stop offset="1" stop-color="white" stop-opacity="0"/>
</linearGradient>
<linearGradient id="paint86_linear_741_707" x1="47.696" y1="62.0734" x2="-26.7712" y2="62.0734" gradientUnits="userSpaceOnUse">
<stop offset="0.264832" stop-color="white"/>
<stop offset="1" stop-color="white" stop-opacity="0"/>
</linearGradient>
<linearGradient id="paint87_linear_741_707" x1="47.696" y1="62.0734" x2="-26.7712" y2="62.0734" gradientUnits="userSpaceOnUse">
<stop offset="0.264832" stop-color="white"/>
<stop offset="1" stop-color="white" stop-opacity="0"/>
</linearGradient>
<linearGradient id="paint88_linear_741_707" x1="47.696" y1="62.0734" x2="-26.7712" y2="62.0734" gradientUnits="userSpaceOnUse">
<stop offset="0.264832" stop-color="white"/>
<stop offset="1" stop-color="white" stop-opacity="0"/>
</linearGradient>
<linearGradient id="paint89_linear_741_707" x1="47.696" y1="62.0734" x2="-26.7712" y2="62.0734" gradientUnits="userSpaceOnUse">
<stop offset="0.264832" stop-color="white"/>
<stop offset="1" stop-color="white" stop-opacity="0"/>
</linearGradient>
<linearGradient id="paint90_linear_741_707" x1="47.696" y1="62.0734" x2="-26.7712" y2="62.0734" gradientUnits="userSpaceOnUse">
<stop offset="0.264832" stop-color="white"/>
<stop offset="1" stop-color="white" stop-opacity="0"/>
</linearGradient>
<linearGradient id="paint91_linear_741_707" x1="47.696" y1="62.0734" x2="-26.7712" y2="62.0734" gradientUnits="userSpaceOnUse">
<stop offset="0.264832" stop-color="white"/>
<stop offset="1" stop-color="white" stop-opacity="0"/>
</linearGradient>
<linearGradient id="paint92_linear_741_707" x1="47.696" y1="62.0734" x2="-26.7712" y2="62.0734" gradientUnits="userSpaceOnUse">
<stop offset="0.264832" stop-color="white"/>
<stop offset="1" stop-color="white" stop-opacity="0"/>
</linearGradient>
<linearGradient id="paint93_linear_741_707" x1="47.696" y1="62.0734" x2="-26.7712" y2="62.0734" gradientUnits="userSpaceOnUse">
<stop offset="0.264832" stop-color="white"/>
<stop offset="1" stop-color="white" stop-opacity="0"/>
</linearGradient>
<linearGradient id="paint94_linear_741_707" x1="47.696" y1="62.0734" x2="-26.7712" y2="62.0734" gradientUnits="userSpaceOnUse">
<stop offset="0.264832" stop-color="white"/>
<stop offset="1" stop-color="white" stop-opacity="0"/>
</linearGradient>
<linearGradient id="paint95_linear_741_707" x1="47.696" y1="62.0734" x2="-26.7712" y2="62.0734" gradientUnits="userSpaceOnUse">
<stop offset="0.264832" stop-color="white"/>
<stop offset="1" stop-color="white" stop-opacity="0"/>
</linearGradient>
<linearGradient id="paint96_linear_741_707" x1="47.696" y1="62.0734" x2="-26.7712" y2="62.0734" gradientUnits="userSpaceOnUse">
<stop offset="0.264832" stop-color="white"/>
<stop offset="1" stop-color="white" stop-opacity="0"/>
</linearGradient>
<linearGradient id="paint97_linear_741_707" x1="47.696" y1="62.0734" x2="-26.7712" y2="62.0734" gradientUnits="userSpaceOnUse">
<stop offset="0.264832" stop-color="white"/>
<stop offset="1" stop-color="white" stop-opacity="0"/>
</linearGradient>
<linearGradient id="paint98_linear_741_707" x1="47.696" y1="62.0734" x2="-26.7712" y2="62.0734" gradientUnits="userSpaceOnUse">
<stop offset="0.264832" stop-color="white"/>
<stop offset="1" stop-color="white" stop-opacity="0"/>
</linearGradient>
<linearGradient id="paint99_linear_741_707" x1="321.483" y1="279.712" x2="364.321" y2="279.712" gradientUnits="userSpaceOnUse">
<stop offset="0.264832" stop-color="white"/>
<stop offset="1" stop-color="white" stop-opacity="0"/>
</linearGradient>
<linearGradient id="paint100_linear_741_707" x1="321.483" y1="279.712" x2="364.321" y2="279.712" gradientUnits="userSpaceOnUse">
<stop offset="0.264832" stop-color="white"/>
<stop offset="1" stop-color="white" stop-opacity="0"/>
</linearGradient>
<linearGradient id="paint101_linear_741_707" x1="321.483" y1="279.712" x2="364.321" y2="279.712" gradientUnits="userSpaceOnUse">
<stop offset="0.264832" stop-color="white"/>
<stop offset="1" stop-color="white" stop-opacity="0"/>
</linearGradient>
<linearGradient id="paint102_linear_741_707" x1="321.483" y1="279.712" x2="364.321" y2="279.712" gradientUnits="userSpaceOnUse">
<stop offset="0.264832" stop-color="white"/>
<stop offset="1" stop-color="white" stop-opacity="0"/>
</linearGradient>
<linearGradient id="paint103_linear_741_707" x1="321.483" y1="279.712" x2="364.321" y2="279.712" gradientUnits="userSpaceOnUse">
<stop offset="0.264832" stop-color="white"/>
<stop offset="1" stop-color="white" stop-opacity="0"/>
</linearGradient>
<linearGradient id="paint104_linear_741_707" x1="52.6326" y1="60.5684" x2="9.79393" y2="60.5684" gradientUnits="userSpaceOnUse">
<stop offset="0.264832" stop-color="white"/>
<stop offset="1" stop-color="white" stop-opacity="0"/>
</linearGradient>
<linearGradient id="paint105_linear_741_707" x1="52.6326" y1="60.5684" x2="9.79393" y2="60.5684" gradientUnits="userSpaceOnUse">
<stop offset="0.264832" stop-color="white"/>
<stop offset="1" stop-color="white" stop-opacity="0"/>
</linearGradient>
<linearGradient id="paint106_linear_741_707" x1="52.6326" y1="60.5684" x2="9.79393" y2="60.5684" gradientUnits="userSpaceOnUse">
<stop offset="0.264832" stop-color="white"/>
<stop offset="1" stop-color="white" stop-opacity="0"/>
</linearGradient>
<linearGradient id="paint107_linear_741_707" x1="52.6326" y1="60.5684" x2="9.79393" y2="60.5684" gradientUnits="userSpaceOnUse">
<stop offset="0.264832" stop-color="white"/>
<stop offset="1" stop-color="white" stop-opacity="0"/>
</linearGradient>
<linearGradient id="paint108_linear_741_707" x1="52.6326" y1="60.5684" x2="9.79393" y2="60.5684" gradientUnits="userSpaceOnUse">
<stop offset="0.264832" stop-color="white"/>
<stop offset="1" stop-color="white" stop-opacity="0"/>
</linearGradient>
<linearGradient id="paint109_linear_741_707" x1="-15.4769" y1="265.333" x2="44.372" y2="254.1" gradientUnits="userSpaceOnUse">
<stop offset="0.146237" stop-color="white" stop-opacity="0"/>
<stop offset="1" stop-color="white"/>
</linearGradient>
<linearGradient id="paint110_linear_741_707" x1="-15.4769" y1="265.333" x2="44.372" y2="254.1" gradientUnits="userSpaceOnUse">
<stop offset="0.146237" stop-color="white" stop-opacity="0"/>
<stop offset="1" stop-color="white"/>
</linearGradient>
<linearGradient id="paint111_linear_741_707" x1="-15.4769" y1="265.333" x2="44.372" y2="254.1" gradientUnits="userSpaceOnUse">
<stop offset="0.146237" stop-color="white" stop-opacity="0"/>
<stop offset="1" stop-color="white"/>
</linearGradient>
<linearGradient id="paint112_linear_741_707" x1="-15.4769" y1="265.333" x2="44.372" y2="254.1" gradientUnits="userSpaceOnUse">
<stop offset="0.146237" stop-color="white" stop-opacity="0"/>
<stop offset="1" stop-color="white"/>
</linearGradient>
<linearGradient id="paint113_linear_741_707" x1="-15.4769" y1="265.333" x2="44.372" y2="254.1" gradientUnits="userSpaceOnUse">
<stop offset="0.146237" stop-color="white" stop-opacity="0"/>
<stop offset="1" stop-color="white"/>
</linearGradient>
<linearGradient id="paint114_linear_741_707" x1="-15.4769" y1="265.333" x2="44.372" y2="254.1" gradientUnits="userSpaceOnUse">
<stop offset="0.146237" stop-color="white" stop-opacity="0"/>
<stop offset="1" stop-color="white"/>
</linearGradient>
<linearGradient id="paint115_linear_741_707" x1="-15.4769" y1="265.333" x2="44.372" y2="254.1" gradientUnits="userSpaceOnUse">
<stop offset="0.146237" stop-color="white" stop-opacity="0"/>
<stop offset="1" stop-color="white"/>
</linearGradient>
<linearGradient id="paint116_linear_741_707" x1="-15.4769" y1="265.333" x2="44.372" y2="254.1" gradientUnits="userSpaceOnUse">
<stop offset="0.146237" stop-color="white" stop-opacity="0"/>
<stop offset="1" stop-color="white"/>
</linearGradient>
<linearGradient id="paint117_linear_741_707" x1="407.259" y1="26.2164" x2="347.41" y2="37.4495" gradientUnits="userSpaceOnUse">
<stop offset="0.158835" stop-color="white" stop-opacity="0"/>
<stop offset="1" stop-color="white"/>
</linearGradient>
<linearGradient id="paint118_linear_741_707" x1="407.259" y1="26.2164" x2="347.41" y2="37.4495" gradientUnits="userSpaceOnUse">
<stop offset="0.158835" stop-color="white" stop-opacity="0"/>
<stop offset="1" stop-color="white"/>
</linearGradient>
<linearGradient id="paint119_linear_741_707" x1="407.259" y1="26.2164" x2="347.41" y2="37.4495" gradientUnits="userSpaceOnUse">
<stop offset="0.158835" stop-color="white" stop-opacity="0"/>
<stop offset="1" stop-color="white"/>
</linearGradient>
<linearGradient id="paint120_linear_741_707" x1="407.259" y1="26.2164" x2="347.41" y2="37.4495" gradientUnits="userSpaceOnUse">
<stop offset="0.158835" stop-color="white" stop-opacity="0"/>
<stop offset="1" stop-color="white"/>
</linearGradient>
<linearGradient id="paint121_linear_741_707" x1="407.259" y1="26.2164" x2="347.41" y2="37.4495" gradientUnits="userSpaceOnUse">
<stop offset="0.158835" stop-color="white" stop-opacity="0"/>
<stop offset="1" stop-color="white"/>
</linearGradient>
<linearGradient id="paint122_linear_741_707" x1="407.259" y1="26.2164" x2="347.41" y2="37.4495" gradientUnits="userSpaceOnUse">
<stop offset="0.158835" stop-color="white" stop-opacity="0"/>
<stop offset="1" stop-color="white"/>
</linearGradient>
<linearGradient id="paint123_linear_741_707" x1="407.259" y1="26.2164" x2="347.41" y2="37.4495" gradientUnits="userSpaceOnUse">
<stop offset="0.158835" stop-color="white" stop-opacity="0"/>
<stop offset="1" stop-color="white"/>
</linearGradient>
<linearGradient id="paint124_linear_741_707" x1="407.259" y1="26.2164" x2="347.41" y2="37.4495" gradientUnits="userSpaceOnUse">
<stop offset="0.158835" stop-color="white" stop-opacity="0"/>
<stop offset="1" stop-color="white"/>
</linearGradient>
</defs>
</svg>
